<svg xmlns="http://www.w3.org/2000/svg" enable-background="new 0 0 512 512" height="512" width="496" style=""><rect id="backgroundrect" width="100%" height="100%" x="0" y="0" fill="none" stroke="none" class="" style=""/><g class="currentLayer" style=""><title>Layer 1</title><g id="svg_1" class="selected" fill="#000000" fill-opacity="1"><g id="svg_2" fill="#000000" fill-opacity="1"><ellipse cx="124.74222919354901" cy="437.4918683759786" fill="#000000" rx="61.59600067138672" ry="26.729999542236328" transform="matrix(0.309,-0.951,0.951,0.309,-335.576,428.675) " id="svg_3" fill-opacity="1"/><path d="m113.50299696350098,437.06700190734864 c-9.059,27.86 -8.204,53.919 1.185,63.536 c-5.162,3.475 -10.221,4.763 -14.688,3.305 c-14.038,-4.569 -16.887,-34.492 -6.37,-66.841 c10.517,-32.35 30.424,-54.877 44.462,-50.319 c1.948,0.6380000000000001 3.692,1.766 5.196,3.316 c-11.063,7.452 -22.617,24.943 -29.785,47.003 z" fill="#000000" id="svg_4" fill-opacity="1"/><ellipse cx="376.87089551741053" cy="442.7832179291761" fill="#000000" rx="26.729999542236328" ry="61.59600067138672" transform="matrix(0.951,-0.309,0.309,0.951,-118.851,140.786) " id="svg_5" fill-opacity="1"/><path d="m402.339996963501,498.6430019073486 c-1.8570000000000002,2.575 -4.136,4.3870000000000005 -6.825,5.264 c-14.05,4.569 -33.956,-17.958 -44.473,-50.307 c-10.517,-32.361 -7.6690000000000005,-62.283 6.37,-66.852 c3.681,-1.197 7.771,-0.524 11.987,1.6980000000000002 c-7.828,10.871 -8.067,35.426 0.43300000000000005,61.577 c7.771,23.871 20.646,42.388 32.508,48.62 z" fill="#000000" id="svg_6" fill-opacity="1"/><circle cx="467.2959842681885" cy="28.231002807617188" fill="#000000" r="20.726999282836914" id="svg_7" fill-opacity="1"/><circle cx="28.219995498657227" cy="28.231002807617188" fill="#000000" r="20.726999282836914" id="svg_8" fill-opacity="1"/><circle cx="405.95598793029785" cy="89.57000160217285" fill="#000000" r="82.06600189208984" id="svg_9" fill-opacity="1"/><path d="m476.750996963501,48.04600190734863 c-12.181,-7.167 -26.367,-11.269 -41.522,-11.269 c-45.328,0 -82.076,36.737 -82.076,82.064 c0,15.155 4.102,29.341 11.269,41.522 c-24.248,-14.255 -40.531,-40.622 -40.531,-70.784 c0,-45.328 36.748,-82.076 82.064,-82.076 c30.174,0.0010000000000000002 56.542,16.284 70.796,40.543 z" fill="#000000" id="svg_10" fill-opacity="1"/><circle cx="89.55999946594238" cy="89.57000160217285" fill="#000000" r="82.06600189208984" id="svg_11" fill-opacity="1"/><path d="m107.77699696350098,169.61200190734863 c-5.868,1.322 -11.964,2.028 -18.22,2.028 c-45.328,0 -82.064,-36.748 -82.064,-82.064 c0,-45.328 36.737,-82.076 82.065,-82.076 c6.255,0 12.352,0.7070000000000001 18.22,2.028 c-36.554,8.284 -63.855,40.975 -63.855,80.047 c-0.0010000000000000002,39.062 27.3,71.753 63.854,80.037 z" fill="#000000" id="svg_12" fill-opacity="1"/><g id="svg_13" fill="#000000" fill-opacity="1"><circle cx="247.75798988342285" cy="247.76899909973145" fill="#000000" r="223.7259979248047" id="svg_14" fill-opacity="1"/><path d="m262.120996963501,471.0460019073486 c-4.7490000000000006,0.29000000000000004 -9.541,0.45 -14.362,0.45 c-123.568,0 -223.727,-100.173 -223.727,-223.727 s100.158,-223.727 223.727,-223.727 c4.821,0 9.614,0.16000000000000003 14.362,0.45 c-116.83,7.464 -209.278,104.573 -209.278,223.277 s92.448,215.813 209.278,223.277 z" fill="#000000" id="svg_15" fill-opacity="1"/><circle cx="247.75798988342285" cy="247.76899909973145" fill="#000000" r="170.99200439453125" id="svg_16" fill-opacity="1"/><path d="m277.63499696350095,416.28300190734865 c-9.468,1.641 -19.213,2.483 -29.146,2.483 c-94.437,0 -170.998,-76.56 -170.998,-170.998 s76.561,-170.997 170.998,-170.997 c9.933,0 19.677,0.8420000000000001 29.146,2.483 c-80.539,13.825 -141.837,84.01 -141.837,168.514 s61.298,154.69 141.837,168.515 z" fill="#000000" id="svg_17" fill-opacity="1"/><path d="m247.75799696350097,269.55200190734865 h-79.442 c-12.03,0 -21.783,-9.753 -21.783,-21.783 s9.753,-21.783 21.783,-21.783 h79.442 c12.03,0 21.783,9.753 21.783,21.783 s-9.753,21.783 -21.783,21.783 z" fill="#000000" id="svg_18" fill-opacity="1"/><path d="m247.75799696350097,269.55200190734865 c-12.03,0 -21.783,-9.753 -21.783,-21.783 v-55.621 c0,-12.03 9.753,-21.783 21.783,-21.783 s21.783,9.753 21.783,21.783 v55.621 c0,12.03 -9.753,21.783 -21.783,21.783 z" fill="#000000" id="svg_19" fill-opacity="1"/></g></g><g id="svg_20" fill="#000000" fill-opacity="1"><path d="m495.517996963501,89.57500190734864 c0,-14.449 -3.443,-28.107 -9.544,-40.204 c5.956,-5.288 9.544,-12.975999999999999 9.544,-21.144 c0,-15.564 -12.662,-28.227 -28.226,-28.227 c-8.168,0 -15.852,3.589 -21.135,9.547 c-12.096,-6.103 -25.753,-9.547 -40.201,-9.547 c-27.411,0 -53.176,12.549 -70.114,33.847 c-27.571,-11.351 -57.369,-17.305 -88.083,-17.305 s-60.511,5.953 -88.081,17.304 c-16.957,-21.298000000000002 -42.724,-33.846000000000004 -70.119,-33.846000000000004 c-14.446,0 -28.102,3.444 -40.198,9.547 c-5.282,-5.958 -12.966,-9.547 -21.134,-9.547 c-15.564,0 -28.227,12.663 -28.227,28.227 c0,8.168 3.589,15.857 9.545,21.145 c-6.101,12.098 -9.544,25.757 -9.544,40.207 c0,6.114 0.6240000000000001,12.247 1.8530000000000002,18.23 c0.7290000000000001,3.548 3.853,5.991 7.339,5.991 c0.501,0 1.009,-0.05000000000000001 1.5190000000000001,-0.15500000000000003 c4.057,-0.8340000000000001 6.67,-4.799 5.836,-8.857 c-1.026,-4.99 -1.5470000000000002,-10.107 -1.5470000000000002,-15.209 c-0.0010000000000000002,-41.123 33.446,-74.579 74.558,-74.579 c21.526,0 41.852,9.308 55.94,25.268 c-22.39,11.059 -43.066,25.822 -61.241,43.998 c-18.173,18.173 -32.935,38.845 -43.994,61.232 c-5.142,-4.531 -9.638,-9.724 -13.391,-15.544 c-2.243,-3.482 -6.8870000000000005,-4.482 -10.367,-2.239 c-3.481,2.245 -4.483,6.8870000000000005 -2.238,10.368 c5.337,8.278 11.917,15.506 19.575,21.591 c-11.354,27.573 -17.308,57.375 -17.308,88.093 c0,61.762 24.052,119.827 67.724,163.5 c2.7110000000000003,2.7110000000000003 5.478,5.346 8.298,7.905 c-2.2720000000000002,4.963 -4.304,10.177 -6.057,15.573 c-5.397,16.601 -7.655,33.246 -6.357,46.868 c1.504,15.782 7.732,26.232 17.538,29.424 c1.984,0.6460000000000001 4.025,0.9650000000000001 6.104,0.9650000000000001 c8.2,0 17.012,-4.962 25.388,-14.439 c8.706,-9.85 16.395,-23.892 21.776,-39.695 c29.965,13.827 62.824,21.125 96.81,21.125 s66.846,-7.298 96.812,-21.125 c5.377,15.805 13.063,29.845 21.773,39.696 c8.378,9.477 17.19,14.439 25.391000000000002,14.438 c2.08,0 4.121,-0.31900000000000006 6.105,-0.9650000000000001 c9.806000000000001,-3.192 16.034,-13.641 17.538,-29.424 c1.298,-13.622 -0.9600000000000001,-30.267 -6.356,-46.865 c-1.754,-5.399 -3.787,-10.614 -6.059,-15.577 c2.819,-2.559 5.586,-5.193 8.296,-7.9030000000000005 c43.672,-43.672 67.724,-101.738 67.724,-163.5 c0,-30.715 -5.953,-60.514 -17.305,-88.084 c21.294,-16.934 33.84,-42.698 33.84,-70.109 zm-477.832,-53.381 c-1.7040000000000002,-2.26 -2.6870000000000003,-5.047 -2.6870000000000003,-7.968 c0.0010000000000000002,-7.292 5.934,-13.226 13.228,-13.226 c2.919,0 5.705,0.983 7.961,2.688 c-7.029,5.236 -13.268,11.475 -18.502,18.506 zm449.606,-21.194 c7.293,0 13.226,5.934 13.226,13.226 c0,2.92 -0.982,5.707 -2.686,7.9670000000000005 c-5.234,-7.031 -11.472,-13.27 -18.502,-18.504 c2.257,-1.705 5.043,-2.689 7.962,-2.689 zm-329.95,436.275 c-10.221,31.403 -27.561,47.923 -35.02,45.497 c-7.454,-2.426 -11.767,-25.99 -1.557,-57.393 c1.123,-3.461 2.3770000000000002,-6.827 3.737,-10.089 c10.396,8.238 21.401,15.511 32.905,21.775 c-0.022000000000000006,0.07 -0.04200000000000001,0.14100000000000001 -0.06500000000000002,0.21000000000000002 zm257.413,-11.893 c10.21,31.401 5.896,54.964 -1.558,57.39 c-3.55,1.1560000000000001 -9.682,-2.432 -15.617,-9.145 c-7.736,-8.751 -14.627,-21.66 -19.409,-36.369 c-0.020000000000000004,-0.06200000000000001 -0.04000000000000001,-0.13 -0.06000000000000001,-0.19300000000000003 c11.504,-6.265 22.508,-13.538 32.904,-21.776 c1.361,3.262 2.615,6.6290000000000004 3.74,10.093 zm5.896,-38.722 c-40.838,40.839 -95.138,63.33 -152.893,63.33 s-112.055,-22.49 -152.893,-63.33 c-40.84,-40.839 -63.331,-95.138 -63.331,-152.894 s22.491,-112.055 63.331,-152.894 c40.838,-40.839 95.138,-63.33 152.893,-63.33 s112.055,22.491 152.893,63.33 c40.84,40.839 63.331,95.138 63.331,152.894 c0.0010000000000000002,57.756 -22.49,112.055 -63.331,152.894 zm10.607,-316.394 c-18.176,-18.176 -38.851,-32.939 -61.242,-43.999 c14.074,-15.959 34.399,-25.267 55.94,-25.267 c41.114,0 74.563,33.454 74.563,74.575 c0,21.54 -9.305,41.863 -25.261,55.933 c-11.06,-22.391000000000002 -25.824,-43.066 -44,-61.242 z" id="svg_21" fill="#000000" fill-opacity="1"/><path d="m247.75799696350097,69.27900190734863 c-98.419,0 -178.489,80.07 -178.489,178.489 s80.07,178.488 178.489,178.488 c41.925,0 82.671,-14.829 114.732,-41.756 c3.172,-2.664 3.584,-7.394 0.92,-10.566 c-2.6630000000000003,-3.172 -7.393,-3.584 -10.566,-0.92 c-5.39,4.526 -11.049,8.676 -16.933,12.44 l-6.986,-12.1 c-2.071,-3.587 -6.66,-4.815 -10.245,-2.745 c-3.587,2.071 -4.816,6.658 -2.745,10.245 l6.984,12.097 c-20.877,10.797 -43.975,17.039 -67.661,18.13 v-28.49 c0,-4.142 -3.357,-7.5 -7.5,-7.5 s-7.5,3.358 -7.5,7.5 v28.488 c-24.297,-1.103 -47.226,-7.532 -67.649,-18.148 l6.9719999999999995,-12.076 c2.071,-3.587 0.8420000000000001,-8.174 -2.745,-10.245 c-3.587,-2.072 -8.175,-0.8430000000000001 -10.245,2.745 l-6.963,12.06 c-19.845,-12.75 -36.766,-29.672 -49.517,-49.517 l12.061,-6.963 c3.587,-2.071 4.816,-6.658 2.745,-10.245 c-2.07,-3.588 -6.66,-4.817 -10.245,-2.745 l-12.076,6.9719999999999995 c-10.616,-20.423000000000002 -17.045,-43.352 -18.148,-67.649 h28.487 c4.143,0 7.5,-3.358 7.5,-7.5 s-3.357,-7.5 -7.5,-7.5 h-28.487 c1.103,-24.297 7.533,-47.226 18.148,-67.649 l12.075,6.971 c1.182,0.6820000000000002 2.471,1.006 3.7430000000000003,1.006 c2.592,0 5.113,-1.346 6.502,-3.7510000000000003 c2.071,-3.587 0.8420000000000001,-8.174 -2.745,-10.245 l-12.06,-6.963 c12.75,-19.845 29.672,-36.766 49.516,-49.516 l6.963,12.059 c1.389,2.406 3.91,3.7510000000000003 6.502,3.7510000000000003 c1.272,0 2.5620000000000003,-0.32400000000000007 3.7430000000000003,-1.006 c3.587,-2.071 4.816,-6.658 2.745,-10.245 l-6.971,-12.075 c20.423000000000002,-10.616 43.352,-17.045 67.649,-18.148 v28.486 c0,4.142 3.357,7.5 7.5,7.5 s7.5,-3.358 7.5,-7.5 v-28.485 c24.296,1.103 47.226,7.532 67.649,18.148 l-6.971,12.075 c-2.071,3.587 -0.8420000000000001,8.174 2.745,10.245 c1.182,0.6820000000000002 2.471,1.006 3.7430000000000003,1.006 c2.592,0 5.113,-1.346 6.502,-3.7510000000000003 l6.963,-12.059 c19.845,12.75 36.766,29.671 49.517,49.516 l-12.06,6.963 c-3.587,2.071 -4.816,6.658 -2.745,10.245 c1.389,2.406 3.91,3.7510000000000003 6.502,3.7510000000000003 c1.272,0 2.5620000000000003,-0.32400000000000007 3.7430000000000003,-1.006 l12.075,-6.971 c10.616,20.423000000000002 17.045,43.352 18.148,67.649 h-28.487 c-4.143,0 -7.5,3.358 -7.5,7.5 s3.357,7.5 7.5,7.5 h28.49 c-1.091,23.686 -7.333,46.784 -18.13,67.661 l-12.096,-6.984 c-3.59,-2.072 -8.175,-0.8420000000000001 -10.245,2.745 c-2.071,3.587 -0.8420000000000001,8.174 2.745,10.245 l12.1,6.986 c-3.765,5.884 -7.914,11.544 -12.441,16.934 c-2.664,3.172 -2.252,7.9030000000000005 0.92,10.566 c3.172,2.665 7.9030000000000005,2.252 10.566,-0.92 c26.927,-32.062 41.756,-72.808 41.756,-114.732 c0,-98.421 -80.07,-178.491 -178.489,-178.491 z" id="svg_22" fill="#000000" fill-opacity="1"/><path d="m218.47499696350098,192.14600190734862 v26.338 h-50.166 c-16.146,0 -29.283,13.136 -29.283,29.283 c0,16.146 13.137,29.282 29.283,29.282 h79.45 h0.0010000000000000002 c16.145,-0.0010000000000000002 29.281,-13.137 29.281,-29.282 v-55.621 c0,-16.147 -13.137,-29.283 -29.283,-29.283 s-29.283,13.136 -29.283,29.283 zm-64.448,55.621 c0,-7.876 6.407,-14.283 14.283,-14.283 h50.166 v14.283 c0,5.184 1.36,10.054 3.733,14.283 h-53.899 c-7.876,-0.0010000000000000002 -14.283,-6.408 -14.283,-14.283 zm108.014,-55.621 v55.621 c0,7.875 -6.407,14.283 -14.283,14.283 s-14.283,-6.407 -14.283,-14.283 v-55.621 c0,-7.876 6.407,-14.283 14.283,-14.283 s14.283,6.407 14.283,14.283 z" id="svg_23" fill="#000000" fill-opacity="1"/></g></g></g></svg>