<svg xmlns="http://www.w3.org/2000/svg" xmlns:xlink="http://www.w3.org/1999/xlink" height="512" width="512"><rect id="backgroundrect" width="100%" height="100%" x="0" y="0" fill="none" stroke="none"/><linearGradient id="a" x1="0" x2="1" y1="0.5" y2="0.5"><stop offset="0" stop-color="#00f38d"/><stop offset="1" stop-color="#009eff"/></linearGradient><g class="currentLayer" style=""><title>Layer 1</title><path d="m512 256c0 141.386719-114.613281 256-256 256s-256-114.613281-256-256 114.613281-256 256-256 256 114.613281 256 256zm0 0" fill="#000000" id="svg_1" class="selected" fill-opacity="1"/><g fill="#000000" id="svg_2" class="selected" fill-opacity="1"><path d="m344.15625 105.59375h-49.007812c-6.03125-15.554688-21.15625-26.613281-38.816407-26.613281-17.660156 0-32.785156 11.058593-38.816406 26.613281h-49.671875c-22.945312 0-41.613281 18.667969-41.613281 41.613281v234.195313c0 22.945312 18.667969 41.613281 41.613281 41.613281h176.355469c22.921875-.023437 41.570312-18.691406 41.570312-41.613281v-234.195313c0-22.945312-18.667969-41.613281-41.613281-41.613281zm-99.4375 30v-15c0-6.402344 5.210938-11.613281 11.613281-11.613281 6.402344 0 11.613281 5.210937 11.613281 11.613281v15h26.613282v22.5625h-76.453125v-22.5625zm111.050781 245.8125c0 6.394531-5.203125 11.605469-11.585937 11.613281h-176.339844c-6.402344 0-11.613281-5.210937-11.613281-11.613281v-234.199219c0-6.402343 5.210937-11.613281 11.613281-11.613281h20.261719v52.5625h136.453125v-52.5625h19.597656c6.402344 0 11.613281 5.210938 11.613281 11.613281zm0 0" id="svg_3" fill="#000000" fill-opacity="1"/><path d="m240.199219 304.648438-35.3125-34.15625-20.859375 21.5625 57.542968 55.660156 86.402344-94.9375-22.1875-20.191406zm0 0" id="svg_4" fill="#000000" fill-opacity="1"/></g></g></svg>