<svg xmlns="http://www.w3.org/2000/svg" enable-background="new 0 0 512 512" height="397" width="512"><rect id="backgroundrect" width="100%" height="100%" x="0" y="0" fill="none" stroke="none" class="" style=""/><g class="currentLayer" style=""><title>Layer 1</title><path d="m359.5909828338623,112.15200930786133 c-126.988,0 -202.882,129.965 -261.373,148.187 c-4.614,-17.807 -18.961,-31.995 -37.649,-35.905 l-30.068,-6.292 c-11.86,-2.482 -23.001,6.57 -23.001,18.686 c0,25.634 15.897,48.152 39.193,57.131 c-23.296,8.98 -39.193,31.498 -39.193,57.132 c0,12.117 11.142,21.168 23.001,18.687 l30.068,-6.292 c19.175,-4.013 33.781,-18.845 37.99,-37.306 c69.85,7.078 199.455,63.051 261.032,63.051 c80.031,0 144.909,-62.026 144.909,-138.539 s-64.878,-138.54 -144.909,-138.54 z" fill="#000000" id="svg_1" class="" fill-opacity="1"/><path d="m7.499982833862305,351.0910093078613 c0,12.117 11.142,21.168 23.001,18.687 l30.068,-6.292 c19.175,-4.013 33.781,-18.845 37.99,-37.306 c43.601,4.418 110.484,27.887 169.572,44.902 c-71.775,-50.03 -73.316,-138.493 -54.621,-199.953 c-47.041,36.948 -83.707,79.37 -115.293,89.21 c-4.614,-17.807 -18.961,-31.995 -37.649,-35.905 l-30.068,-6.292 c-11.86,-2.482 -23.001,6.57 -23.001,18.686 c0,25.634 15.897,48.152 39.193,57.131 c-23.295,8.98 -39.192,31.498 -39.192,57.132 z" fill="#000000" id="svg_2" class="" fill-opacity="1"/><path d="m133.8109828338623,332.3650093078613 c72.153,16.509 173.491,56.866 225.78,56.866 c70.156,0 128.663,-47.664 142.035,-110.967 c-149.694,-47.427 -227.769,51.053 -367.815,54.101 z" fill="#000000" id="svg_3" class="" fill-opacity="1"/><path d="m221.5519828338623,318.2400093078613 c-27.081,7.7620000000000005 -55.796,13.429 -87.741,14.125 c40.223,9.203 89.513,25.816 134.322,38.718 c-21.25,-14.812 -36.347,-32.991 -46.581,-52.843 z" fill="#000000" id="svg_4" class="" fill-opacity="1"/><ellipse cx="345.04899406433105" cy="223.91801834106445" fill="#000000" rx="23.000999450683594" ry="18.316999435424805" id="svg_5" class="" fill-opacity="1"/><ellipse cx="469.71998405456543" cy="223.91801834106445" fill="#000000" rx="23.000999450683594" ry="18.316999435424805" id="svg_6" class="" fill-opacity="1"/><path d="m238.3139828338623,325.3680093078613 c-12.763,0 -22.297,-11.736 -19.683,-24.229 l6.628,-31.674 c5.038,-24.077 26.267,-41.323 50.865,-41.323 c18.021,0 31.483,16.57 27.792,34.209 l-2.451,11.713000000000001 c-6.255,29.893 -32.611,51.305 -63.151,51.304 z" fill="#000000" id="svg_7" class="" fill-opacity="1"/><path d="m363.5209828338623,272.0820093078613 c-1.252,20.963 -7.75,38.663 -19.43,52.712 c-18.74,22.541 -51.014,36.111 -95.972,40.392 c11.236,3.371 22.322,6.618 33.059,9.576 c32.882,-7.355 57.732,-20.959 74.11,-40.66 c14.438,-17.366 22.125,-39.179 22.948,-64.927 c-4.956,0.8480000000000001 -9.855,1.8290000000000002 -14.715,2.907 z" fill="#000000" id="svg_8" class="" fill-opacity="1"/><path d="m347.9919828338623,388.66000930786134 c4.083,0.36900000000000005 7.963,0.5700000000000001 11.599,0.5700000000000001 c13.726,0 27.003,-1.832 39.587,-5.242 c42.113,-24.427 62.064,-64.107 57.658,-116.08 c-5.001,-0.7170000000000001 -9.932,-1.287 -14.785,-1.6910000000000003 c6.479,63.109 -25.773,105.129 -94.059,122.443 z" fill="#000000" id="svg_9" class="" fill-opacity="1"/><path d="m299.8539828338623,69.93600930786133 c-4.142,0 -7.5,3.357 -7.5,7.5 v14.565 c0,4.143 3.358,7.5 7.5,7.5 s7.5,-3.357 7.5,-7.5 v-14.565 c0,-4.142 -3.357,-7.5 -7.5,-7.5 zm-34.91,-54.936 c15.114,0 27.41,12.296 27.41,27.41 v6.657 c0,4.143 3.358,7.5 7.5,7.5 s7.5,-3.357 7.5,-7.5 v-6.657 c0,-15.114 12.296,-27.41 27.41,-27.41 c4.142,0 7.5,-3.358 7.5,-7.5 c0,-4.143 -3.358,-7.5 -7.5,-7.5 c-14.458,0 -27.251,7.273 -34.91,18.353 c-7.659,-11.08 -20.452,-18.353 -34.91,-18.353 c-4.142,0 -7.5,3.357 -7.5,7.5 c0,4.142 3.358,7.5 7.5,7.5 zm-245.662,212.833 c2.721,-2.211 6.248,-3.067 9.683,-2.35 l30.067,6.292 c15.676,3.2800000000000002 27.909,14.946 31.925,30.445 c0.515,1.987 1.8210000000000002,3.676 3.614,4.674 c1.794,0.997 3.918,1.218 5.877,0.6050000000000001 c22.253,-6.933 45.722,-27.903 72.898,-52.186 c33.153,-29.623 70.729,-63.199 116.755,-81.764 c3.842,-1.549 5.7,-5.9190000000000005 4.15,-9.761 c-1.549,-3.841 -5.9190000000000005,-5.699 -9.761,-4.149 c-48.455,19.543 -87.07,54.047 -121.139,84.489 c-22.86,20.426 -42.966,38.392 -60.545,46.413 c-7.174,-17.063 -22.166,-29.571 -40.702,-33.449 l-30.067,-6.292 c-7.8740000000000006,-1.6470000000000002 -15.97,0.31600000000000006 -22.214,5.389 c-6.242,5.073 -9.823,12.596 -9.823,20.64 c0,23.089 11.838000000000001,44.54 30.56,57.131 c-18.722,12.591 -30.56,34.043 -30.56,57.131 c0,8.045 3.581,15.567 9.825,20.64 c4.796,3.896 10.685,5.958 16.726,5.958 c1.823,0 3.661,-0.18800000000000003 5.487,-0.5700000000000001 l12.979,-2.716 c4.054,-0.8490000000000001 6.6530000000000005,-4.822 5.805,-8.877 s-4.824,-6.652 -8.877,-5.805 l-12.979,2.716 c-3.432,0.7160000000000001 -6.96,-0.137 -9.682,-2.349 c-2.722,-2.211 -4.283,-5.49 -4.283,-8.997 c0,-22.058 13.82,-42.204 34.39,-50.133 c2.894,-1.115 4.803,-3.8970000000000002 4.803,-6.998 c0,-3.102 -1.909,-5.883 -4.803,-6.998 c-20.571,-7.928 -34.391,-28.075 -34.391,-50.133 c0,-3.507 1.561,-6.785 4.282,-8.996 zm388.102,-8.45 c7.112,0 13.875,-3.08 18.555,-8.449 c2.721,-3.123 2.396,-7.861 -0.7270000000000001,-10.582 c-3.123,-2.722 -7.86,-2.396 -10.582,0.7270000000000001 c-1.83,2.101 -4.471,3.305 -7.246,3.305 s-5.416,-1.204 -7.246,-3.305 c-2.721,-3.122 -7.46,-3.447 -10.582,-0.7270000000000001 c-3.123,2.721 -3.448,7.459 -0.7270000000000001,10.582 c4.68,5.369 11.443,8.449 18.555,8.449 zm56.431,-13.737 v-8.123 c0,-4.143 -3.358,-7.5 -7.5,-7.5 s-7.5,3.357 -7.5,7.5 v8.123 c0,4.142 3.358,7.5 7.5,7.5 s7.5,-3.357 7.5,-7.5 zm-97.862,0 v-8.123 c0,-4.143 -3.358,-7.5 -7.5,-7.5 s-7.5,3.357 -7.5,7.5 v8.123 c0,4.142 3.358,7.5 7.5,7.5 s7.5,-3.357 7.5,-7.5 zm-6.362,-100.994 c-12.722,0 -25.53,1.279 -38.066,3.803 c-4.061,0.8170000000000001 -6.69,4.771 -5.873,8.832 s4.771,6.6930000000000005 8.833,5.873 c11.564,-2.327 23.376,-3.508 35.106,-3.508 c75.768,0 137.409,58.784 137.409,131.039 c0,6.089 -0.44800000000000006,12.08 -1.295,17.95 c-73.077,-21.004 -129.652,-8.14 -188.192,12.103 c0.48700000000000004,-1.6900000000000002 0.928,-3.401 1.2930000000000001,-5.144 l2.451,-11.713000000000001 c1.9660000000000002,-9.396 0.15200000000000002,-18.986 -5.109,-27.006 c-2.2720000000000002,-3.464 -6.922,-4.427 -10.385,-2.158 c-3.463,2.2720000000000002 -4.429,6.922 -2.157,10.385 c3.059,4.663 4.113,10.241 2.9690000000000003,15.707 l-2.451,11.713000000000001 c-5.497,26.272 -28.969,45.34 -55.81,45.339 c-3.808,0 -7.369,-1.693 -9.774000000000001,-4.644 c-0.012000000000000002,-0.015000000000000003 -0.023000000000000007,-0.031000000000000007 -0.036000000000000004,-0.04600000000000001 c-2.386,-2.957 -3.311,-6.782 -2.532,-10.502 l6.628,-31.674 c1.992,-9.518 6.927,-17.941 14.271,-24.357 c3.119,-2.726 3.439,-7.464 0.7130000000000001,-10.583 s-7.464,-3.438 -10.583,-0.7140000000000001 c-9.82,8.579 -16.419,19.846 -19.084,32.582 l-6.628,31.674 c-0.9560000000000001,4.565 -0.7390000000000001,9.202 0.554,13.537 c-27.429,7.338 -52.248,11.085 -77.355,11.7 c-12.75,-2.8920000000000003 -24.635,-5.055 -35.174,-6.123 c-3.765,-0.37400000000000005 -7.227,2.104 -8.069,5.795 c-2.455,10.765 -9.237,20.302 -18.608,26.164 c-3.512,2.197 -4.578,6.824 -2.3810000000000002,10.336 s6.823,4.578 10.336,2.3810000000000002 c10.799,-6.756 19.068,-17.104 23.364,-29.02 c31.386,4.248 74.304,17.359 115.893,30.064 c51.967,15.876 105.705,32.292 139.741,32.292 c73.572,0 135.133,-50.21 149.327,-116.747 c0.037000000000000005,-0.15800000000000003 0.06800000000000002,-0.31600000000000006 0.09500000000000003,-0.47500000000000003 c1.9540000000000002,-9.319 2.9859999999999998,-18.954 2.9859999999999998,-28.817 c0.0020000000000000005,-80.525 -68.368,-146.038 -152.407,-146.038 zm0,277.078 c-31.797,0 -84.444,-16.084 -135.359,-31.638 c-15.762,-4.815 -31.71,-9.686 -47.211,-14.131 c14.001,-2.223 28.346,-5.411 43.46,-9.63 c4.942,4.195 11.214,6.537 17.833,6.537 h0.0020000000000000005 c24.944,0 47.573,-13.05 60.561,-33.16 c63.423,-22.851 118.666,-38.281 193.795,-16.33 c-15.266,56.492 -69.143,98.352 -133.081,98.352 z" id="svg_10" class="" fill="#000000" fill-opacity="1"/></g></svg>