<svg xmlns="http://www.w3.org/2000/svg" enable-background="new 0 0 256 256" height="198" width="256"><rect id="backgroundrect" width="100%" height="100%" x="0" y="0" fill="none" stroke="none" class="" style=""/><g class="currentLayer" style=""><title>Layer 1</title><g fill="#000000" id="svg_1" class="selected" fill-opacity="1"><path d="m93.74429219818116,49.894192367553714 c-7.978,2.315 -12.993,11.797 -15.045,16.518 c-0.30400000000000005,0.7000000000000001 0.48400000000000004,1.3780000000000001 1.123,0.9590000000000001 c4.277,-2.806 11.193,-4.915 17.122,-6.846 c3.938,-1.282 5.132,-6.268 2.203,-9.197 c-1.412,-1.412 -3.484,-1.991 -5.4030000000000005,-1.4340000000000002 z" id="svg_2" fill="#000000" fill-opacity="1"/><path d="m62.830292198181155,45.71719236755371 c5.69,4.035 7.25,12.786 7.6770000000000005,17.319 c0.07200000000000001,0.7600000000000001 -0.8830000000000001,1.1480000000000001 -1.366,0.557 c-2.786,-3.407 -7.743,-6.948 -11.975999999999999,-10.091 c-2.883,-2.141 -2.489,-6.568 0.7270000000000001,-8.168 c1.59,-0.791 3.49,-0.6440000000000001 4.938,0.38300000000000006 z" id="svg_3" fill="#000000" fill-opacity="1"/><path d="m80.45329219818115,32.05619236755371 c-4.178,4.562 -3.894,12.44 -3.417,16.449 c0.08000000000000002,0.6720000000000002 0.98,0.8300000000000001 1.288,0.22700000000000004 c1.778,-3.474 5.414,-7.471 8.496,-10.987 c2.099,-2.395 0.929,-6.159 -2.157,-6.945 c-1.5270000000000001,-0.38700000000000007 -3.146,0.09500000000000003 -4.21,1.256 z" id="svg_4" fill="#000000" fill-opacity="1"/><path d="m253.50229219818115,4.843192367553712 c0.027000000000000007,-1.854 -2.012,-2.95 -3.6020000000000003,-1.995 s-4.003,1.726 -7.65,1.726 c-9.582,0 -19.164,5.323 -23.423000000000002,13.841 c0,0 -6.388,-11.711 -20.229,-11.711 c-5.019,0 -8.218,-0.7000000000000001 -10.256,-1.592 c-1.729,-0.7560000000000001 -3.623,0.6640000000000001 -3.289,2.521 c1.284,7.13 6.393,18.701 25.257,25.688 c0,0 -1.288,17.542 -13.077,34.725 c-7.061,-8.573 -9.099,-24.181 -12.475,-12.367 c-1.952,6.83 -1.6670000000000003,14.555 -0.787,20.92 c0.48400000000000004,3.496 -1.065,6.95 -3.939,8.997 c-4.478,3.189 -9.612,6.055 -15.503,8.411 c-41.458,16.582 -106.122,-53.607 -159.123,16.819 c-2.968,3.944 -3.696,9.146 -1.998,13.78 c5.781,15.769 24.427,50.649 77.27,55.71 c21.743,2.082 43.257,-1.6230000000000002 62.761,-10.143 c6.933,5.213 15.808,9.656 29.625,10.831 c3.867,0.32900000000000007 6.912,-3.253 6.017,-7.03 c-1.255,-5.295 -3.5,-12.869 -7.302,-20.717 c6.285,-4.907 12.173,-10.397 17.561,-16.442 c20.743,-23.268 40.028,-57.472 37.473,-102.964 c-0.0010000000000000002,0.0010000000000000002 26.398,-9.395 26.689,-29.008 z" id="svg_5" fill="#000000" fill-opacity="1"/><path d="m179.08029219818116,173.97519236755372 c-3.045,-12.848 -11.891,-39.109 -34.78,-50.159 l-36.199,4.259 s-5.323,15.97 11.711,23.423000000000002 c15.866,6.941 21.573,26.813 53.25,29.507 c3.869,0.32800000000000007 6.913,-3.254 6.018,-7.03 z" id="svg_6" fill="#000000" fill-opacity="1"/></g><path d="m159.21129219818116,134.77319236755372 c5.409,5.639 9.498,12.149000000000001 12.567,18.485 c6.285,-4.907 12.173,-10.397 17.561,-16.442 c16.872,-18.926 32.778,-45.088 36.753,-78.674 c-16.585,41.354 -40.625,64.648 -66.881,76.631 z" fill="#000000" id="svg_7" class="selected" fill-opacity="1"/><path d="m119.81329219818116,151.4971923675537 c-4.571,-2 -7.522,-4.615 -9.408,-7.368 c-52.524,5.991 -64.88,-17.584 -81.089,-26.701 c-10.97,-6.171 -20.609,-4.393 -26.086,-2.346 c-0.985,3.065 -0.9610000000000001,6.418 0.17700000000000002,9.523 c5.78,15.768 24.426,50.651 77.27,55.712 c21.743,2.082 43.257,-1.6230000000000002 62.761,-10.143 c-8.962,-6.739 -14.679,-14.763 -23.625,-18.677 z" fill="#000000" id="svg_8" class="selected" fill-opacity="1"/><path d="m104.82729219818115,180.27919236755372 c4.024,5.109 9.55,10.104 17.774,14.654 c3.396,1.879 7.638,-0.14800000000000002 8.363,-3.9610000000000003 c0.809,-4.257 1.633,-10.093 1.802,-16.694 c-9.029,3.028 -18.394,5.061 -27.939,6.001 z" fill="#000000" id="svg_9" class="selected" fill-opacity="1"/><path d="m173.56529219818114,183.5261923675537 c-0.23700000000000002,0 -0.47500000000000003,-0.010000000000000002 -0.7130000000000001,-0.030000000000000006 c-21.417,-1.8210000000000002 -31.409,-11.149000000000001 -40.225,-19.379 c-4.441,-4.146 -8.636,-8.062 -13.815,-10.328 c-15.128,-6.619 -15.171,-20.231 -13.081,-26.504 c0.43700000000000006,-1.31 1.854,-2.017 3.162,-1.581 c1.307,0.43600000000000005 2.015,1.847 1.584,3.154 c-0.18900000000000003,0.5830000000000001 -4.32,13.937 10.338000000000001,20.35 c5.962,2.609 10.461,6.808 15.223,11.254 c8.625,8.052 17.544,16.378 37.237,18.052 c1.024,0.08600000000000002 1.996,-0.31300000000000006 2.6710000000000003,-1.096 c0.6880000000000002,-0.798 0.9440000000000001,-1.843 0.7010000000000001,-2.866 c-7.531,-31.777 -24.18,-44.017 -33.434,-48.484 c-1.243,-0.6010000000000001 -1.7650000000000001,-2.095 -1.165,-3.338 s2.095,-1.7650000000000001 3.338,-1.165 c10.054,4.854 28.117,18.042 36.125,51.833 c0.6070000000000001,2.564 -0.05800000000000001,5.287 -1.779,7.284 c-1.576,1.83 -3.793,2.8440000000000003 -6.167,2.8440000000000003 z" id="svg_10" class="selected" fill="#000000" fill-opacity="1"/><path d="m173.56529219818114,183.5261923675537 c-0.23700000000000002,0 -0.47500000000000003,-0.010000000000000002 -0.7130000000000001,-0.030000000000000006 c-11.66,-0.992 -21.151,-4.324 -29.738,-10.461 c-19.868,8.42 -41.504,11.798 -62.674,9.771 c-54.59,-5.228 -73.697,-41.84 -79.378,-57.339 c-2.011,-5.484 -1.133,-11.519 2.347,-16.144 c34.571,-45.938 73.825,-33.912 108.457,-23.301 c19.189,5.8790000000000004 37.314,11.431000000000001 51.736,5.663 c5.404,-2.161 10.444,-4.896 14.981,-8.126 c2.15,-1.5310000000000001 3.266,-4.067 2.9130000000000003,-6.618 c-1.172,-8.467 -0.8830000000000001,-15.852 0.8590000000000001,-21.949 c0.806,-2.822 1.8920000000000001,-5.851 4.591,-6.063 c2.911,-0.21200000000000002 4.317,2.801 6.45,7.388 c1.048,2.252 2.275,4.892 3.748,7.2780000000000005 c7.535,-12.27 9.83,-24.203 10.458,-28.642 c-18.875,-7.636 -23.777,-20.033 -25.009,-26.877 c-0.31500000000000006,-1.749 0.35400000000000004,-3.519 1.7480000000000002,-4.619 c1.42,-1.12 3.337,-1.364 5.003,-0.6350000000000001 c1.4420000000000002,0.6310000000000001 4.218,1.383 9.254,1.383 c10.335,0 16.869,5.808 20.071,9.669 c5.189,-7.181 14.202,-11.799 23.58,-11.799 c2.709,0 4.85,-0.461 6.363,-1.369 c1.533,-0.921 3.442,-0.9430000000000001 4.986,-0.05500000000000001 c1.5310000000000001,0.8810000000000001 2.4290000000000003,2.462 2.403,4.23 c-0.131,8.839 -5.141,17.086 -14.488,23.848 c-4.8420000000000005,3.503 -9.627,5.742 -12.115,6.788 c1.6820000000000002,38.009 -11.162,72.643 -38.193,102.964 c-4.9719999999999995,5.578 -10.456,10.787 -16.321,15.506 c3.447,7.527 5.495,14.631 6.628,19.412 c0.6070000000000001,2.564 -0.05800000000000001,5.287 -1.779,7.284 c-1.577,1.8290000000000002 -3.794,2.843 -6.168,2.843 zm-30.127,-15.853 c0.533,0 1.062,0.17 1.5030000000000001,0.502 c8.224,6.183 16.962,9.371 28.334,10.338000000000001 c1.025,0.08900000000000002 1.996,-0.31300000000000006 2.6710000000000003,-1.096 c0.6880000000000002,-0.798 0.9440000000000001,-1.843 0.7010000000000001,-2.866 c-1.166,-4.921 -3.348,-12.42 -7.12,-20.203 c-0.514,-1.061 -0.21700000000000003,-2.3360000000000003 0.7110000000000001,-3.061 c6.222,-4.857 12.021,-10.286 17.234,-16.135 c26.545,-29.776 38.941,-63.812 36.843,-101.16 c-0.06200000000000001,-1.107 0.6130000000000001,-2.124 1.6580000000000001,-2.496 c0.24500000000000002,-0.08700000000000002 24.546,-8.982 25.023,-26.452 c-2.204,1.35 -5.174,2.029 -8.747,2.029 c-8.947,0 -17.46,5.007 -21.186,12.459 c-0.41700000000000004,0.8330000000000001 -1.2610000000000001,1.365 -2.191,1.381 c-0.9590000000000001,0.021000000000000005 -1.794,-0.48500000000000004 -2.24,-1.302 c-0.231,-0.41800000000000004 -5.909,-10.409 -18.034,-10.409 c-4.605,0 -8.313,-0.5730000000000001 -11.027,-1.703 c1.412,7.314 6.6850000000000005,17.208 23.606,23.476 c1.044,0.38700000000000007 1.707,1.417 1.625,2.527 c-0.05500000000000001,0.7440000000000001 -1.476,18.417 -13.509,35.956 c-0.44400000000000006,0.6470000000000001 -1.167,1.049 -1.952,1.083 c-0.791,0.030000000000000006 -1.54,-0.30200000000000005 -2.039,-0.908 c-2.819,-3.422 -4.828,-7.74 -6.441,-11.209 c-0.43400000000000005,-0.934 -0.9510000000000001,-2.044 -1.424,-2.968 c-0.08600000000000002,0.266 -0.17800000000000002,0.5670000000000001 -0.275,0.908 c-1.55,5.424 -1.79,12.116 -0.7140000000000001,19.89 c0.6080000000000001,4.402 -1.294,8.761 -4.966,11.376 c-4.86,3.461 -10.252,6.3870000000000005 -16.024,8.696 c-16.06,6.423 -35.002,0.6200000000000001 -55.058,-5.524 c-17.018,-5.214 -34.616,-10.606 -52.137,-9.301 c-19.717,1.468 -36.354,11.552 -50.86,30.828 c-2.456,3.2640000000000002 -3.072,7.531 -1.6480000000000001,11.417 c5.355,14.609 23.399,49.125 75.161,54.082 c20.793,1.9929999999999999 42.069,-1.448 61.522,-9.946 c0.32100000000000006,-0.14 0.6610000000000001,-0.20900000000000002 1,-0.20900000000000002 zm110.064,-162.83 h0.010000000000000002 z" id="svg_11" class="selected" fill="#000000" fill-opacity="1"/><path d="m171.77829219818116,155.7581923675537 c-0.18900000000000003,0 -0.37800000000000006,-0.021000000000000005 -0.5660000000000001,-0.06500000000000002 c-0.7360000000000001,-0.171 -1.354,-0.6650000000000001 -1.6840000000000002,-1.3450000000000002 c-3.383,-6.983 -7.461,-12.986 -12.122,-17.845 c-0.561,-0.5840000000000001 -0.804,-1.405 -0.6510000000000001,-2.2 c0.15200000000000002,-0.796 0.6810000000000002,-1.468 1.417,-1.8050000000000002 c28.757,-13.125 50.827,-38.455 65.599,-75.287 c0.467,-1.163 1.723,-1.8 2.938,-1.492 c1.215,0.31000000000000005 2.012,1.471 1.8650000000000002,2.716 c-3.452,29.169 -16.024,56.1 -37.369,80.043 c-5.413,6.072 -11.432,11.707 -17.889,16.749 c-0.44300000000000006,0.3480000000000001 -0.986,0.531 -1.538,0.531 zm-8.454,-20.171 c3.454,4.02 6.567,8.641 9.294,13.797 c5.325,-4.359 10.312,-9.136 14.854,-14.232 c15.559,-17.453 26.296,-36.521 32.069,-56.896 c-14.155,26.65 -32.998,45.878 -56.217,57.331 z" id="svg_12" class="selected" fill="#000000" fill-opacity="1"/><path d="m125.33329219818116,198.14919236755372 c-1.355,0 -2.705,-0.3440000000000001 -3.942,-1.029 c-7.73,-4.277 -13.791,-9.28 -18.527,-15.294 c-0.5650000000000001,-0.7180000000000001 -0.6940000000000002,-1.6870000000000003 -0.3360000000000001,-2.527 s1.146,-1.4180000000000001 2.055,-1.508 c9.252,-0.912 18.467,-2.8920000000000003 27.388,-5.883 c0.774,-0.26 1.624,-0.125 2.281,0.35900000000000004 c0.6560000000000001,0.48500000000000004 1.034,1.259 1.013,2.075 c-0.18100000000000002,7.058 -1.103,13.193 -1.8450000000000002,17.096 c-0.49200000000000005,2.588 -2.211,4.802 -4.598,5.923 c-1.121,0.527 -2.308,0.788 -3.489,0.788 zm-15.52,-15.939 c3.811,3.982 8.426,7.453 13.999,10.536 c0.8970000000000001,0.49700000000000005 1.949,0.529 2.886,0.09000000000000002 c0.9540000000000001,-0.44800000000000006 1.614,-1.2970000000000002 1.81,-2.33 c0.5800000000000001,-3.051 1.275,-7.532 1.602,-12.752 c-6.659,2.029 -13.456,3.521 -20.297,4.456 z" id="svg_13" class="selected" fill="#000000" fill-opacity="1"/><path d="m92.45929219818115,183.3781923675537 c-4.014,0 -8.024,-0.19000000000000003 -12.02,-0.5720000000000001 c-54.591,-5.229 -73.698,-41.841 -79.379,-57.34 c-1.303,-3.5540000000000003 -1.377,-7.513 -0.21000000000000002,-11.147 c0.234,-0.7280000000000001 0.789,-1.3090000000000002 1.505,-1.577 c5.324,-1.99 16.065,-4.311 28.188,2.509 c3.7640000000000002,2.117 7.281,4.938 11.005,7.924 c12.789,10.256 28.704,23.017 68.574,18.472 c0.917,-0.10300000000000001 1.823,0.30700000000000005 2.346,1.071 c1.842,2.689 4.651,4.8740000000000006 8.347,6.491 c5.963,2.609 10.462,6.808 15.225,11.254 c2.766,2.582 5.626,5.252 8.901,7.714 c0.7100000000000001,0.534 1.084,1.405 0.98,2.289 c-0.10300000000000001,0.8830000000000001 -0.6670000000000001,1.645 -1.482,2 c-16.494,7.204 -34.254,10.912 -51.98,10.912 zm-87.159,-66.37 c-0.48300000000000004,2.244 -0.33000000000000007,4.596 0.455,6.737 c5.355,14.61 23.399,49.126 75.161,54.083 c19.432,1.863 39.279,-1.02 57.668,-8.338000000000001 c-2.112,-1.786 -4.055,-3.6 -5.956,-5.374 c-4.442,-4.146 -8.638,-8.062 -13.817,-10.329 c-4.015,-1.7570000000000001 -7.223,-4.114 -9.556000000000001,-7.018 c-40.907,4.301 -58.184,-9.549 -70.835,-19.696 c-3.56,-2.855 -6.922,-5.551 -10.329,-7.468 c-9.157,-5.149 -17.269,-4.3870000000000005 -22.791,-2.597 z" id="svg_14" class="selected" fill="#000000" fill-opacity="1"/><path d="m199.13329219818115,73.61619236755371 c-0.808,0 -1.601,-0.39100000000000007 -2.083,-1.114 l-2.129,-3.194 c-0.7660000000000001,-1.149 -0.456,-2.701 0.6930000000000002,-3.467 s2.701,-0.456 3.467,0.6930000000000002 l2.129,3.194 c0.7660000000000001,1.149 0.456,2.701 -0.6930000000000002,3.467 c-0.42600000000000005,0.28500000000000003 -0.907,0.42100000000000004 -1.3840000000000001,0.42100000000000004 z" id="svg_15" class="selected" fill="#000000" fill-opacity="1"/><path d="m80.12329219818115,123.43219236755371 c-0.19100000000000003,0 -0.38600000000000007,-0.022000000000000006 -0.5800000000000001,-0.06800000000000002 c-1.343,-0.31900000000000006 -2.173,-1.6670000000000003 -1.854,-3.01 c0.405,-1.702 -0.6510000000000001,-3.417 -2.353,-3.821 c-0.8220000000000001,-0.19600000000000004 -1.6740000000000002,-0.06000000000000001 -2.3970000000000002,0.38500000000000006 c-0.7220000000000001,0.44400000000000006 -1.227,1.143 -1.423,1.968 c-0.32000000000000006,1.343 -1.6660000000000001,2.174 -3.011,1.854 c-1.343,-0.31900000000000006 -2.173,-1.6670000000000003 -1.854,-3.011 c0.505,-2.124 1.807,-3.924 3.6660000000000004,-5.068 s4.053,-1.497 6.176,-0.991 c4.384,1.043 7.102,5.458 6.06,9.842 c-0.273,1.147 -1.299,1.92 -2.43,1.92 z" id="svg_16" class="selected" fill="#000000" fill-opacity="1"/><path d="m79.40329219818115,70.00119236755371 c-0.7490000000000001,0 -1.492,-0.261 -2.101,-0.774 c-1.117,-0.9410000000000001 -1.476,-2.473 -0.8950000000000001,-3.811 c2.431,-5.596 7.825,-15.365 16.641000000000002,-17.923000000000002 c2.773,-0.806 5.787,-0.012000000000000002 7.868,2.067 c1.996,1.996 2.794,4.825 2.137,7.569 c-0.6570000000000001,2.742 -2.6510000000000002,4.9 -5.333,5.773 l-1.505,0.48800000000000004 c-5.334,1.727 -11.38,3.684 -15.019,6.072 c-0.553,0.36100000000000004 -1.175,0.539 -1.7930000000000001,0.539 zm15.038,-17.706 c-4.92,1.428 -8.669,6.272 -11.067,10.398 c3.5300000000000002,-1.545 7.579,-2.855 11.299,-4.06 l1.497,-0.48500000000000004 c1.031,-0.3360000000000001 1.7670000000000001,-1.1320000000000001 2.019,-2.186 c0.253,-1.055 -0.04200000000000001,-2.1 -0.81,-2.867 c-0.79,-0.789 -1.915,-1.095 -2.938,-0.8 z" id="svg_17" class="selected" fill="#000000" fill-opacity="1"/><path d="m69.73429219818115,66.38119236755371 c-0.9580000000000001,0 -1.887,-0.42400000000000004 -2.527,-1.205 c-2.351,-2.875 -6.6450000000000005,-6.052 -10.433,-8.854 l-1.098,-0.8130000000000001 c-2.057,-1.5270000000000001 -3.15,-3.962 -2.924,-6.514 c0.22700000000000004,-2.552 1.7320000000000002,-4.758 4.027,-5.899 c2.4210000000000003,-1.204 5.2940000000000005,-0.981 7.498,0.5820000000000001 c6.448,4.573 8.231,13.944 8.72,19.123 c0.136,1.4420000000000002 -0.6720000000000002,2.781 -2.011,3.331 c-0.40900000000000003,0.16800000000000004 -0.8330000000000001,0.24900000000000003 -1.252,0.24900000000000003 zm-1.715,-3.11 h0.010000000000000002 zm-7.976,-15.943 c-0.35400000000000004,0 -0.7080000000000001,0.08100000000000002 -1.037,0.24500000000000002 c-1.046,0.52 -1.239,1.477 -1.2730000000000001,1.864 s-0.013000000000000003,1.362 0.924,2.057 l1.091,0.808 c2.454,1.815 5.107,3.777 7.427,5.7940000000000005 c-0.8810000000000001,-3.725 -2.569,-8.057 -5.79,-10.341 c-0.4,-0.28200000000000003 -0.8700000000000001,-0.42700000000000005 -1.342,-0.42700000000000005 z" id="svg_18" class="selected" fill="#000000" fill-opacity="1"/><path d="m77.72229219818115,51.60919236755372 c-0.18900000000000003,0 -0.38000000000000006,-0.017000000000000005 -0.5710000000000001,-0.05100000000000001 c-1.387,-0.24900000000000003 -2.431,-1.356 -2.598,-2.7560000000000002 c-0.55,-4.63 -0.7550000000000001,-13.181 4.056,-18.434 c1.689,-1.8450000000000002 4.245,-2.607 6.6690000000000005,-1.99 c2.299,0.5850000000000001 4.092,2.286 4.795,4.551 s0.18900000000000003,4.681 -1.375,6.464 l-0.804,0.915 c-2.748,3.124 -5.863,6.665 -7.346,9.563 c-0.554,1.085 -1.645,1.738 -2.826,1.738 zm1.796,-3.399 h0.010000000000000002 zm4.088,-15.042 c-0.49200000000000005,0 -0.9680000000000001,0.20400000000000001 -1.3090000000000002,0.5760000000000001 c-2.109,2.303 -2.824,5.837 -2.982,8.979 c1.5150000000000001,-1.955 3.229,-3.902 4.827,-5.719 l0.798,-0.908 c0.5880000000000001,-0.6710000000000002 0.44700000000000006,-1.403 0.35900000000000004,-1.6860000000000002 c-0.08800000000000002,-0.28400000000000003 -0.38600000000000007,-0.9680000000000001 -1.252,-1.188 c-0.14700000000000002,-0.035 -0.29500000000000004,-0.05400000000000001 -0.44100000000000006,-0.05400000000000001 zm-3.153,-1.112 h0.010000000000000002 z" id="svg_19" class="selected" fill="#000000" fill-opacity="1"/><path d="m93.95229219818115,173.25019236755372 c-17.201,0 -32.705,-3.7670000000000003 -46.373,-11.296 c-26.254,-14.462 -38.162,-39.399 -40.535,-47.788 c-0.19600000000000004,-0.6930000000000002 -0.08300000000000002,-1.436 0.30800000000000005,-2.04 s1.024,-1.01 1.7360000000000002,-1.114 c7.33,-1.074 14.548,0.35300000000000004 21.456,4.238 c3.7640000000000002,2.117 7.281,4.938 11.005,7.924 c12.789,10.256 28.704,23.017 68.574,18.472 c0.917,-0.10300000000000001 1.823,0.30700000000000005 2.346,1.071 c1.842,2.689 4.651,4.8740000000000006 8.347,6.491 c5.966,2.6100000000000003 10.469,6.812 15.235,11.262 c0.6190000000000001,0.5780000000000001 1.244,1.161 1.8780000000000001,1.746 c0.6610000000000001,0.6100000000000001 0.9430000000000001,1.528 0.7400000000000001,2.404 s-0.8620000000000001,1.5750000000000002 -1.725,1.831 c-15.299,4.532 -29.657,6.799 -42.992,6.799 zm-81.124,-57.565 c3.6830000000000003,9.641 14.956,29.656 37.164,41.889 c22.077,12.161 49.41,13.933 81.29,5.285 c-3.957,-3.669 -7.817,-7.036 -12.47,-9.071 c-4.015,-1.7570000000000001 -7.223,-4.114 -9.556000000000001,-7.018 c-40.902,4.301 -58.183,-9.549 -70.835,-19.696 c-3.56,-2.855 -6.922,-5.551 -10.329,-7.468 c-4.96,-2.789 -10.075,-4.107 -15.264,-3.9210000000000003 z" id="svg_20" class="selected" fill="#000000" fill-opacity="1"/><path d="m95.17729219818115,160.80319236755372 c-17.405,0 -32.595,-3.763 -45.381,-11.269 c-16.765,-9.842 -25.771,-24.052 -30.374,-34.24 c-0.3990000000000001,-0.8830000000000001 -0.251,-1.9180000000000001 0.37800000000000006,-2.654 c0.6300000000000001,-0.7360000000000001 1.6300000000000001,-1.043 2.564,-0.785 c2.7880000000000003,0.7680000000000001 5.539,1.9100000000000001 8.178,3.395 c3.7640000000000002,2.117 7.282,4.938 11.005,7.924 c12.789,10.256 28.704,23.017 68.574,18.472 c0.917,-0.10300000000000001 1.823,0.30700000000000005 2.346,1.071 c1.842,2.689 4.651,4.8740000000000006 8.347,6.491 c2.1,0.918 4.162,2.106 6.301,3.6310000000000002 c0.808,0.5760000000000001 1.199,1.5750000000000002 0.997,2.5460000000000003 c-0.202,0.972 -0.9600000000000001,1.731 -1.931,1.936 c-10.994,2.322 -21.34,3.482 -31.004,3.482 zm-68.333,-41.864 c10.874,19.576 35.919,44.35 91.741,34.749 c-3.91,-1.746 -7.04,-4.068 -9.33,-6.917 c-40.902,4.301 -58.183,-9.549 -70.835,-19.696 c-3.56,-2.855 -6.922,-5.551 -10.329,-7.468 c-0.41300000000000003,-0.232 -0.8290000000000001,-0.455 -1.247,-0.6680000000000001 z" id="svg_21" class="selected" fill="#000000" fill-opacity="1"/><path d="m171.77829219818116,155.7581923675537 c-0.18900000000000003,0 -0.37800000000000006,-0.021000000000000005 -0.5660000000000001,-0.06500000000000002 c-0.7360000000000001,-0.171 -1.354,-0.6660000000000001 -1.6840000000000002,-1.3450000000000002 c-1.417,-2.925 -3.013,-5.763 -4.742,-8.433 c-0.7470000000000001,-1.153 -0.42400000000000004,-2.692 0.7240000000000001,-3.447 c9.107,-5.995 26.637,-18.472 41.721000000000004,-34.676 c0.8640000000000001,-0.928 2.287,-1.062 3.309,-0.31200000000000006 s1.3210000000000002,2.1470000000000002 0.6950000000000002,3.25 c-5.49,9.665000000000001 -12.229,19.001 -20.028,27.75 c-5.413,6.072 -11.432,11.707 -17.889,16.749 c-0.44500000000000006,0.3460000000000001 -0.988,0.529 -1.54,0.529 zm-1.485,-10.468 c0.809,1.336 1.585,2.704 2.324,4.097 c5.325,-4.359 10.313,-9.137 14.856,-14.234 c2.333,-2.6180000000000003 4.569,-5.289 6.7010000000000005,-8.006 c-9.16,7.848 -17.838,14.076 -23.881,18.143 z" id="svg_22" class="selected" fill="#000000" fill-opacity="1"/></g></svg>