<svg xmlns="http://www.w3.org/2000/svg" xmlns:xlink="http://www.w3.org/1999/xlink" enable-background="new 0 0 512 512" height="407" width="512"><rect id="backgroundrect" width="100%" height="100%" x="0" y="0" fill="none" stroke="none" class="" style=""/><linearGradient id="SVGID_1_" x1="0.844402256653272" x2="0.387371467191791" y1="1.1368324817989792" y2="0.3066892934350146"><stop offset="0" stop-color="#c6d1ff"/><stop offset=".5834" stop-color="#e6d5f4"/><stop offset=".997" stop-color="#ffd9ec"/></linearGradient><g class="currentLayer" style=""><title>Layer 1</title><g id="svg_1" class="selected" fill="#000000" fill-opacity="1"><g id="svg_2" fill="#000000" fill-opacity="1"><path d="m501.87340435791015,100.89775067138672 c-22.357,-56.888 -91.226,-91.003 -149.556,-68.427 c-66.582,25.769 -44.506,131.673 -104.983,153.088 c-32.669,11.568 -80.963,-31.644 -113.969,-38.27 c-60.821,-12.21 -115.881,30.705 -129.439,90.134 c-13.832,60.63 8.353,141.61 74.967,158.066 c79.35,19.602 120.683,-51.729 187.249,-72.211 c68.31,-21.019 144.263,28.622 200.814,-31.776 c41.78,-44.621 57.055,-134.272 34.917,-190.604 z" fill="#000000" id="svg_3" fill-opacity="1"/></g><g id="svg_4" fill="#000000" fill-opacity="1"><path d="m476.84740435791014,125.90775067138671 c0,-39.498 -32.019,-71.517 -71.517,-71.517 c-30.6,0 -56.699,19.225 -66.91,46.25 h-258.607 c-11.046,0 -20,8.954 -20,20 v221.41 c0,11.046 8.954,20 20,20 h352.375 c11.046,0 20,-8.954 20,-20 v-162.14 c15.098,-13.113 24.659,-32.435 24.659,-54.003 z" fill="#000000" opacity=".1" id="svg_5" fill-opacity="1"/><g id="svg_6" fill="#000000" fill-opacity="1"><g id="svg_7" fill="#000000" fill-opacity="1"><path d="m432.18840435791014,337.0507506713867 h-352.376 c-11.046,0 -20,-8.954 -20,-20 v-221.41 c0,-11.046 8.954,-20 20,-20 h352.375 c11.046,0 20,8.954 20,20 v221.41 c0.0010000000000000002,11.046 -8.954,20 -19.999,20 z" fill="#000000" id="svg_8" fill-opacity="1"/><g fill="#000000" id="svg_9" fill-opacity="1"><path d="m452.19040435791015,95.64575067138671 v84.5 c-12.55,10.89 -28.93,17.49 -46.86,17.49 c-39.5,0 -71.52,-32.02 -71.52,-71.51 c0,-19.7 7.97,-37.55 20.86,-50.48 h77.52 c11.04,0 20,8.95 20,20 z" id="svg_10" fill="#000000" fill-opacity="1"/><path d="m452.19040435791015,95.64575067138671 v25.21 l-177.91,136.67 c-5.22,4.01 -11.71,6.21 -18.28,6.21 s-13.06,-2.2 -18.28,-6.21 l-177.91,-136.67 v-25.21 c0,-11.05 8.96,-20 20,-20 h352.38 c11.04,0 20,8.95 20,20 z" id="svg_11" fill="#000000" fill-opacity="1"/><path d="m262.09240435791014,171.02575067138673 l190.096,146.025 c0,11.046 -8.954,20 -20,20 h-352.376 c-11.046,0 -20,-8.954 -20,-20 l190.096,-146.025 c3.593,-2.7600000000000002 8.591,-2.7600000000000002 12.184,0 z" id="svg_12" fill="#000000" fill-opacity="1"/></g><path d="m324.49040435791017,218.95575067138674 l-50.21,38.57 c-5.22,4.01 -11.71,6.21 -18.28,6.21 s-13.06,-2.2 -18.28,-6.21 l-50.21,-38.57 l62.4,-47.93 c3.59,-2.7600000000000002 8.59,-2.7600000000000002 12.18,0 z" fill="#000000" id="svg_13" fill-opacity="1"/><path d="m249.90840435791014,241.6667506713867 l-190.096,-146.026 c0,-11.046 8.954,-20 20,-20 h352.375 c11.046,0 20,8.954 20,20 l-190.095,146.026 c-3.593,2.7590000000000003 -8.591,2.7590000000000003 -12.184,0 z" fill="#000000" id="svg_14" fill-opacity="1"/></g><g id="svg_15" fill="#000000" fill-opacity="1"><path d="m370.94840435791014,310.4397506713867 h-32.134 c-2.761,0 -5,-2.239 -5,-5 v-22.154 c0,-2.761 2.239,-5 5,-5 h32.134 c2.761,0 5,2.239 5,5 v22.154 c0,2.762 -2.239,5 -5,5 z" fill="#000000" id="svg_16" fill-opacity="1"/><g id="svg_17" fill="#000000" fill-opacity="1"><g id="svg_18" fill="#000000" fill-opacity="1"><g id="svg_19" fill="#000000" fill-opacity="1"><path d="m311.87140435791014,290.0577506713867 h-27.833 c-2.762,0 -5,-2.239 -5,-5 s2.238,-5 5,-5 h27.833 c2.762,0 5,2.239 5,5 s-2.238,5 -5,5 z" fill="#000000" id="svg_20" fill-opacity="1"/></g></g><g id="svg_21" fill="#000000" fill-opacity="1"><g id="svg_22" fill="#000000" fill-opacity="1"><path d="m311.87140435791014,310.4397506713867 h-97.833 c-2.762,0 -5,-2.239 -5,-5 s2.238,-5 5,-5 h97.833 c2.762,0 5,2.239 5,5 s-2.238,5 -5,5 z" fill="#000000" id="svg_23" fill-opacity="1"/></g></g></g></g><g id="svg_24" fill="#000000" fill-opacity="1"><circle cx="405.3303909301758" cy="100.90775299072266" fill="#000000" r="71.51699829101562" id="svg_25" fill-opacity="1"/><path d="m405.33040435791014,177.42475067138673 c42.191,0 76.517,-34.325 76.517,-76.517 s-34.325,-76.517 -76.517,-76.517 s-76.517,34.325 -76.517,76.517 c0,24.544 11.629,46.41 29.653,60.421 l-99.42,76.372 c-1.791,1.3780000000000001 -4.297,1.379 -6.092,0 l-187.962,-144.386 c1.121,-7.17 7.341,-12.674 14.82,-12.674 h229.366 c2.762,0 5,-2.239 5,-5 s-2.238,-5 -5,-5 h-229.365 c-13.785,0 -25,11.215 -25,25 v221.41 c0,13.785 11.215,25 25,25 h352.375 c13.785,0 25,-11.215 25,-25 v-132.14 c0,-2.761 -2.238,-5 -5,-5 s-5,2.239 -5,5 v121.994 l-130.908,-100.559 l50.94,-39.13 c11.23,6.48 24.239,10.209 38.11,10.209 zm-209.61,28.921 l-130.907,100.559 v-201.118 zm251.27,113.018 c-1.118,7.174 -7.32,12.687 -14.803,12.687 h-352.374 c-7.483,0 -13.685,-5.513 -14.803,-12.687 l138.919,-106.713 l42.934,32.98 c2.6900000000000004,2.066 5.914,3.1 9.138,3.1 s6.447,-1.033 9.138,-3.1 l42.934,-32.981 zm-108.177,-218.456 c0,-36.677 29.839,-66.517 66.517,-66.517 s66.517,29.839 66.517,66.517 s-29.839,66.517 -66.517,66.517 s-66.517,-29.84 -66.517,-66.517 z" fill="#000000" id="svg_26" fill-opacity="1"/></g><path d="m374.11440435791013,76.51875067138673 l10.206,24.389 l-10.206,24.389 c-1.733,4.142 2.448,8.292 6.5760000000000005,6.5280000000000005 l61.619,-26.319 c4.048,-1.729 4.048,-7.467 0,-9.196 l-61.619,-26.319 c-4.128,-1.7640000000000002 -8.309,2.386 -6.5760000000000005,6.5280000000000005 z" fill="#000000" id="svg_27" fill-opacity="1"/><path d="m407.60140435791016,105.57575067138671 l-30.725,13.13 l7.442,-17.8 l-7.451,-17.8 l30.734,13.13 c3.833,1.6400000000000001 3.833,7.71 0,9.34 z" fill="#000000" id="svg_28" fill-opacity="1"/></g><path d="m330.82840435791013,28.985750671386725 c-3.714,0 -7.427,-1.413 -10.253,-4.24 c-5.654,-5.654 -5.654,-14.853 0,-20.506 c5.651,-5.652 14.852,-5.654 20.505,0 c5.654,5.654 5.654,14.853 0,20.506 c-2.826,2.827 -6.539,4.24 -10.252,4.24 zm0,-18.991 c-1.1520000000000001,0 -2.305,0.43800000000000006 -3.183,1.316 c-1.754,1.754 -1.754,4.609 0,6.364 c1.7560000000000002,1.754 4.6080000000000005,1.7550000000000001 6.364,0 c1.754,-1.754 1.754,-4.609 0,-6.364 c-0.8770000000000001,-0.8770000000000001 -2.03,-1.316 -3.181,-1.316 z" fill="#000000" id="svg_29" fill-opacity="1"/><path d="m218.53840435791017,406.6297506713867 c-3.713,0 -7.427,-1.4140000000000001 -10.253,-4.24 c-5.654,-5.654 -5.654,-14.853 0,-20.506 c5.652,-5.6530000000000005 14.854,-5.6530000000000005 20.506,0 c5.654,5.654 5.654,14.853 0,20.506 c-2.826,2.827 -6.54,4.24 -10.253,4.24 zm0,-18.991 c-1.1520000000000001,0 -2.305,0.43800000000000006 -3.183,1.316 c-1.754,1.754 -1.754,4.609 0,6.364 c1.7560000000000002,1.7550000000000001 4.609,1.7550000000000001 6.365,0 c1.754,-1.754 1.754,-4.609 0,-6.364 c-0.8770000000000001,-0.8770000000000001 -2.03,-1.316 -3.182,-1.316 z" fill="#000000" id="svg_30" fill-opacity="1"/><path d="m294.78040435791013,41.861750671386716 c-1.279,0 -2.56,-0.48800000000000004 -3.535,-1.464 l-5.965,-5.964 l-5.965,5.964 c-1.951,1.952 -5.119,1.952 -7.07,0 c-1.953,-1.953 -1.953,-5.119 0,-7.071 l9.5,-9.5 c1.951,-1.952 5.119,-1.952 7.07,0 l9.5,9.5 c1.953,1.953 1.953,5.119 0,7.071 c-0.975,0.975 -2.255,1.464 -3.535,1.464 z" fill="#000000" id="svg_31" fill-opacity="1"/><path d="m439.74640435791014,387.6367506713867 c-1.279,0 -2.56,-0.48800000000000004 -3.535,-1.464 l-5.965,-5.964 l-5.965,5.964 c-1.951,1.952 -5.119,1.952 -7.07,0 c-1.953,-1.953 -1.953,-5.119 0,-7.071 l9.5,-9.5 c1.951,-1.952 5.119,-1.952 7.07,0 l9.5,9.5 c1.953,1.953 1.953,5.119 0,7.071 c-0.975,0.975 -2.2560000000000002,1.464 -3.535,1.464 z" fill="#000000" id="svg_32" fill-opacity="1"/><path d="m178.88440435791014,392.3867506713867 c-1.279,0 -2.56,-0.48800000000000004 -3.535,-1.464 l-5.965,-5.964 l-5.965,5.964 c-1.951,1.952 -5.119,1.952 -7.07,0 c-1.953,-1.953 -1.953,-5.119 0,-7.071 l9.5,-9.5 c1.951,-1.952 5.119,-1.952 7.07,0 l9.5,9.5 c1.953,1.953 1.953,5.119 0,7.071 c-0.976,0.975 -2.2560000000000002,1.464 -3.535,1.464 z" fill="#000000" id="svg_33" fill-opacity="1"/></g></g></g></svg>