<svg id="Layer_1" enable-background="new 0 0 512 512" height="512" viewBox="0 0 512 512" width="512" xmlns="http://www.w3.org/2000/svg"><g><g><path d="m388.01 407.408c-3.611-39.058 9.716-77.887 36.169-107.522 13.319-14.921-4.348-55.401-4.775-77.073-.876-44.412-51.082-105.826-95.502-106.01-12.558-.052-24.466 7.78-35.128 12.762-22.613 10.567-48.574 10.57-71.187.002-11.29-5.276-23.976-13.133-37.353-12.725-43.482 1.325-101.212 57.805-102.149 101.297-.5 23.23-5.977 62.169 9.072 77.414 29.608 29.994 48.173 78.645 43.352 120.067-1.234 10.598 8.599 20.355 8.007 31.008l21.835 13.193h.01c23.86 25.609 57.876 41.63 95.639 41.63 37.701 0 71.666-15.969 95.521-41.503.034.002.068.003.102.005l38.901-11.641c-.281-13.663-1.256-27.296-2.514-40.904z" fill="#fc9"/><path d="m323.902 116.804c-12.558-.052-24.466 7.78-35.128 12.762-10.295 4.811-21.285 7.425-32.336 7.856v364.024c37.525-.124 71.321-16.062 95.083-41.498.034.002.068.003.102.005l38.901-11.641c-.281-13.663-1.255-27.295-2.513-40.903-3.611-39.058 9.716-77.887 36.169-107.521 13.319-14.921-4.348-55.401-4.775-77.073-.877-44.413-51.083-105.827-95.503-106.011z" fill="#ffa64d"/><g><path d="m95.542 10.549c-52.682 0-95.542 42.86-95.542 95.543 0 37.081 17.71 67.404 48.59 83.195 2.187 1.118 4.519 1.647 6.817 1.647 5.454 0 10.714-2.984 13.367-8.174 3.201-6.258 1.568-13.7-3.501-18.119l84.188-96.459c5.055 4.417 12.632 5.036 18.399 1.038 6.809-4.72 8.502-14.064 3.783-20.873-17.141-24.728-43.456-37.798-76.101-37.798z" fill="#b34f03"/><path d="m416.458 10.549c-33.908 0-59.658 12.92-76.534 38.402-4.574 6.907-2.684 16.214 4.224 20.788 5.746 3.806 13.144 3.124 18.105-1.186l83.739 96.498c-4.924 4.27-6.661 11.427-3.781 17.635 2.539 5.473 7.957 8.691 13.617 8.691 2.113 0 4.26-.449 6.303-1.396 32.159-14.92 49.87-44.713 49.87-83.89-.001-52.682-42.861-95.542-95.543-95.542z" fill="#933d02"/></g><path d="m471.361 261.469c-2.557-4.185-3.935-8.982-3.935-13.887v-1.866c0-117.021-94.864-211.884-211.884-211.884-117.02 0-211.884 94.864-211.884 211.884 0 5.031-1.449 9.946-4.132 14.202-12.701 20.151-20.051 44.014-20.051 69.594 0 72.184 58.517 130.701 130.701 130.701 3.424 0 6.818-.134 10.176-.392l.693-12.298c.592-10.654 1.566-21.281 2.8-31.88 4.822-41.422-9.98-82.749-39.588-112.742-15.048-15.244-24.183-36.338-23.683-59.568.937-43.492 36.178-79.072 79.661-80.397 13.377-.408 26.063 2.38 37.353 7.656 22.613 10.568 48.573 10.566 71.187-.002 10.662-4.983 22.57-7.745 35.128-7.693 44.42.184 81.01 36.177 81.885 80.589.427 21.673-7.531 41.48-20.849 56.401-26.453 29.635-39.781 68.464-36.169 107.522 1.258 13.608 2.233 27.24 2.513 40.903l.341 11.641c2.692.166 5.402.261 8.135.261 72.184 0 130.701-58.517 130.701-130.701-.002-24.929-6.987-48.224-19.099-68.044z" fill="#e56705"/><g><g><path d="m188.447 282.642c-8.284 0-15-6.716-15-15v-38.367c0-8.284 6.716-15 15-15s15 6.716 15 15v38.367c0 8.284-6.716 15-15 15z" fill="#132c63"/></g><g><g><path d="m323.553 282.642c-8.284 0-15-6.716-15-15v-38.367c0-8.284 6.716-15 15-15s15 6.716 15 15v38.367c0 8.284-6.716 15-15 15z" fill="#000f35"/></g></g></g><path d="m467.426 247.582v-1.866c0-116.721-94.381-211.389-210.988-211.873v144.602c11.051-.431 22.04-3.045 32.336-7.856 10.662-4.983 22.57-7.745 35.128-7.693 44.42.184 81.01 36.177 81.885 80.589.427 21.673-7.531 41.48-20.849 56.401-26.453 29.635-39.781 68.464-36.169 107.521 1.258 13.608 2.233 27.24 2.513 40.903l.341 11.641c2.692.166 5.402.261 8.135.261 72.184 0 130.701-58.517 130.701-130.701 0-24.929-6.985-48.223-19.097-68.044-2.558-4.183-3.936-8.98-3.936-13.885z" fill="#b34f03"/></g><path d="m167.314 330.267v-12.141c0-14.595-11.832-26.427-26.427-26.427s-26.427 11.832-26.427 26.427v12.635c0 25.472-2.424 50.947-8.232 75.748-5.616 23.98.924 50.229 19.62 68.925 28.755 28.755 75.377 28.755 104.132 0l26.02-26.02 3.068-147.982c-33.419-4.03-66.534 6.931-91.754 28.835z" fill="#ff8700"/><path d="m371.113 291.699c-14.595 0-26.427 11.832-26.427 26.427v12.141c-25.22-21.904-58.631-32.267-92.05-28.236-20.897 2.52-37.367 18.991-39.887 39.887-4.365 36.193 8.141 72.385 33.919 98.163l35.353 35.353c28.755 28.755 75.377 28.755 104.132 0 18.696-18.696 25.236-44.944 19.62-68.924-5.808-24.802-8.232-50.276-8.232-75.748v-12.635c-.001-14.597-11.833-26.428-26.428-26.428z" fill="#b34f03"/><path d="m397.54 330.761v-12.635c0-14.595-11.832-26.427-26.427-26.427s-26.427 11.832-26.427 26.427v12.141c-24.373-21.169-56.398-31.555-88.686-28.591v147.737l26.02 26.02c28.755 28.755 75.377 28.755 104.132 0 18.696-18.696 25.236-44.944 19.62-68.924-5.808-24.802-8.232-50.276-8.232-75.748z" fill="#933d02"/></g></svg>