<svg xmlns="http://www.w3.org/2000/svg" height="512" width="500"><rect id="backgroundrect" width="100%" height="100%" x="0" y="0" fill="none" stroke="none"/><g class="currentLayer" style=""><title>Layer 1</title><path d="m499.628906,262.183594 c0,137.96875 -111.84375,249.816406 -249.8125,249.816406 s-249.816406,-111.847656 -249.816406,-249.816406 s111.847656,-249.8125 249.816406,-249.8125 s249.8125,111.84375 249.8125,249.8125 zm0,0 " fill="#000000" id="svg_1" class="" fill-opacity="1"/><path d="m252.539062,192.765625 h-125.9375 c-57.472656,0 -104.0625,46.589844 -104.0625,104.0625 c0,41.574219 24.382813,77.453125 59.625,94.121094 c14.152344,6.695312 23.230469,20.890625 23.230469,36.546875 v22.324218 c0,8.488282 10.96875,11.871094 15.746094,4.859376 l24.652344,-36.15625 c7.5234369999999995,-11.03125 20.011719,-17.632813 33.363281,-17.632813 h73.382812 c57.472657,0 104.0625,-46.589844 104.0625,-104.0625 c-0.003906000000000001,-57.472656 -46.59375,-104.0625 -104.0625,-104.0625 zm0,0 " fill="#000000" id="svg_2" class="" fill-opacity="1"/><path d="m121.929688,390.949219 c-35.242188,-16.667969 -59.625,-52.546875 -59.625,-94.121094 c0,-57.472656 46.589843,-104.0625 104.0625,-104.0625 h-39.765626 c-57.472656,0 -104.0625,46.589844 -104.0625,104.0625 c0,41.574219 24.378907,77.453125 59.621094,94.121094 c14.15625,6.695312 23.230469,20.890625 23.230469,36.546875 v22.324218 c0,8.488282 10.96875,11.871094 15.75,4.859376 l23.363281,-34.269532 c-2.28125,-12.75 -10.597656,-23.796875 -22.574218,-29.460937 zm0,0 " fill="#000000" id="svg_3" class="" fill-opacity="1"/><path d="m138.339844,298.816406 c0,10.609375 -8.597656,19.210938 -19.207032,19.210938 c-10.609374,0 -19.210937,-8.601563 -19.210937,-19.210938 s8.601563,-19.210937 19.210937,-19.210937 c10.609376,0 19.207032,8.601562 19.207032,19.210937 zm0,0 " fill="#000000" id="svg_4" class="" fill-opacity="1"/><path d="m208.78125,298.816406 c0,10.609375 -8.601562,19.210938 -19.210938,19.210938 c-10.609374,0 -19.210937,-8.601563 -19.210937,-19.210938 s8.601563,-19.210937 19.210937,-19.210937 c10.609376,0 19.210938,8.601562 19.210938,19.210937 zm0,0 " fill="#000000" id="svg_5" class="" fill-opacity="1"/><path d="m279.21875,298.816406 c0,10.609375 -8.601562,19.210938 -19.210938,19.210938 c-10.609374,0 -19.210937,-8.601563 -19.210937,-19.210938 s8.601563,-19.210937 19.210937,-19.210937 c10.609376,0 19.210938,8.601562 19.210938,19.210937 zm0,0 " fill="#000000" id="svg_6" class="" fill-opacity="1"/><path d="m246.289062,0 h125.933594 c57.472656,0 104.0625,46.589844 104.0625,104.0625 c0,41.574219 -24.378906,77.449219 -59.621094,94.121094 c-14.15625,6.695312 -23.230468,20.890625 -23.230468,36.546875 v22.324219 c0,8.484374 -10.96875,11.871093 -15.75,4.859374 l-24.652344,-36.160156 c-7.519531,-11.03125 -20.007812,-17.628906 -33.363281,-17.628906 h-73.378907 c-57.472656,0 -104.0625,-46.589844 -104.0625,-104.0625 s46.589844,-104.0625 104.0625,-104.0625 zm0,0 " fill="#000000" id="svg_7" class="" fill-opacity="1"/><path d="m362.496094,194.871094 h-73.382813 c-57.472656,0 -104.0625,-46.59375 -104.0625,-104.0625 c0,-37.886719 20.25,-71.042969 50.515625,-89.242188 c-52.433594,5.3671880000000005 -93.339844,49.664063 -93.339844,103.515625 c0,57.472657 46.589844,104.0625 104.0625,104.0625 h73.382813 c13.351563,0 25.839844,6.601563 33.359375,17.632813 l24.652344,36.15625 c4.78125,7.011718 15.75,3.628906 15.75,-4.859375 v-22.324219 c0,-6.9453119999999995 1.7929680000000001,-13.601562 5.019531,-19.445312 l-2.597656,-3.800782 c-7.519531,-11.035156 -20.007813,-17.632812 -33.359375,-17.632812 zm0,0 " fill="#000000" id="svg_8" class="" fill-opacity="1"/><g fill="#000000" id="svg_9" class="" fill-opacity="1"><path d="m398.90625 106.050781c0 10.609375-8.601562 19.210938-19.210938 19.210938-10.609374 0-19.210937-8.601563-19.210937-19.210938s8.601563-19.210937 19.210937-19.210937c10.609376 0 19.210938 8.601562 19.210938 19.210937zm0 0" id="svg_10" fill="#000000" fill-opacity="1"/><path d="m328.464844 106.050781c0 10.609375-8.597656 19.210938-19.207032 19.210938-10.609374 0-19.210937-8.601563-19.210937-19.210938s8.601563-19.210937 19.210937-19.210937c10.609376 0 19.207032 8.601562 19.207032 19.210937zm0 0" id="svg_11" fill="#000000" fill-opacity="1"/><path d="m258.027344 106.050781c0 10.609375-8.601563 19.210938-19.210938 19.210938s-19.210937-8.601563-19.210937-19.210938 8.601562-19.210937 19.210937-19.210937 19.210938 8.601562 19.210938 19.210937zm0 0" id="svg_12" fill="#000000" fill-opacity="1"/></g></g></svg>