<svg id="Capa_1" enable-background="new 0 0 512 512" height="512" viewBox="0 0 512 512" width="512" xmlns="http://www.w3.org/2000/svg" xmlns:xlink="http://www.w3.org/1999/xlink"><linearGradient id="SVGID_1_" gradientUnits="userSpaceOnUse" x1="65.483" x2="405.135" y1="455.411" y2="50.629"><stop offset="0" stop-color="#ffd9d9" stop-opacity="0"/><stop offset=".9981" stop-color="#ffb3b3"/></linearGradient><g><g><path d="m488.514 218.085c-30.706-80.231-103.012-76.269-107.727-120.509-9.232-86.615-29.828-98.222-46.599-97.549-26.827 1.077-66.332 38.387-106.664 35.35-65.639-4.943-115.02-72.434-179.333-6.116-59.691 61.551 18.418 144.839-12.512 208.782-15.442 31.922-34.689 80.576-24.923 119.022 31.041 122.202 128.891 162.044 274.811 153.924 201.861-11.234 246.896-178.069 202.947-292.904z" fill="url(#SVGID_1_)"/></g><g><g><g><g><path d="m448.817 103.496c-8.747 0-15.838 7.091-15.838 15.838 0 2.548.616 4.948 1.686 7.08l-30.745 30.745v-64.779c0-11.05-8.95-20-20-20h-255.84c-11.05 0-20 8.95-20 20v129.477l-37.472 37.472c-2.111-1.042-4.478-1.643-6.992-1.643-8.747 0-15.838 7.091-15.838 15.838s7.091 15.838 15.838 15.838 15.838-7.091 15.838-15.838c0-2.583-.632-5.015-1.729-7.17l30.354-30.354v235.62c0 11.05 8.95 20 20 20h261.84c11.05 0 14-8.95 14-20v-300.318l37.816-37.816c2.133 1.069 4.532 1.686 7.081 1.686 8.747 0 15.838-7.091 15.838-15.838s-7.09-15.838-15.837-15.838z" fill="#00c" opacity=".1"/><path d="m403.92 68.38v379.24c0 11.05-2.95 20-14 20h-261.84c-11.05 0-20-8.95-20-20v-379.24c0-11.05 8.95-20 20-20h255.84c11.05 0 20 8.95 20 20z" fill="#6c6cff"/><path d="m403.92 171.31-38.5 38.49c1.07 2.13 1.69 4.53 1.69 7.08 0 8.75-7.09 15.84-15.84 15.84s-15.84-7.09-15.84-15.84c0-2.54.62-4.93 1.68-7.06l-35.66-35.66c-2.13 1.06-4.52 1.68-7.06 1.68-2.56 0-4.96-.62-7.1-1.7l-66.1 66.11c.76 1.86 1.19 3.9 1.19 6.04 0 8.74-7.09 15.83-15.83 15.83-8.75 0-15.84-7.09-15.84-15.83 0-2.02.39-3.94 1.07-5.71l-36.2-36.21c-2.37 1.4-5.11 2.22-8.06 2.22-2.88 0-5.58-.78-7.9-2.13l-31.54 31.54v-14.14l24.88-24.88c-.82-1.91-1.28-4.01-1.28-6.22 0-8.75 7.09-15.84 15.84-15.84s15.84 7.09 15.84 15.84c0 2.14-.43 4.18-1.2 6.05l36.03 36.04c2.43-1.51 5.29-2.4 8.36-2.4 2.95 0 5.7.82 8.07 2.23l65.61-65.62c-1.07-2.12-1.68-4.52-1.68-7.06 0-8.75 7.09-15.84 15.84-15.84s15.84 7.09 15.84 15.84c0 2.56-.62 4.96-1.7 7.1l35.64 35.64c2.14-1.08 4.55-1.7 7.1-1.7s4.95.62 7.08 1.69l45.57-45.58z" fill="#4d4dff"/></g><path d="m377.92 79.38v357.24c0 2.761-2.239 5-5 5h-233.84c-2.761 0-5-2.239-5-5v-357.24c0-2.761 2.239-5 5-5h233.84c2.761 0 5 2.239 5 5z" fill="#fff"/><path d="m311.09 74.38v33.01c0 2.76-2.24 5-5 5h-100.18c-2.76 0-5-2.24-5-5v-33.01z" fill="#d9d9ff"/><path d="m377.92 197.3-12.5 12.5c1.07 2.13 1.69 4.53 1.69 7.08 0 8.75-7.09 15.84-15.84 15.84s-15.84-7.09-15.84-15.84c0-2.54.62-4.93 1.68-7.06l-35.66-35.66c-2.13 1.06-4.52 1.68-7.06 1.68-2.56 0-4.96-.62-7.1-1.7l-66.1 66.11c.76 1.86 1.19 3.9 1.19 6.04 0 8.74-7.09 15.83-15.83 15.83-8.75 0-15.84-7.09-15.84-15.83 0-2.02.39-3.94 1.07-5.71l-36.2-36.21c-2.37 1.4-5.11 2.22-8.06 2.22-2.88 0-5.58-.78-7.9-2.13l-5.54 5.54v-27.63c2.8-4.47 7.77-7.45 13.44-7.45 8.75 0 15.84 7.09 15.84 15.84 0 2.14-.43 4.18-1.2 6.05l36.03 36.04c2.43-1.51 5.29-2.4 8.36-2.4 2.95 0 5.7.82 8.07 2.23l65.61-65.62c-1.07-2.12-1.68-4.52-1.68-7.06 0-8.75 7.09-15.84 15.84-15.84s15.84 7.09 15.84 15.84c0 2.56-.62 4.96-1.7 7.1l35.64 35.64c2.14-1.08 4.55-1.7 7.1-1.7s4.95.62 7.08 1.69l19.57-19.57z" fill="#d9d9ff"/><path d="m357.01 116.42v130.77c0 5.52-4.47 10-10 10h-182.02c-5.53 0-10-4.48-10-10v-130.77c0-5.52 4.47-10 10-10h182.02c5.53 0 10 4.48 10 10z" fill="#ffd6bb"/><path d="m311.09 106.42v.97c0 2.76-2.24 5-5 5h-100.18c-2.76 0-5-2.24-5-5v-.97z" fill="#ffc599"/><path d="m357.01 187.14v60.05c0 5.52-4.47 10-10 10h-182.02c-5.53 0-10-4.48-10-10v-74.47l51.33 51.32 88.04-88.04 56.9 56.89z" fill="#ffab66"/><path d="m357.01 202.14v29.5c-1.78.7-3.72 1.08-5.74 1.08-8.75 0-15.84-7.09-15.84-15.84 0-2.54.62-4.93 1.68-7.06l-35.66-35.66c-2.13 1.06-4.52 1.68-7.06 1.68-2.56 0-4.96-.62-7.1-1.7l-66.1 66.11c.76 1.86 1.19 3.9 1.19 6.04 0 4.23-1.66 8.07-4.36 10.9h-22.95c-2.7-2.83-4.36-6.67-4.36-10.9 0-2.02.39-3.94 1.07-5.71l-36.2-36.21c-.19.11-.39.23-.59.32v-27.9c4.98 2.67 8.37 7.92 8.37 13.97 0 2.14-.43 4.18-1.2 6.05l36.03 36.04c2.43-1.51 5.29-2.4 8.36-2.4 2.95 0 5.7.82 8.07 2.23l65.61-65.62c-1.07-2.12-1.68-4.52-1.68-7.06 0-8.75 7.09-15.84 15.84-15.84s15.84 7.09 15.84 15.84c0 2.56-.62 4.96-1.7 7.1l35.64 35.64c2.14-1.08 4.55-1.7 7.1-1.7 2.03 0 3.97.39 5.74 1.1z" fill="#ff9d33"/><path d="m306.087 88.39h-100.174c-2.761 0-5-2.239-5-5v-39.067c0-2.761 2.239-5 5-5h100.174c2.761 0 5 2.239 5 5v39.067c0 2.762-2.238 5-5 5z" fill="#b3b3ff"/><g><circle cx="224.913" cy="63.857" fill="#8383ff" r="5"/><g><circle cx="287.087" cy="63.857" fill="#8383ff" r="5"/></g></g></g><g><circle cx="147.522" cy="166.755" fill="#8383ff" r="15.838"/><circle cx="63.617" cy="249.523" fill="#ff6c6c" r="15.838"/><circle cx="206.545" cy="222.286" fill="#ff6c6c" r="15.838"/><circle cx="294.388" cy="136" fill="#8383ff" r="15.838"/><circle cx="351.272" cy="192.879" fill="#ff6c6c" r="15.838"/><g><circle cx="448.817" cy="95.334" fill="#8383ff" r="15.838"/><path d="m448.817 74.496c-11.49 0-20.838 9.348-20.838 20.838 0 3.934 1.116 7.604 3.019 10.747l-22.077 22.077v-59.782c0-13.785-11.215-25-25-25h-44.879c-2.761 0-5 2.239-5 5s2.239 5 5 5h44.879c8.271 0 15 6.729 15 15v69.782l-36.902 36.902c-3.143-1.903-6.813-3.019-10.747-3.019-3.941 0-7.616 1.12-10.762 3.028l-28.31-28.31c1.907-3.145 3.026-6.819 3.026-10.758 0-11.49-9.348-20.838-20.838-20.838s-20.837 9.348-20.837 20.838c0 3.927 1.112 7.591 3.008 10.729l-58.32 58.32c-3.337-2.271-7.362-3.602-11.693-3.602-4.447 0-8.564 1.412-11.951 3.795l-28.691-28.691c1.564-2.923 2.457-6.256 2.457-9.796 0-11.49-9.348-20.837-20.837-20.837-11.49 0-20.838 9.348-20.838 20.837 0 3.605.922 6.999 2.54 9.959l-16.145 16.145v-124.484c0-8.271 6.729-15 15-15h67.834v30.014c0 5.514 4.486 10 10 10h100.174c5.514 0 10-4.486 10-10v-39.067c0-5.514-4.486-10-10-10h-100.176c-5.194 0-9.473 3.982-9.952 9.053h-67.882c-13.785 0-25 11.215-25 25v134.483l-28.796 28.796c-3.125-1.873-6.766-2.97-10.666-2.97-11.49 0-20.838 9.348-20.838 20.837 0 11.49 9.348 20.838 20.838 20.838s20.837-9.348 20.837-20.838c0-3.968-1.135-7.667-3.068-10.828l21.693-21.693v94.399c0 2.761 2.239 5 5 5s5-2.239 5-5v-104.398l22.908-22.907c3.306 2.206 7.271 3.498 11.535 3.498 4.328 0 8.35-1.328 11.685-3.595l28.806 28.806c-1.463 2.848-2.305 6.066-2.305 9.482 0 11.49 9.348 20.838 20.838 20.838s20.837-9.348 20.837-20.838c0-3.536-.891-6.865-2.452-9.786l58.692-58.692c3.147 1.91 6.823 3.03 10.765 3.03 3.93 0 7.596-1.114 10.737-3.012l28.32 28.32c-1.898 3.14-3.01 6.804-3.01 10.733 0 11.49 9.348 20.837 20.838 20.837s20.838-9.348 20.838-20.837c0-3.935-1.116-7.605-3.019-10.748l29.83-29.831v295.323c0 15-5.854 15-9 15h-261.843c-8.271 0-15-6.729-15-15v-107.413c0-2.761-2.239-5-5-5s-5 2.239-5 5v107.413c0 13.785 11.215 25 25 25h261.842c8.667 0 19-4.337 19-25v-305.322l29.148-29.148c3.143 1.903 6.813 3.02 10.748 3.02 11.49 0 20.837-9.348 20.837-20.838s-9.347-20.839-20.837-20.839zm-242.904-30.173h100.174l.006 39.066h-100.18zm-142.296 216.038c-5.976 0-10.838-4.862-10.838-10.838s4.862-10.837 10.838-10.837 10.837 4.862 10.837 10.837c0 5.976-4.862 10.838-10.837 10.838zm73.067-93.606c0-5.976 4.862-10.837 10.838-10.837s10.837 4.862 10.837 10.837c0 5.976-4.862 10.838-10.837 10.838-5.976 0-10.838-4.862-10.838-10.838zm69.861 66.369c-5.976 0-10.838-4.862-10.838-10.838s4.862-10.838 10.838-10.838 10.837 4.862 10.837 10.838-4.861 10.838-10.837 10.838zm77.006-97.124c0-5.976 4.862-10.838 10.837-10.838 5.976 0 10.838 4.862 10.838 10.838s-4.862 10.838-10.838 10.838c-5.975 0-10.837-4.861-10.837-10.838zm67.721 67.716c-5.976 0-10.838-4.862-10.838-10.837 0-5.976 4.862-10.838 10.838-10.838s10.838 4.862 10.838 10.838c0 5.975-4.862 10.837-10.838 10.837zm97.545-97.544c-5.976 0-10.838-4.862-10.838-10.838s4.862-10.838 10.838-10.838 10.837 4.862 10.837 10.838-4.862 10.838-10.837 10.838z" fill="#00c"/></g></g><g><g><path d="m202.298 304.727h-38.583c-2.761 0-5-2.239-5-5s2.239-5 5-5h38.583c2.761 0 5 2.239 5 5s-2.238 5-5 5z" fill="#ff6c6c"/><g fill="#9494ff"><path d="m238.298 335.108h-74.583c-2.761 0-5-2.239-5-5s2.239-5 5-5h74.583c2.761 0 5 2.239 5 5s-2.238 5-5 5z"/><path d="m238.298 355.49h-74.583c-2.761 0-5-2.239-5-5s2.239-5 5-5h74.583c2.761 0 5 2.239 5 5s-2.238 5-5 5z"/><path d="m238.298 375.871h-74.583c-2.761 0-5-2.239-5-5s2.239-5 5-5h74.583c2.761 0 5 2.239 5 5s-2.238 5-5 5z"/><path d="m238.298 396.253h-74.583c-2.761 0-5-2.239-5-5s2.239-5 5-5h74.583c2.761 0 5 2.239 5 5s-2.238 5-5 5z"/></g></g><g><path d="m312.285 304.727h-38.583c-2.761 0-5-2.239-5-5s2.239-5 5-5h38.583c2.761 0 5 2.239 5 5s-2.239 5-5 5z" fill="#ff6c6c"/><g fill="#9494ff"><path d="m348.285 335.108h-74.583c-2.761 0-5-2.239-5-5s2.239-5 5-5h74.583c2.761 0 5 2.239 5 5s-2.239 5-5 5z"/><path d="m348.285 355.49h-74.583c-2.761 0-5-2.239-5-5s2.239-5 5-5h74.583c2.761 0 5 2.239 5 5s-2.239 5-5 5z"/><path d="m348.285 375.871h-74.583c-2.761 0-5-2.239-5-5s2.239-5 5-5h74.583c2.761 0 5 2.239 5 5s-2.239 5-5 5z"/><path d="m348.285 396.253h-74.583c-2.761 0-5-2.239-5-5s2.239-5 5-5h74.583c2.761 0 5 2.239 5 5s-2.239 5-5 5z"/></g></g></g></g><g><path d="m439.071 477.796c-2.761 0-5-2.239-5-5 0-3.492-2.841-6.333-6.333-6.333-2.761 0-5-2.239-5-5s2.239-5 5-5c3.492 0 6.333-2.841 6.333-6.333 0-2.761 2.239-5 5-5s5 2.239 5 5c0 3.492 2.841 6.333 6.333 6.333 2.761 0 5 2.239 5 5s-2.239 5-5 5c-3.492 0-6.333 2.841-6.333 6.333 0 2.761-2.239 5-5 5z" fill="#ffab66"/></g><g><path d="m63.617 329.623c-2.761 0-5-2.239-5-5 0-3.492-2.841-6.333-6.333-6.333-2.761 0-5-2.239-5-5s2.239-5 5-5c3.492 0 6.333-2.841 6.333-6.333 0-2.761 2.239-5 5-5s5 2.239 5 5c0 3.492 2.841 6.333 6.333 6.333 2.761 0 5 2.239 5 5s-2.239 5-5 5c-3.492 0-6.333 2.841-6.333 6.333 0 2.761-2.239 5-5 5z" fill="#ff6c6c"/></g><g><path d="m441.979 49.276c-1.28 0-2.559-.488-3.536-1.464l-5.464-5.464-5.464 5.464c-1.953 1.952-5.118 1.952-7.071 0-1.953-1.953-1.953-5.119 0-7.071l9-9c1.953-1.952 5.118-1.952 7.071 0l9 9c1.953 1.953 1.953 5.119 0 7.071-.977.976-2.256 1.464-3.536 1.464z" fill="#8383ff"/></g><g><path d="m78.384 368.71c-1.28 0-2.559-.488-3.536-1.464l-5.464-5.464-5.464 5.464c-1.953 1.952-5.118 1.952-7.071 0-1.953-1.953-1.953-5.119 0-7.071l9-9c1.953-1.952 5.118-1.952 7.071 0l9 9c1.953 1.953 1.953 5.119 0 7.071-.977.976-2.256 1.464-3.536 1.464z" fill="#8383ff"/></g><g><path d="m450.404 359.99c-1.28 0-2.559-.488-3.536-1.464l-5.464-5.464-5.464 5.464c-1.953 1.952-5.118 1.952-7.071 0-1.953-1.953-1.953-5.119 0-7.071l9-9c1.953-1.952 5.118-1.952 7.071 0l9 9c1.953 1.953 1.953 5.119 0 7.071-.977.975-2.256 1.464-3.536 1.464z" fill="#ff6c6c"/></g></g></g></svg>