<svg xmlns="http://www.w3.org/2000/svg" xmlns:xlink="http://www.w3.org/1999/xlink" enable-background="new 0 0 512 512" height="512" width="496"><rect id="backgroundrect" width="100%" height="100%" x="0" y="0" fill="none" stroke="none" class="" style=""/><linearGradient id="SVGID_1_" x1="0.11572848371541158" x2="0.8008038753170478" y1="0.8894742979819522" y2="0.09888387093582458"><stop offset="0" stop-color="#ffd9d9" stop-opacity="0"/><stop offset=".9981" stop-color="#ffb3b3"/></linearGradient><g class="currentLayer" style=""><title>Layer 1</title><g id="svg_1" class="selected" fill="#000000" fill-opacity="1"><g id="svg_2" fill="#000000" fill-opacity="1"><path d="m480.40776640319825,218.08450408935548 c-30.706,-80.231 -103.012,-76.269 -107.727,-120.509 c-9.232,-86.615 -29.828,-98.222 -46.599,-97.549 c-26.827,1.077 -66.332,38.387 -106.664,35.35 c-65.639,-4.943 -115.02,-72.434 -179.333,-6.116 c-59.691,61.551 18.418,144.839 -12.512,208.782 c-15.442,31.922 -34.689,80.576 -24.923000000000002,119.022 c31.041,122.202 128.891,162.044 274.811,153.924 c201.861,-11.234 246.896,-178.069 202.947,-292.904 z" fill="#000000" id="svg_3" fill-opacity="1"/></g><g id="svg_4" fill="#000000" fill-opacity="1"><g id="svg_5" fill="#000000" fill-opacity="1"><g id="svg_6" fill="#000000" fill-opacity="1"><g id="svg_7" fill="#000000" fill-opacity="1"><path d="m440.71076640319825,103.49550408935546 c-8.747,0 -15.838000000000001,7.091 -15.838000000000001,15.838000000000001 c0,2.548 0.6160000000000001,4.948 1.6860000000000002,7.08 l-30.745,30.745 v-64.779 c0,-11.05 -8.95,-20 -20,-20 h-255.84 c-11.05,0 -20,8.95 -20,20 v129.477 l-37.472,37.472 c-2.111,-1.042 -4.478,-1.6430000000000002 -6.992,-1.6430000000000002 c-8.747,0 -15.838000000000001,7.091 -15.838000000000001,15.838000000000001 s7.091,15.838000000000001 15.838000000000001,15.838000000000001 s15.838000000000001,-7.091 15.838000000000001,-15.838000000000001 c0,-2.583 -0.6320000000000001,-5.015 -1.729,-7.17 l30.354,-30.354 v235.62 c0,11.05 8.95,20 20,20 h261.84 c11.05,0 14,-8.95 14,-20 v-300.318 l37.816,-37.816 c2.133,1.069 4.532,1.6860000000000002 7.081,1.6860000000000002 c8.747,0 15.838000000000001,-7.091 15.838000000000001,-15.838000000000001 s-7.09,-15.838000000000001 -15.837,-15.838000000000001 z" fill="#000000" opacity=".1" id="svg_8" fill-opacity="1"/><path d="m395.81376640319826,68.37950408935546 v379.24 c0,11.05 -2.95,20 -14,20 h-261.84 c-11.05,0 -20,-8.95 -20,-20 v-379.24 c0,-11.05 8.95,-20 20,-20 h255.84 c11.05,0 20,8.95 20,20 z" fill="#000000" id="svg_9" fill-opacity="1"/><path d="m395.81376640319826,171.30950408935547 l-38.5,38.49 c1.07,2.13 1.6900000000000002,4.53 1.6900000000000002,7.08 c0,8.75 -7.09,15.84 -15.84,15.84 s-15.84,-7.09 -15.84,-15.84 c0,-2.54 0.6200000000000001,-4.93 1.6800000000000002,-7.06 l-35.66,-35.66 c-2.13,1.06 -4.52,1.6800000000000002 -7.06,1.6800000000000002 c-2.56,0 -4.96,-0.6200000000000001 -7.1,-1.7000000000000002 l-66.1,66.11 c0.7600000000000001,1.86 1.19,3.9 1.19,6.04 c0,8.74 -7.09,15.83 -15.83,15.83 c-8.75,0 -15.84,-7.09 -15.84,-15.83 c0,-2.02 0.39000000000000007,-3.94 1.07,-5.71 l-36.2,-36.21 c-2.37,1.4 -5.11,2.22 -8.06,2.22 c-2.88,0 -5.58,-0.78 -7.9,-2.13 l-31.54,31.54 v-14.14 l24.88,-24.88 c-0.8200000000000001,-1.9100000000000001 -1.28,-4.01 -1.28,-6.22 c0,-8.75 7.09,-15.84 15.84,-15.84 s15.84,7.09 15.84,15.84 c0,2.14 -0.43000000000000005,4.18 -1.2,6.05 l36.03,36.04 c2.43,-1.51 5.29,-2.4 8.36,-2.4 c2.95,0 5.7,0.8200000000000001 8.07,2.23 l65.61,-65.62 c-1.07,-2.12 -1.6800000000000002,-4.52 -1.6800000000000002,-7.06 c0,-8.75 7.09,-15.84 15.84,-15.84 s15.84,7.09 15.84,15.84 c0,2.56 -0.6200000000000001,4.96 -1.7000000000000002,7.1 l35.64,35.64 c2.14,-1.08 4.55,-1.7000000000000002 7.1,-1.7000000000000002 s4.95,0.6200000000000001 7.08,1.6900000000000002 l45.57,-45.58 z" fill="#000000" id="svg_10" fill-opacity="1"/></g><path d="m369.81376640319826,79.37950408935546 v357.24 c0,2.761 -2.239,5 -5,5 h-233.84 c-2.761,0 -5,-2.239 -5,-5 v-357.24 c0,-2.761 2.239,-5 5,-5 h233.84 c2.761,0 5,2.239 5,5 z" fill="#000000" id="svg_11" fill-opacity="1"/><path d="m302.9837664031982,74.37950408935546 v33.01 c0,2.7600000000000002 -2.24,5 -5,5 h-100.18 c-2.7600000000000002,0 -5,-2.24 -5,-5 v-33.01 z" fill="#000000" id="svg_12" fill-opacity="1"/><path d="m369.81376640319826,197.29950408935548 l-12.5,12.5 c1.07,2.13 1.6900000000000002,4.53 1.6900000000000002,7.08 c0,8.75 -7.09,15.84 -15.84,15.84 s-15.84,-7.09 -15.84,-15.84 c0,-2.54 0.6200000000000001,-4.93 1.6800000000000002,-7.06 l-35.66,-35.66 c-2.13,1.06 -4.52,1.6800000000000002 -7.06,1.6800000000000002 c-2.56,0 -4.96,-0.6200000000000001 -7.1,-1.7000000000000002 l-66.1,66.11 c0.7600000000000001,1.86 1.19,3.9 1.19,6.04 c0,8.74 -7.09,15.83 -15.83,15.83 c-8.75,0 -15.84,-7.09 -15.84,-15.83 c0,-2.02 0.39000000000000007,-3.94 1.07,-5.71 l-36.2,-36.21 c-2.37,1.4 -5.11,2.22 -8.06,2.22 c-2.88,0 -5.58,-0.78 -7.9,-2.13 l-5.54,5.54 v-27.63 c2.8,-4.47 7.77,-7.45 13.44,-7.45 c8.75,0 15.84,7.09 15.84,15.84 c0,2.14 -0.43000000000000005,4.18 -1.2,6.05 l36.03,36.04 c2.43,-1.51 5.29,-2.4 8.36,-2.4 c2.95,0 5.7,0.8200000000000001 8.07,2.23 l65.61,-65.62 c-1.07,-2.12 -1.6800000000000002,-4.52 -1.6800000000000002,-7.06 c0,-8.75 7.09,-15.84 15.84,-15.84 s15.84,7.09 15.84,15.84 c0,2.56 -0.6200000000000001,4.96 -1.7000000000000002,7.1 l35.64,35.64 c2.14,-1.08 4.55,-1.7000000000000002 7.1,-1.7000000000000002 s4.95,0.6200000000000001 7.08,1.6900000000000002 l19.57,-19.57 z" fill="#000000" id="svg_13" fill-opacity="1"/><path d="m348.90376640319823,116.41950408935547 v130.77 c0,5.52 -4.47,10 -10,10 h-182.02 c-5.53,0 -10,-4.48 -10,-10 v-130.77 c0,-5.52 4.47,-10 10,-10 h182.02 c5.53,0 10,4.48 10,10 z" fill="#000000" id="svg_14" fill-opacity="1"/><path d="m302.9837664031982,106.41950408935547 v0.97 c0,2.7600000000000002 -2.24,5 -5,5 h-100.18 c-2.7600000000000002,0 -5,-2.24 -5,-5 v-0.97 z" fill="#000000" id="svg_15" fill-opacity="1"/><path d="m348.90376640319823,187.13950408935546 v60.05 c0,5.52 -4.47,10 -10,10 h-182.02 c-5.53,0 -10,-4.48 -10,-10 v-74.47 l51.33,51.32 l88.04,-88.04 l56.9,56.89 z" fill="#000000" id="svg_16" fill-opacity="1"/><path d="m348.90376640319823,202.13950408935546 v29.5 c-1.78,0.7000000000000001 -3.72,1.08 -5.74,1.08 c-8.75,0 -15.84,-7.09 -15.84,-15.84 c0,-2.54 0.6200000000000001,-4.93 1.6800000000000002,-7.06 l-35.66,-35.66 c-2.13,1.06 -4.52,1.6800000000000002 -7.06,1.6800000000000002 c-2.56,0 -4.96,-0.6200000000000001 -7.1,-1.7000000000000002 l-66.1,66.11 c0.7600000000000001,1.86 1.19,3.9 1.19,6.04 c0,4.23 -1.6600000000000001,8.07 -4.36,10.9 h-22.95 c-2.7,-2.83 -4.36,-6.67 -4.36,-10.9 c0,-2.02 0.39000000000000007,-3.94 1.07,-5.71 l-36.2,-36.21 c-0.19000000000000003,0.11000000000000001 -0.39000000000000007,0.23 -0.5900000000000001,0.32000000000000006 v-27.9 c4.98,2.67 8.37,7.92 8.37,13.97 c0,2.14 -0.43000000000000005,4.18 -1.2,6.05 l36.03,36.04 c2.43,-1.51 5.29,-2.4 8.36,-2.4 c2.95,0 5.7,0.8200000000000001 8.07,2.23 l65.61,-65.62 c-1.07,-2.12 -1.6800000000000002,-4.52 -1.6800000000000002,-7.06 c0,-8.75 7.09,-15.84 15.84,-15.84 s15.84,7.09 15.84,15.84 c0,2.56 -0.6200000000000001,4.96 -1.7000000000000002,7.1 l35.64,35.64 c2.14,-1.08 4.55,-1.7000000000000002 7.1,-1.7000000000000002 c2.03,0 3.9699999999999998,0.39000000000000007 5.74,1.1 z" fill="#000000" id="svg_17" fill-opacity="1"/><path d="m297.98076640319823,88.38950408935547 h-100.174 c-2.761,0 -5,-2.239 -5,-5 v-39.067 c0,-2.761 2.239,-5 5,-5 h100.174 c2.761,0 5,2.239 5,5 v39.067 c0,2.762 -2.238,5 -5,5 z" fill="#000000" id="svg_18" fill-opacity="1"/><g id="svg_19" fill="#000000" fill-opacity="1"><circle cx="216.80676078796387" cy="63.856502532958984" fill="#000000" r="5" id="svg_20" fill-opacity="1"/><g id="svg_21" fill="#000000" fill-opacity="1"><circle cx="278.9807720184326" cy="63.856502532958984" fill="#000000" r="5" id="svg_22" fill-opacity="1"/></g></g></g><g id="svg_23" fill="#000000" fill-opacity="1"><circle cx="139.41576957702637" cy="166.75450897216797" fill="#000000" r="15.838000297546387" id="svg_24" fill-opacity="1"/><circle cx="55.51076698303223" cy="249.52249908447266" fill="#000000" r="15.838000297546387" id="svg_25" fill-opacity="1"/><circle cx="198.43876457214355" cy="222.2854995727539" fill="#000000" r="15.838000297546387" id="svg_26" fill-opacity="1"/><circle cx="286.2817668914795" cy="135.99950408935547" fill="#000000" r="15.838000297546387" id="svg_27" fill-opacity="1"/><circle cx="343.16576957702637" cy="192.87850189208984" fill="#000000" r="15.838000297546387" id="svg_28" fill-opacity="1"/><g id="svg_29" fill="#000000" fill-opacity="1"><circle cx="440.7107524871826" cy="95.33350372314453" fill="#000000" r="15.838000297546387" id="svg_30" fill-opacity="1"/><path d="m440.71076640319825,74.49550408935546 c-11.49,0 -20.838,9.348 -20.838,20.838 c0,3.934 1.116,7.604 3.019,10.747 l-22.077,22.077 v-59.782 c0,-13.785 -11.215,-25 -25,-25 h-44.879 c-2.761,0 -5,2.239 -5,5 s2.239,5 5,5 h44.879 c8.271,0 15,6.729 15,15 v69.782 l-36.902,36.902 c-3.143,-1.903 -6.813,-3.019 -10.747,-3.019 c-3.941,0 -7.616,1.12 -10.762,3.028 l-28.31,-28.31 c1.907,-3.145 3.026,-6.819 3.026,-10.758000000000001 c0,-11.49 -9.348,-20.838 -20.838,-20.838 s-20.837,9.348 -20.837,20.838 c0,3.927 1.112,7.591 3.008,10.729 l-58.32,58.32 c-3.337,-2.271 -7.362,-3.6020000000000003 -11.693,-3.6020000000000003 c-4.447,0 -8.564,1.412 -11.951,3.795 l-28.691,-28.691 c1.564,-2.923 2.457,-6.256 2.457,-9.796 c0,-11.49 -9.348,-20.837 -20.837,-20.837 c-11.49,0 -20.838,9.348 -20.838,20.837 c0,3.605 0.922,6.999 2.54,9.959 l-16.145,16.145 v-124.484 c0,-8.271 6.729,-15 15,-15 h67.834 v30.014 c0,5.514 4.486,10 10,10 h100.174 c5.514,0 10,-4.486 10,-10 v-39.067 c0,-5.514 -4.486,-10 -10,-10 h-100.176 c-5.194,0 -9.473,3.982 -9.952,9.053 h-67.882 c-13.785,0 -25,11.215 -25,25 v134.483 l-28.796,28.796 c-3.125,-1.8730000000000002 -6.766,-2.9699999999999998 -10.666,-2.9699999999999998 c-11.49,0 -20.838,9.348 -20.838,20.837 c0,11.49 9.348,20.838 20.838,20.838 s20.837,-9.348 20.837,-20.838 c0,-3.968 -1.135,-7.667 -3.068,-10.828 l21.693,-21.693 v94.399 c0,2.761 2.239,5 5,5 s5,-2.239 5,-5 v-104.398 l22.908,-22.907 c3.306,2.206 7.271,3.498 11.535,3.498 c4.328,0 8.35,-1.328 11.685,-3.595 l28.806,28.806 c-1.463,2.848 -2.305,6.066 -2.305,9.482 c0,11.49 9.348,20.838 20.838,20.838 s20.837,-9.348 20.837,-20.838 c0,-3.536 -0.8910000000000001,-6.865 -2.452,-9.786 l58.692,-58.692 c3.1470000000000002,1.9100000000000001 6.823,3.03 10.765,3.03 c3.93,0 7.596,-1.114 10.737,-3.012 l28.32,28.32 c-1.8980000000000001,3.14 -3.01,6.804 -3.01,10.733 c0,11.49 9.348,20.837 20.838,20.837 s20.838,-9.348 20.838,-20.837 c0,-3.935 -1.116,-7.605 -3.019,-10.748 l29.83,-29.831 v295.323 c0,15 -5.854,15 -9,15 h-261.843 c-8.271,0 -15,-6.729 -15,-15 v-107.413 c0,-2.761 -2.239,-5 -5,-5 s-5,2.239 -5,5 v107.413 c0,13.785 11.215,25 25,25 h261.842 c8.667,0 19,-4.337 19,-25 v-305.322 l29.148,-29.148 c3.143,1.903 6.813,3.02 10.748,3.02 c11.49,0 20.837,-9.348 20.837,-20.838 s-9.347,-20.839 -20.837,-20.839 zm-242.904,-30.173 h100.174 l0.006000000000000002,39.066 h-100.18 zm-142.296,216.038 c-5.976,0 -10.838000000000001,-4.862 -10.838000000000001,-10.838000000000001 s4.862,-10.837 10.838000000000001,-10.837 s10.837,4.862 10.837,10.837 c0,5.976 -4.862,10.838000000000001 -10.837,10.838000000000001 zm73.067,-93.606 c0,-5.976 4.862,-10.837 10.838000000000001,-10.837 s10.837,4.862 10.837,10.837 c0,5.976 -4.862,10.838000000000001 -10.837,10.838000000000001 c-5.976,0 -10.838000000000001,-4.862 -10.838000000000001,-10.838000000000001 zm69.861,66.369 c-5.976,0 -10.838000000000001,-4.862 -10.838000000000001,-10.838000000000001 s4.862,-10.838000000000001 10.838000000000001,-10.838000000000001 s10.837,4.862 10.837,10.838000000000001 s-4.861,10.838000000000001 -10.837,10.838000000000001 zm77.006,-97.124 c0,-5.976 4.862,-10.838000000000001 10.837,-10.838000000000001 c5.976,0 10.838000000000001,4.862 10.838000000000001,10.838000000000001 s-4.862,10.838000000000001 -10.838000000000001,10.838000000000001 c-5.975,0 -10.837,-4.861 -10.837,-10.838000000000001 zm67.721,67.716 c-5.976,0 -10.838000000000001,-4.862 -10.838000000000001,-10.837 c0,-5.976 4.862,-10.838000000000001 10.838000000000001,-10.838000000000001 s10.838000000000001,4.862 10.838000000000001,10.838000000000001 c0,5.975 -4.862,10.837 -10.838000000000001,10.837 zm97.545,-97.544 c-5.976,0 -10.838000000000001,-4.862 -10.838000000000001,-10.838000000000001 s4.862,-10.838000000000001 10.838000000000001,-10.838000000000001 s10.837,4.862 10.837,10.838000000000001 s-4.862,10.838000000000001 -10.837,10.838000000000001 z" fill="#000000" id="svg_31" fill-opacity="1"/></g></g><g id="svg_32" fill="#000000" fill-opacity="1"><g id="svg_33" fill="#000000" fill-opacity="1"><path d="m194.19176640319824,304.72650408935544 h-38.583 c-2.761,0 -5,-2.239 -5,-5 s2.239,-5 5,-5 h38.583 c2.761,0 5,2.239 5,5 s-2.238,5 -5,5 z" fill="#000000" id="svg_34" fill-opacity="1"/><g fill="#000000" id="svg_35" fill-opacity="1"><path d="m230.19176640319824,335.1075040893555 h-74.583 c-2.761,0 -5,-2.239 -5,-5 s2.239,-5 5,-5 h74.583 c2.761,0 5,2.239 5,5 s-2.238,5 -5,5 z" id="svg_36" fill="#000000" fill-opacity="1"/><path d="m230.19176640319824,355.4895040893555 h-74.583 c-2.761,0 -5,-2.239 -5,-5 s2.239,-5 5,-5 h74.583 c2.761,0 5,2.239 5,5 s-2.238,5 -5,5 z" id="svg_37" fill="#000000" fill-opacity="1"/><path d="m230.19176640319824,375.87050408935545 h-74.583 c-2.761,0 -5,-2.239 -5,-5 s2.239,-5 5,-5 h74.583 c2.761,0 5,2.239 5,5 s-2.238,5 -5,5 z" id="svg_38" fill="#000000" fill-opacity="1"/><path d="m230.19176640319824,396.25250408935545 h-74.583 c-2.761,0 -5,-2.239 -5,-5 s2.239,-5 5,-5 h74.583 c2.761,0 5,2.239 5,5 s-2.238,5 -5,5 z" id="svg_39" fill="#000000" fill-opacity="1"/></g></g><g id="svg_40" fill="#000000" fill-opacity="1"><path d="m304.17876640319827,304.72650408935544 h-38.583 c-2.761,0 -5,-2.239 -5,-5 s2.239,-5 5,-5 h38.583 c2.761,0 5,2.239 5,5 s-2.239,5 -5,5 z" fill="#000000" id="svg_41" fill-opacity="1"/><g fill="#000000" id="svg_42" fill-opacity="1"><path d="m340.17876640319827,335.1075040893555 h-74.583 c-2.761,0 -5,-2.239 -5,-5 s2.239,-5 5,-5 h74.583 c2.761,0 5,2.239 5,5 s-2.239,5 -5,5 z" id="svg_43" fill="#000000" fill-opacity="1"/><path d="m340.17876640319827,355.4895040893555 h-74.583 c-2.761,0 -5,-2.239 -5,-5 s2.239,-5 5,-5 h74.583 c2.761,0 5,2.239 5,5 s-2.239,5 -5,5 z" id="svg_44" fill="#000000" fill-opacity="1"/><path d="m340.17876640319827,375.87050408935545 h-74.583 c-2.761,0 -5,-2.239 -5,-5 s2.239,-5 5,-5 h74.583 c2.761,0 5,2.239 5,5 s-2.239,5 -5,5 z" id="svg_45" fill="#000000" fill-opacity="1"/><path d="m340.17876640319827,396.25250408935545 h-74.583 c-2.761,0 -5,-2.239 -5,-5 s2.239,-5 5,-5 h74.583 c2.761,0 5,2.239 5,5 s-2.239,5 -5,5 z" id="svg_46" fill="#000000" fill-opacity="1"/></g></g></g></g><g id="svg_47" fill="#000000" fill-opacity="1"><path d="m430.96476640319827,477.79550408935546 c-2.761,0 -5,-2.239 -5,-5 c0,-3.492 -2.841,-6.333 -6.333,-6.333 c-2.761,0 -5,-2.239 -5,-5 s2.239,-5 5,-5 c3.492,0 6.333,-2.841 6.333,-6.333 c0,-2.761 2.239,-5 5,-5 s5,2.239 5,5 c0,3.492 2.841,6.333 6.333,6.333 c2.761,0 5,2.239 5,5 s-2.239,5 -5,5 c-3.492,0 -6.333,2.841 -6.333,6.333 c0,2.761 -2.239,5 -5,5 z" fill="#000000" id="svg_48" fill-opacity="1"/></g><g id="svg_49" fill="#000000" fill-opacity="1"><path d="m55.51076640319824,329.62250408935546 c-2.761,0 -5,-2.239 -5,-5 c0,-3.492 -2.841,-6.333 -6.333,-6.333 c-2.761,0 -5,-2.239 -5,-5 s2.239,-5 5,-5 c3.492,0 6.333,-2.841 6.333,-6.333 c0,-2.761 2.239,-5 5,-5 s5,2.239 5,5 c0,3.492 2.841,6.333 6.333,6.333 c2.761,0 5,2.239 5,5 s-2.239,5 -5,5 c-3.492,0 -6.333,2.841 -6.333,6.333 c0,2.761 -2.239,5 -5,5 z" fill="#000000" id="svg_50" fill-opacity="1"/></g><g id="svg_51" fill="#000000" fill-opacity="1"><path d="m433.8727664031982,49.27550408935547 c-1.28,0 -2.559,-0.48800000000000004 -3.536,-1.464 l-5.464,-5.464 l-5.464,5.464 c-1.953,1.952 -5.118,1.952 -7.071,0 c-1.953,-1.953 -1.953,-5.119 0,-7.071 l9,-9 c1.953,-1.952 5.118,-1.952 7.071,0 l9,9 c1.953,1.953 1.953,5.119 0,7.071 c-0.977,0.976 -2.2560000000000002,1.464 -3.536,1.464 z" fill="#000000" id="svg_52" fill-opacity="1"/></g><g id="svg_53" fill="#000000" fill-opacity="1"><path d="m70.27776640319824,368.70950408935545 c-1.28,0 -2.559,-0.48800000000000004 -3.536,-1.464 l-5.464,-5.464 l-5.464,5.464 c-1.953,1.952 -5.118,1.952 -7.071,0 c-1.953,-1.953 -1.953,-5.119 0,-7.071 l9,-9 c1.953,-1.952 5.118,-1.952 7.071,0 l9,9 c1.953,1.953 1.953,5.119 0,7.071 c-0.977,0.976 -2.2560000000000002,1.464 -3.536,1.464 z" fill="#000000" id="svg_54" fill-opacity="1"/></g><g id="svg_55" fill="#000000" fill-opacity="1"><path d="m442.29776640319824,359.9895040893555 c-1.28,0 -2.559,-0.48800000000000004 -3.536,-1.464 l-5.464,-5.464 l-5.464,5.464 c-1.953,1.952 -5.118,1.952 -7.071,0 c-1.953,-1.953 -1.953,-5.119 0,-7.071 l9,-9 c1.953,-1.952 5.118,-1.952 7.071,0 l9,9 c1.953,1.953 1.953,5.119 0,7.071 c-0.977,0.975 -2.2560000000000002,1.464 -3.536,1.464 z" fill="#000000" id="svg_56" fill-opacity="1"/></g></g></g></g></svg>