<svg xmlns:dc="http://purl.org/dc/elements/1.1/" xmlns:cc="http://creativecommons.org/ns#" xmlns:rdf="http://www.w3.org/1999/02/22-rdf-syntax-ns#" xmlns:svg="http://www.w3.org/2000/svg" xmlns="http://www.w3.org/2000/svg" xmlns:sodipodi="http://sodipodi.sourceforge.net/DTD/sodipodi-0.dtd" xmlns:inkscape="http://www.inkscape.org/namespaces/inkscape" enable-background="new 0 0 432 504" xml:space="preserve" version="1.1" inkscape:version="0.91 r13725" sodipodi:docname="anon hacker behind pc.svg" width="383.7096862792969" height="448.32257080078125" style=""><rect id="backgroundrect" width="100%" height="100%" x="0" y="0" fill="none" stroke="none"/><defs id="defs9"><linearGradient id="linearGradient4098-04-9-8"><stop id="stop4100-8-2-2" style="stop-color:rgb(255, 177, 66)" offset="0"/><stop id="stop4104-4-7-3" style="stop-color:rgb(200, 118, 0)" offset="1"/></linearGradient></defs><sodipodi:namedview pagecolor="#ffffff" bordercolor="#666666" borderopacity="1" objecttolerance="10" gridtolerance="10" guidetolerance="10" inkscape:pageopacity="0" inkscape:pageshadow="2" inkscape:window-width="1319" inkscape:window-height="926" id="namedview7" showgrid="false" inkscape:zoom="0.93650795" inkscape:cx="359.91674" inkscape:cy="336.56243" inkscape:window-x="1369" inkscape:window-y="0" inkscape:window-maximized="0" inkscape:current-layer="Layer_1"/><metadata id="metadata5"><rdf:RDF><cc:Work><dc:format>image/svg+xml</dc:format><dc:type rdf:resource="http://purl.org/dc/dcmitype/StillImage"/><cc:license rdf:resource="http://creativecommons.org/licenses/publicdomain/"/><dc:publisher><cc:Agent rdf:about="http://openclipart.org/"><dc:title>Openclipart</dc:title></cc:Agent></dc:publisher><dc:title/><dc:date>2011-05-08T09:05:16</dc:date><dc:description>A single color robe illustration.</dc:description><dc:source>https://openclipart.org/detail/137203/robe-by-jgm104</dc:source><dc:creator><cc:Agent><dc:title>jgm104</dc:title></cc:Agent></dc:creator><dc:subject><rdf:Bag><rdf:li>cape</rdf:li><rdf:li>coat</rdf:li><rdf:li>cover</rdf:li><rdf:li>robe</rdf:li><rdf:li>shawl</rdf:li></rdf:Bag></dc:subject></cc:Work><cc:License rdf:about="http://creativecommons.org/licenses/publicdomain/"><cc:permits rdf:resource="http://creativecommons.org/ns#Reproduction"/><cc:permits rdf:resource="http://creativecommons.org/ns#Distribution"/><cc:permits rdf:resource="http://creativecommons.org/ns#DerivativeWorks"/></cc:License></rdf:RDF></metadata><flowRoot id="flowRoot5478" xml:space="preserve" style="font-size:40px;line-height:125%;font-family:Sans;letter-spacing:0px;word-spacing:0px;fill:#000000" transform="matrix(0.45240893,0.00973234,-0.00809988,0.54358773,585.35862,62.182657) "><flowRegion id="flowRegion5480"><rect id="rect5482" y="-87.49400329589844" width="395.9800109863281" x="-763.6799926757812" height="56.569000244140625"/></flowRegion><flowPara id="flowPara5484"/></flowRoot><flowRoot xml:space="preserve" id="flowRoot4677" style="font-style:normal;font-weight:normal;font-size:40px;line-height:125%;font-family:sans-serif;letter-spacing:0px;word-spacing:0px;fill:#000000;fill-opacity:1;stroke:none;stroke-width:1px;stroke-linecap:butt;stroke-linejoin:miter;stroke-opacity:1" transform="matrix(1.4237746,0,0,0.82948927,-52.728623,645.83471) "><flowRegion id="flowRegion4679"><rect id="rect4681" width="98.156005859375" height="92.11563873291016" x="152.5193328857422" y="-355.24261474609375"/></flowRegion><flowPara id="flowPara4683" style="fill:#ffffff">&lt;/&gt;</flowPara></flowRoot><g class="currentLayer" style=""><title>Layer 1</title><path style="" d="m238.78910786499023,221.57725067504882 c-5.02305,-1.03347 -13.741060000000001,-1.91973 -19.37338,-1.96944 l-10.24057,-0.09040000000000002 l7.3539200000000005,-4.34649 c22.90271,-13.53652 37.99271,-45.49377 42.32367,-89.63209 c0.44693000000000005,-4.55491 1.18416,-8.27585 1.6382700000000001,-8.26876 c1.40847,0.021900000000000006 15.2345,13.1984 24.41296,23.26597 l8.74868,9.59615 l-22.10447,36.49296 c-12.15745,20.07114 -22.44687,36.56907 -22.86537,36.66207 c-0.41850000000000004,0.09300000000000003 -4.8706700000000005,-0.6764900000000001 -9.89371,-1.7099700000000002 z" id="path3697" inkscape:connector-curvature="0" class="" fill="#000000" fill-opacity="1"/><path style="opacity: 1; fill-rule: nonzero; stroke: rgb(0, 0, 0); stroke-width: 0.714979; stroke-opacity: 1;" d="m120.31959786499024,322.0305406750488 c-4.88611,-0.20663 -10.38265,-0.6217100000000001 -12.21496,-0.9224 c-1.83222,-0.30069 -20.530920000000002,-2.60394 -41.5527,-5.11848 c-21.021889,-2.51454 -38.369676,-4.63332 -38.550909,-4.70833 c-0.525578,-0.21802000000000002 5.010083,-38.74761 6.296434,-43.82423 c4.985478,-19.67301 13.297522,-29.31348 32.681195,-37.90429 c16.68897,-7.39638 32.80754,-10.7295 60.55846,-12.52264 c12.11559,-0.78285 86.71792,-1.12212 104.69611,-0.47613 c28.58129,1.02697 46.84132,2.82916 64.02848,6.31935 c8.67482,1.76159 12.14915,2.81487 20.09955,6.09333 c20.70957,8.53976 30.2645,20.37842 34.85661,43.18754 c2.5626100000000003,12.729 5.4708,38.82556 4.37577,39.26507 c-2.01746,0.8097300000000001 -38.99492,5.10153 -51.3699,5.96222 c-44.93961,3.12558 -154.46436,5.89441 -183.90414,4.64899 z" id="path4293-4" inkscape:connector-curvature="0" class="" fill="#000000" fill-opacity="1"/><path style="" d="m120.18060786499024,184.12203067504882 c-12.94759,-20.42992 -23.54108,-37.5887 -23.54108,-38.13063 c0,-3.15224 35.4604,-33.00669 37.05747,-31.19903 c0.41855000000000003,0.47373 1.28732,6.56918 1.9306200000000002,13.54543 c3.78741,41.07249 21.87455,75.97691 45.71358,88.21769 l5.64517,2.89866 l-15.26988,0.04420000000000001 c-8.39845,0.024300000000000006 -18.133,0.43225 -21.63235,0.9066000000000001 l-6.36245,0.86245 l-23.54108,-37.14532 z" id="path3699" inkscape:connector-curvature="0" class="" fill="#000000" fill-opacity="1"/><path style="" id="path3551-8" sodipodi:type="arc" sodipodi:cx="233.24495" sodipodi:cy="133.99316" sodipodi:rx="63.180664" sodipodi:ry="109.21783" sodipodi:start="4.4327349" sodipodi:end="4.0115392" sodipodi:open="true" d="M179.67658786499024,9.66350367504883 A63.180664,109.21783 0 0 1 255.67276786499025,73.62532867504883 A63.180664,109.21783 0 0 1 226.86441786499023,210.99185067504882 A63.180664,109.21783 0 0 1 144.81245786499022,175.90569067504882 A63.180664,109.21783 0 0 1 156.37276786499024,31.163743675048828 " class="" fill="#000000" fill-opacity="1"/><path style="" d="m279.33473786499025,425.19806067504885 c-1.91429,-2.92795 -5.85536,-9.84407 -8.75793,-15.36917 c-2.90257,-5.5250900000000005 -7.49283,-13.47499 -10.20058,-17.66645 l-4.92318,-7.62082 l3.55662,-3.37175 c6.80152,-6.448 20.22283,-17.23183 29.22818,-23.48441 c4.9833,-3.46001 9.12761,-6.32465 9.20957,-6.3659 c0.08200000000000002,-0.04120000000000001 -1.3420200000000002,-6.92413 -3.1644,-15.29534 c-6.98375,-32.08021 -8.668520000000001,-46.1619 -8.68004,-72.54974 l-0.008000000000000002,-17.83965 l27.23418,0 l27.23419,0 l6.27803,11.95084 c9.57885,18.23423 17.96703,38.48887 27.47206,66.33579 c3.46849,10.16163 3.63444,10.99891 3.0895,15.58804 c-1.27054,10.699910000000001 -8.97707,23.29884 -24.14893,39.47962 c-16.92687,18.05248 -47.57802,41.23277 -65.34004,49.41418 l-4.59891,2.1183 l-3.48053,-5.32354 z" id="path3736" inkscape:connector-curvature="0" class="" fill="#000000" fill-opacity="1"/><path style="" d="m104.65073786499025,425.28603067504883 c1.91429,-2.92795 5.85536,-9.84407 8.75793,-15.36917 c2.90257,-5.5250900000000005 7.49283,-13.47499 10.20058,-17.66645 l4.92318,-7.62082 l-3.55662,-3.37175 c-6.80152,-6.448 -20.22283,-17.23183 -29.22818,-23.48441 c-4.9833,-3.46001 -9.12761,-6.32465 -9.20957,-6.3659 c-0.08200000000000002,-0.04120000000000001 1.3420200000000002,-6.92413 3.1644,-15.29534 c6.98375,-32.08021 8.668520000000001,-46.1619 8.68004,-72.54974 l0.008000000000000002,-17.83965 l-27.23418,0 l-27.234187,0 l-6.27803,11.95084 c-9.57885,18.23423 -17.96703,38.48887 -27.47206,66.33579 c-3.46849,10.16163 -3.63444,10.99891 -3.0895,15.58804 c1.27054,10.699910000000001 8.97707,23.29884 24.14893,39.47962 c16.92687,18.05248 47.578017,41.23277 65.340037,49.41418 l4.59891,2.1183 l3.48053,-5.32354 z" id="path3736-1" inkscape:connector-curvature="0" class="" fill="#000000" fill-opacity="1"/><g id="g3689" style="" class="" fill="#000000" fill-opacity="1"><path id="rect2830-0-7-4-7-4" d="m72.46311063027582,418.69521706717205 l0,5.2661961044056 c0,4.9458890506272 4.22781841904,8.9297707311488 9.495110756076,8.9297707311488 l16.781385535268,0.0001314520168 l0,-2.5182193673104 l182.67118521315598,0 l0,2.5182193673104 l15.863317568384002,0 c5.26707106252,0 9.5092723251,-3.9838124952496 9.5092723251,-8.9299021831656 l0,-5.2662376155688 l-234.32772097335598,0 z" sodipodi:nodetypes="ccccccccccc" style="stroke: rgb(0, 0, 0); stroke-width: 6.19933;" inkscape:connector-curvature="0" stroke-width="0" fill="#000000" fill-opacity="1"/><path id="rect2830-2-2-8-5" d="m69.20356736580027,270.7348540855616 l237.204658472216,0 c5.8027471624872,0 10.4742209861072,3.943076207096 10.4742209861072,8.840909167792 l-7.7578697793256,133.754364281616 c0,4.897902145968 -3.847152493348,8.84118590888 -9.649671005502,8.84118590888 l-220.69498329096157,0 c-5.8027471624872,0 -12.455800659242001,-3.9431453923679998 -12.455800659242001,-8.84118590888 l-7.5926809773144,-133.754364281616 c0,-4.897832960695999 4.6714738236199995,-8.840909167792 10.4742209861072,-8.840909167792 z" sodipodi:nodetypes="ccccccccc" style="stroke: rgb(0, 0, 0); stroke-width: 6.19933;" inkscape:connector-curvature="0" stroke-width="0" fill="#000000" fill-opacity="1"/></g><g id="g3400" class="" fill="#000000" fill-opacity="1"><g style="stroke-width: 4;" id="g3831" stroke-width="0" fill="#000000" fill-opacity="1"><path inkscape:connector-curvature="0" style="stroke: rgb(0, 0, 0); stroke-width: 4;" sodipodi:nodetypes="cccccscsc" d="m121.28297082802209,102.89853689643115 l0,32.433167001 c0,39.9412629758 34.46303610381,92.994213348 72.6981787062,111.229091274 c40.17519328622,-17.516312185 72.6981787062,-70.586361572 72.6981787062,-111.229091274 l0,-32.433167001 c-11.883843552640002,5.8132579126 -23.77264605335,8.2160766114 -35.656489605990004,8.0353155978 c-12.348331688530001,-0.18780010802600003 -24.69225542322,-3.1656383185800006 -37.04058711175,-8.0353155978 c-12.348331688530001,4.8695551434 -24.69225542322,7.8476335544000015 -37.04058711175,8.0353155978 c-11.883843552640002,0.18073658643600007 -23.77264605335,-2.22217982102 -35.656489605990004,-8.0353155978 z" id="path2793" stroke-width="0" fill="#000000" fill-opacity="1"/></g><path inkscape:connector-curvature="0" id="path3366" d="M189.91183704392427,243.15412716347487 C164.85572707098146,229.52526785086684 139.36713070702706,197.58538829223505 128.53052331775194,166.23689973778943 c-4.987054285672301,-14.4266936435044 -5.7015285037133,-19.778662477218 -5.7015285037133,-42.70864447659861 c0,-10.103290803682 0.08950350272120008,-18.36961409143 0.1988978971454001,-18.36961409143 c0.10939439442420004,0 2.5583984485052005,0.869069640792 5.4422361290176005,1.9312645113620002 c18.0592546438648,6.651728459288 37.1742472920634,6.415334579678 58.968151846752804,-0.72925262525 l6.656836789745,-2.1822780486260003 l4.5218057777449,1.56148610273 c6.4089169359565,2.213145841534 11.957125785230001,3.693607041276 17.4342453589489,4.652088244696 c15.833563041260502,2.770826138042 29.278626704836302,1.7565492208520004 43.031051479733,-3.246203176646 l6.2236947155997004,-2.2640031969820003 l-0.24996955232410006,20.896359935590002 c-0.2668244658198002,22.3055206863324 -0.6118184830497001,25.4679313623092 -4.0105382317279,36.763670817397205 c-10.3871448660372,34.521902039326804 -35.934289876871404,67.22043353644081 -63.202729842341,80.8950001440868 c-1.8666141728556,0.9360652092560001 -3.5937331365021,1.7019341533420005 -3.8380494880264,1.7019341533420005 c-0.24431635152430012,0 -2.0860751746646002,-0.8930611870340002 -4.092790650382301,-1.9845808679860002 z" style="" stroke-width="0" fill="#000000" fill-opacity="1"/><path d="m206.77118604317576,140.48943408864923 a22.357291195916332,9.129135096242601 0 0 1 26.295428234828,-7.161339353999201 a22.357291195916332,9.129135096242601 0 0 1 17.555530208856503,10.7324539386808 a22.357291195916332,9.129135096242601 0 0 1 -26.2722148479181,7.175528279328 a22.357291195916332,9.129135096242601 0 0 1 -17.5902648851157,-10.7229676495414 " sodipodi:open="true" sodipodi:end="3.3364675" sodipodi:start="3.3391116" sodipodi:ry="22.423729" sodipodi:rx="40.576271" sodipodi:cy="-74.745766" sodipodi:cx="634.27118" sodipodi:type="arc" id="path3368" style="" stroke-width="0" fill="#000000" fill-opacity="1"/><path d="m138.52261083082146,142.22832043433223 a22.357291195916332,9.129135096242601 0 0 1 26.295428234828,-7.1613397611186 a22.357291195916332,9.129135096242601 0 0 1 17.555530208856503,10.7324539386808 a22.357291195916332,9.129135096242601 0 0 1 -26.2722203578604,7.175528279328 a22.357291195916332,9.129135096242601 0 0 1 -17.5902593751734,-10.722967242422 " sodipodi:open="true" sodipodi:end="3.3364675" sodipodi:start="3.3391116" sodipodi:ry="22.423729" sodipodi:rx="40.576271" sodipodi:cy="-70.474571" sodipodi:cx="510.40677" sodipodi:type="arc" id="path3368-1" style="" stroke-width="0" fill="#000000" fill-opacity="1"/><path d="m217.40655380982793,197.06360493458322 a22.357291195916332,3.47776564820038 0 0 1 -9.4588738668716,3.7757433802260003 a22.357291195916332,3.47776564820038 0 0 1 -26.024823948590402,-0.18083918052480008 a22.357291195916332,3.47776564820038 0 0 1 -7.2569356255226,-3.8918973948818003 l21.080256827993402,1.1585510759232 z" sodipodi:end="3.4812148" sodipodi:start="6.0328455" sodipodi:ry="8.5423727" sodipodi:rx="40.576271" sodipodi:cy="61.932205" sodipodi:cx="574.47455" sodipodi:type="arc" id="path3368-1-5" style="" stroke-width="0" fill="#000000" fill-opacity="1"/></g><path style="" d="m279.1734078649902,142.00520067504883 c-18.15204,-19.89723 -34.09561,-30.27145 -56.88037,-37.0111 c-14.33235,-4.23946 -42.26512,-4.5931 -57.40904,-0.7268100000000001 c-22.79024,5.81842 -42.79416,17.73511 -60.70431,36.16266 c-9.81858,10.10221 -10.24352,9.4729 -6.98483,-10.34412 c4.3413200000000005,-26.40086 15.85721,-59.979326 26.08297,-76.053721 c8.12332,-12.769474 33.43306,-36.812766 47.05682,-44.702201 c5.7150300000000005,-3.309537 9.00215,-4.143476 18.21134,-4.620216 c41.717,-2.159592 76.72732,32.237442 94.57105,92.914438 c7.1992,24.48063 12.7171,58.06838 9.53966,58.06838 c-0.54808,0 -6.61555,-6.1593 -13.48329,-13.68731 z" id="path3693" inkscape:connector-curvature="0" class="" fill="#000000" fill-opacity="1"/></g></svg>