<svg xmlns="http://www.w3.org/2000/svg" height="420" width="512"><rect id="backgroundrect" width="100%" height="100%" x="0" y="0" fill="none" stroke="none" class="" style=""/><g class="currentLayer" style=""><title>Layer 1</title><path d="m474.394531,121.53064727783203 c1.542969,-65.394531 -50.390625,-120.8125 -115.800781,-121.523438 c-43.792969,-0.47656200000000004 -82.101562,23.097657 -102.597656,58.316407 c-20.5,-35.21875 -58.804688,-58.7968752 -102.597656,-58.316407 c-65.410157,0.7109380000000001 -117.34375,56.128907 -115.800782,121.523438 c3.453125,146.128906 178.226563,273.230469 212.574219,296.820312 c3.5117190000000003,2.414063 8.136719,2.414063 11.648437,0 c34.347657,-23.589843000000002 209.121094,-150.691406 212.574219,-296.820312 zm0,0 " fill="#000000" id="svg_1" class="" fill-opacity="1"/><path d="m474.453125,117.15955327783203 c0,147.941406 -177.898437,277.332032 -212.628906,301.183594 c-3.515625,2.414062 -8.144531,2.425781 -11.664063,0.011719000000000004 c-8.554687,-5.875 -25.824218,-18.171875 -46.984375,-35.582031 c34.878907,-23.96875 212.535157,-153.285157 212.535157,-301.136719 c0,-30.03125 -11.285157,-57.429688 -29.863282,-78.136719 c50.90625,12.746094 88.605469,58.78125 88.605469,113.660156 zm0,0 " fill="#000000" id="svg_2" class="" fill-opacity="1"/><path d="m254.546875,332.23313660587695 c-6.351563,0 -11.808594,-4.519532 -12.988281,-10.769532 l-32.273438,-171.433593 l-34.339844,81.609375 c-2,4.753906 -6.578124,7.90625 -11.730468,8.082031 c-5.160156,0.17578100000000005 -9.9375,-2.664063 -12.253906,-7.269531 l-9.179688,-18.246094 h-128.566406 c-7.296875,0 -13.214844,-5.917969 -13.214844,-13.214844 c0,-7.300781 5.917969,-13.214844 13.214844,-13.214844 h136.710937 c4.96875,0 9.515625,2.785157 11.769531,7.207032 l40.269532,-95.691406 c2.261718,-5.378907 7.785156,-8.636719 13.578125,-8.015626 c5.800781,0.6171880000000002 10.507812,4.9609380000000005 11.589843,10.695313 l26.609376,141.363281 l11.011718,-66.144531 c1.058594,-6.375 6.570313,-11.046875 13.03125,-11.046875 h43.128906 c4.46875,0 8.636719,2.257812 11.074219,6 l20.25,31.082031 l8.734375,-10.625 c2.5117190000000003,-3.054687 6.257813,-4.824219 10.210938,-4.824219 h127.601562 c7.296875,0 13.210938,5.917969 13.210938,13.214844 s-5.914063,13.214844 -13.210938,13.214844 h-121.355468 l-16.210938,19.722656 c-2.671875,3.25 -6.738281,5.035156 -10.9375,4.8046880000000005 c-4.207031,-0.23046900000000006 -8.046875,-2.453125 -10.34375,-5.980469 l-26.179688,-40.179687 h-24.773437 l-21.402344,128.613281 c-1.050781,6.320312 -6.488281,10.976562 -12.894531,11.042969 c-0.04687500000000003,0 -0.09765600000000006,0.003906000000000002 -0.140625,0.003906000000000002 zm0,0 " fill="#000000" id="svg_3" class="" fill-opacity="1"/></g></svg>