<svg id="Layer_1" enable-background="new 0 0 128 128" height="512" viewBox="0 0 128 128" width="512" xmlns="http://www.w3.org/2000/svg"><path d="m121.822 63.764c.555-.783 1.097-1.616 1.627-2.513.179-.304.186-.679.017-.988s-.488-.507-.84-.521c-.644-.025-14.93-.51-20.113 4.355-2.021-2.523-7.954-8.618-17.529-7.731-.274.025-.526.162-.696.379-.169.217-.243.494-.201.767.736 4.836 6.658 11.376 11.573 13.485.331.257.663.501.995.728-2.545 3.777-6.849 4.753-10.015 4.364-1.913-.235-4.009-1.047-5.596-2.597-.13-.395-.246-.801-.33-1.229-.01-.052-.02-.103-.03-.155-1.07-5.41-3.128-10.194-5.941-14.261-3.045-5.686-7.456-10.408-12.963-13.762-9.493-5.781-21.263-7.073-33.142-3.637-4.873 1.409-9.15 3.912-12.713 7.438-.393.389-2.772 3.135-3.102 3.578-1.029 1.382-1.973 2.882-2.806 4.457-.258.488-1.544 3.302-1.746 3.816-2.82 7.193-3.585 15.384-2.155 23.067 2.081 11.181 8.713 19.749 19.019 25.126 8.32 5.407 19.107 8.021 30.28 8.417 16.949.6 47.246-4.776 52.395-41.767 7.7.024 13.144-2.994 17.778-10.838 0 0-1.533-.058-3.766.022z" fill="#e6e7e8"/><path d="m41.065 32.521h.004c.349 0 .673-.182.854-.48.658-1.081 6.353-10.692 3.805-15.194-.848-1.498-2.425-2.219-4.665-2.237-2.18.013-3.708.771-4.542 2.25-2.538 4.505 3.044 14.095 3.689 15.174.18.301.505.486.855.487z" fill="#e6e7e8"/><path d="m37.595 35.082c.024.001.048.002.072.002.334 0 .648-.167.834-.449.199-.302.22-.688.055-1.009-.617-1.198-3.845-7.185-6.826-7.361-.642-.041-1.554.149-2.299 1.253-1.167 1.73-.943 3.058-.55 3.867 1.502 3.089 7.981 3.644 8.714 3.697z" fill="#e6e7e8"/><path d="m43.327 34.636c.186.281.5.449.834.449.024 0 .048-.001.072-.002.734-.053 7.212-.608 8.714-3.696.393-.809.617-2.137-.55-3.867-.745-1.104-1.664-1.294-2.299-1.253-2.981.176-6.209 6.163-6.826 7.361-.165.32-.144.706.055 1.008z" fill="#e6e7e8"/><path d="m99.444 62.688s-6.053-9.364-17.369-8.325c.797 5.243 8.723 13.156 13.318 13.327-4.383 9.388-18.786 8.293-20.681-1.426-.01-.052-.02-.103-.03-.155-4.455-22.516-25.856-34.324-48.767-27.699-18.093 5.231-24.79 25.236-21.816 41.211 3.928 21.101 23.922 29.968 45.316 30.726 16.949.6 47.246-4.776 52.395-41.767 7.7.024 13.144-2.994 17.778-10.838 0 0-16.248-.622-20.144 4.946z" fill="#fff"/><path d="m102.444 65.688s-6.053-9.364-17.369-8.325c.797 5.243 8.723 13.156 13.318 13.327-4.383 9.388-18.786 8.293-20.681-1.426-.01-.052-.02-.103-.03-.155-4.455-22.516-25.856-34.324-48.767-27.699-18.093 5.231-24.79 25.236-21.816 41.211 3.928 21.101 23.922 29.968 45.316 30.726 16.949.6 47.246-4.776 52.395-41.767 7.7.024 13.144-2.994 17.778-10.838 0 0-16.248-.622-20.144 4.946z" fill="#6dc9f7"/><ellipse cx="32.337" cy="86.957" fill="#fa759e" rx="3.926" ry="1.88"/><path d="m53.708 101.838c-14.217.928-22.396-2.718-30.411-7.264-2.806 1.888-6.166 2.877-9.456 3.198 8.7 8.255 21.845 12.089 35.574 12.575 14.586.517 39.043-3.414 48.865-28.09-5.56 7.49-11.279 17.407-44.572 19.581z" fill="#d4fbff"/><path d="m51.166 93.708s5.133 16.289 21.439 15.247c0 0-7.383-10.051-6.735-15.362z" fill="#6dc9f7"/><path d="m38.069 28.522s-9.476-15.854 0-15.911c9.718-.06 0 15.911 0 15.911z" fill="#0089ef"/><path d="m34.667 31.084s-4.959-9.634-7.407-6.006c-3.518 5.216 7.407 6.006 7.407 6.006z" fill="#0089ef"/><path d="m41.161 31.084s4.959-9.634 7.407-6.006c3.519 5.216-7.407 6.006-7.407 6.006z" fill="#0089ef"/><g fill="#3a2c60"><path d="m7.433 54.274c.149.079.309.116.466.116.359 0 .706-.193.885-.533.784-1.485 1.673-2.897 2.642-4.198.33-.443.238-1.069-.205-1.399-.443-.329-1.069-.237-1.399.205-1.029 1.383-1.974 2.882-2.806 4.458-.258.487-.072 1.093.417 1.351z"/><path d="m120.465 57.263c-.169-.309-.488-.507-.84-.521-.642-.025-14.929-.509-20.113 4.355-2.021-2.522-7.953-8.612-17.529-7.731-.274.025-.526.162-.696.379-.169.217-.243.494-.201.767.796 5.234 7.671 12.478 12.766 13.922-2.515 4.024-6.963 5.052-10.214 4.655-3.257-.4-7.055-2.454-7.945-7.021l-.031-.155c-2.11-10.666-8.106-19.483-16.884-24.829-9.492-5.781-21.261-7.073-33.141-3.637-4.874 1.409-9.151 3.912-12.714 7.438-.393.389-.396 1.022-.007 1.415s1.021.396 1.415.007c3.322-3.289 7.313-5.623 11.862-6.938 11.334-3.276 22.538-2.061 31.545 3.424 8.294 5.051 13.963 13.4 15.963 23.509l.03.152c.916 4.698 4.618 8 9.664 8.62 4.547.56 10.297-1.379 12.904-6.963.142-.304.122-.658-.053-.944s-.481-.465-.816-.478c-3.832-.143-10.569-6.669-12.104-11.4 9.815-.283 15.224 7.856 15.28 7.942.181.278.489.449.822.455.342.021.646-.154.836-.426 2.605-3.723 12.328-4.527 17.54-4.546-4.085 6.191-8.928 8.866-15.907 8.866-.028 0-.065.001-.086 0-.499 0-.922.368-.99.862-3.203 23.011-16.12 33.295-28.897 37.747-2.296-3.539-5.454-9.246-5.06-12.476.067-.548-.323-1.047-.872-1.114-.543-.064-1.047.323-1.114.872-.536 4.389 3.762 11.422 5.844 14.529-13.884-.253-18.409-13.985-18.602-14.594-.167-.525-.728-.817-1.255-.651-.526.167-.818.728-.652 1.254.042.133 3.414 10.43 12.926 14.428-5.291.914-10.127 1.038-13.689.911-7.805-.276-22.71-2.033-33.241-10.733 2.048-.29 5.064-1.09 7.722-3.267.427-.35.49-.98.14-1.407s-.979-.489-1.407-.14c-3.324 2.723-7.429 2.956-8.505 2.972-4.331-4.226-7.682-9.844-9.077-17.334-1.363-7.32-.635-15.122 2.05-21.97.202-.514-.052-1.095-.566-1.296-.517-.201-1.095.053-1.296.566-2.819 7.191-3.584 15.382-2.154 23.065 3.561 19.13 20.423 30.627 46.263 31.542.721.025 1.513.042 2.37.042 4.043 0 9.493-.366 15.336-1.761 1.263.241 2.608.376 4.043.376.502 0 1.017-.017 1.541-.05.365-.023.688-.244.842-.575s.116-.72-.1-1.015c-.114-.155-.24-.331-.372-.518 2.513-.905 5.035-2.014 7.494-3.416 12.252-6.985 19.699-18.71 22.144-34.858 7.88-.208 13.232-3.633 17.772-11.32.179-.304.185-.679.016-.988z"/><path d="m27.944 79.86c1.906-.377 3.146-2.228 2.769-4.134s-2.228-3.146-4.134-2.769-3.146 2.228-2.769 4.134 2.228 3.146 4.134 2.769z"/><path d="m38.065 29.521h.004c.349 0 .673-.182.854-.48.658-1.081 6.353-10.692 3.805-15.194-.848-1.498-2.427-2.246-4.665-2.236-2.18.013-3.708.77-4.542 2.25-2.538 4.505 3.044 14.095 3.689 15.174.18.3.505.485.855.486zm-2.801-14.678c.462-.82 1.382-1.223 2.811-1.232h.047c2.173 0 2.693.918 2.865 1.221 1.303 2.3-.846 7.838-2.911 11.662-2.02-3.817-4.113-9.341-2.812-11.651z"/><path d="m34.595 32.082c.024.001.048.002.072.002.334 0 .648-.167.834-.449.199-.302.22-.688.055-1.009-.617-1.198-3.845-7.185-6.826-7.361-.639-.041-1.554.149-2.299 1.253-1.167 1.73-.943 3.058-.55 3.867 1.502 3.089 7.98 3.644 8.714 3.697zm-6.505-6.445c.231-.342.399-.376.489-.376.013 0 .024 0 .033.001.994.059 2.76 2.191 4.207 4.572-2.06-.372-4.559-1.129-5.139-2.323-.089-.182-.358-.736.41-1.874z"/><path d="m40.327 31.636c.186.281.5.449.834.449.024 0 .048-.001.072-.002.734-.053 7.212-.608 8.714-3.696.393-.809.617-2.137-.55-3.867-.745-1.104-1.667-1.294-2.299-1.253-2.981.176-6.209 6.163-6.826 7.361-.165.32-.144.706.055 1.008zm6.889-6.374c.009 0 .021-.001.033-.001.09 0 .258.034.489.376.768 1.138.499 1.692.41 1.874-.572 1.178-2.993 1.952-5.146 2.332 1.448-2.385 3.217-4.522 4.214-4.581z"/></g></svg>