<svg xmlns="http://www.w3.org/2000/svg" xmlns:xlink="http://www.w3.org/1999/xlink" version="1.1" style="enable-background:new 0 0 512 512;" xml:space="preserve" width="512" height="512"><rect id="backgroundrect" width="100%" height="100%" x="0" y="0" fill="none" stroke="none" class="" style=""/>
















<g class="currentLayer" style=""><title>Layer 1</title><g id="svg_1" class="" fill="#000000" fill-opacity="1">
	<g id="svg_2" fill="#000000" fill-opacity="1">
		<g id="svg_3" fill="#000000" fill-opacity="1">
			<g id="svg_4" fill="#000000" fill-opacity="1">
				<path style="" d="M36.376,157.619c-13.775,10.028-22.995,24.508-24.888,29.448      c-6.858,17.891-2.194,5.718-6.13,17.042c-0.497,1.432-0.356,2.963-0.743,4.396c-2.784,10.295-3.172,26.955,1.916,42.281      c15.113,45.517,64.508,58.8,64.766,60.641c0.175,1.245-8.773,0.747-23.826,11.659c-33.122,24.012-33.444,74.648,3.176,97.474      c5.752,3.586,11.863,6.414,17.663,7.65c3.847,0.974,6.801,1.727,9.873,2.078c6.311,0.721,12.591,0.699,18.857-0.294      c21.262-3.37,40.236-16.453,49.526-36.99c2.097-4.635-6.221-23.027-5.014-55.436c0.232-6.186,0.147-3.94,0.349-7.241      c1.967-31.965,14.744-64.772,39.516-86.378c3.722-3.247,4.235-2.516,3.825-6.164C176.578,160.55,93.278,116.19,36.376,157.619z" id="svg_5" fill="#000000" fill-opacity="1"/>
				<path style="" d="M332.718,277.341c-3.163,4.356,5.237,7.415,6.533,38.341c0.077,1.452,0.725,2.878,0.103,4.329      c-0.571,43.608-19.453,59.692-13.376,62.01c-2.496-0.994-2.443,0.333-4.822,4.743c-15.899,29.29-30.594,39.08-31.004,45.16      c-2.179,33.675,21.776,60.946,48.917,67.687c1.296,0.311,2.567,0.622,3.837,1.011c6.196,1.867,18.146,2.463,29.164-0.182      c34.168-8.243,52.832-44.251,40.233-78.107c-8.249-22.137-21.871-26.92-14.828-25.509c5.288,1.089,18.302,2.178,30.901,1.192      c44.874-3.551,74.011-31.704,80.259-74.297c0.492-3.37,1.011-6.766,0.908-10.214      C506.639,225.132,389.595,199.416,332.718,277.341z" id="svg_6" fill="#000000" fill-opacity="1"/>
			</g>
			<g style="opacity:0.15;" id="svg_7" fill="#000000" fill-opacity="1">
				<path style="" d="M324.092,380.297c-0.42,0.171-0.39,0.514-0.26,0.883c0.245,0.748-0.14,1.344-0.466,1.969      c-8.522,16.56-16.471,27.131-27.024,39.697c-1.852,2.192-9.072,3.036-11.949,3.323c-9.334,0.929-19.284,0.839-29.458-0.075      c-0.157-0.014-0.327-0.032-0.484-0.047c26.278-41.086,26.899-85.829,53.327-126.568c1.924-0.229,3.832-0.504,5.748-0.802      c7.164-1.141,14.222-2.791,21.038-5.001c1.742-0.56,2.021-0.446,2.396,1.235c2.423,10.532,3.129,21.428,2.463,31.883      c-0.097,1.435,0.209,3.018-0.851,4.293c-0.041,0.056-0.068,0.156-0.059,0.225c0.656,3.457-0.486,6.722-0.969,10.079      c-1.842,12.879-7.221,26.514-11.879,36.909C325.302,379.115,325.008,379.922,324.092,380.297z" id="svg_8" fill="#000000" fill-opacity="1"/>
				<path style="" d="M255.515,459.169c-7.057,5.512-18.941,12.298-26.839,16.528      c-12.616,6.766-21.409,9.863-28.298,12.604c-1.59,0.64-2.83,0.312-3.96-1.045c-6.007-7.161-11.113-13.977-15.73-20.918      c10.971,0.587,27.751,0.549,39.739-3.89c3.888-1.575,8.474-3.261,13.252-4.91c13.179,1.264,21.213,0.232,21.385,0.238      C255.589,457.821,256.106,458.708,255.515,459.169z" id="svg_9" fill="#000000" fill-opacity="1"/>
			</g>
			<g id="svg_10" fill="#000000" fill-opacity="1">
				<path style="" d="M470.164,289.824c-10.849-4.914-22.581-7.868-34.486-9.255      c-11.918-1.421-24.07-1.14-36.029,0.763l-8.902,1.84c-2.931,0.79-5.861,1.608-8.77,2.469c-2.865,1.033-5.702,2.15-8.543,3.227      c-2.79,1.232-5.522,2.606-8.246,3.956c-10.743,5.744-20.5,13.638-27.622,23.424c-0.869,1.193-0.846,2.87,0.152,4.045      c1.171,1.378,3.236,1.546,4.614,0.375l0.018-0.015c8.535-7.253,17.906-13.04,27.928-17.409c2.567-0.967,5.09-2.002,7.621-3.012      l7.814-2.499l7.957-2.064l8.094-1.552c10.846-1.886,21.954-2.461,33.078-2.194c11.137,0.324,22.278,1.636,33.457,3.727      l0.03,0.006c1.361,0.255,2.771-0.439,3.368-1.756C472.4,292.349,471.713,290.525,470.164,289.824z" id="svg_11" fill="#000000" fill-opacity="1"/>
				<path style="" d="M124.737,209.332c-9.33-7.498-19.535-13.847-30.441-18.703      c-10.871-4.852-22.488-8.382-34.456-9.216c-1.471-0.103-2.878,0.804-3.344,2.272c-0.547,1.722,0.405,3.56,2.126,4.107      l0.07,0.022c10.631,3.378,20.754,7.893,30.448,13.203c2.374,1.428,4.809,2.721,7.167,4.153c2.323,1.496,4.684,2.923,6.97,4.463      l6.791,4.713l6.521,5.061c8.58,6.87,16.438,14.586,23.241,23.067c6.749,8.525,12.35,17.888,15.873,28.319l0.024,0.073      c0.442,1.307,1.729,2.197,3.166,2.079c1.693-0.139,2.953-1.624,2.813-3.317c-0.998-12.16-5.999-23.759-12.642-33.811      C142.408,225.678,133.965,216.938,124.737,209.332z" id="svg_12" fill="#000000" fill-opacity="1"/>
				<path style="" d="M420.994,334.272c-9.613-3.245-19.745-5.017-29.958-5.445l-7.671,0.043      c-2.554,0.179-5.111,0.332-7.658,0.56l-7.59,1.199c-2.506,0.55-4.997,1.154-7.47,1.796c-9.845,2.787-19.256,7.253-27.237,13.487      c-1.121,0.877-1.582,2.42-1.026,3.808c0.674,1.682,2.585,2.499,4.267,1.825l0.031-0.013c8.771-3.515,17.602-6.18,26.617-7.817      c2.275-0.314,4.536-0.64,6.78-1.034l6.82-0.65c2.286-0.069,4.563-0.225,6.843-0.333l6.858,0.079      c9.152,0.229,18.291,1.509,27.34,3.461c9.052,2,17.965,4.811,26.908,8.137l0.025,0.01c1.25,0.464,2.706,0.075,3.545-1.047      c1.021-1.366,0.742-3.301-0.623-4.322C439.76,342.008,430.605,337.471,420.994,334.272z" id="svg_13" fill="#000000" fill-opacity="1"/>
				<path style="" d="M133.85,272.068c-7.256-7.361-15.978-13.099-25.121-17.532      c-9.213-4.331-18.863-7.427-28.649-9.343c-9.776-1.953-19.667-2.882-29.522-2.634c-1.423,0.037-2.714,1.003-3.093,2.449      c-0.46,1.754,0.588,3.549,2.342,4.009l0.014,0.003c9.313,2.444,18.496,4.706,27.448,7.424c2.215,0.746,4.431,1.465,6.66,2.128      l6.545,2.332l6.431,2.512l6.257,2.821c8.276,3.846,16.01,8.593,23.024,14.249c7.002,5.691,13.147,12.407,18.626,20.035      l0.025,0.036c0.777,1.08,2.197,1.57,3.518,1.112c1.611-0.559,2.463-2.318,1.904-3.928      C146.94,288.178,141.133,279.354,133.85,272.068z" id="svg_14" fill="#000000" fill-opacity="1"/>
				<path style="" d="M141.519,330.061l-0.136-0.063l-1.602-0.735c-1.082-0.455-2.171-0.962-3.28-1.358      c-2.231-0.639-4.507-1.437-6.805-1.832c-4.604-0.869-9.301-1.352-13.948-1.188c-9.33,0.124-18.506,2.051-27.227,5.123      c-8.678,3.197-16.943,7.584-24.228,13.305c-7.289,5.667-13.691,12.615-18.128,20.666c-0.667,1.213-0.517,2.771,0.482,3.835      c1.242,1.324,3.322,1.39,4.646,0.148l0.049-0.045c6.158-5.777,12.653-10.808,19.612-15.11c3.514-2.082,7.014-4.183,10.739-5.862      c1.805-0.945,3.674-1.758,5.554-2.547c1.851-0.857,3.767-1.55,5.695-2.21c7.628-2.85,15.577-4.822,23.604-5.948      c2.014-0.364,4.023-0.441,6.044-0.61c2.036-0.265,4.029-0.153,6.064-0.203c2.051-0.119,4.006,0.224,6.071,0.251      c1.01,0.082,1.986,0.281,2.999,0.408l1.53,0.181l2.123,0.242c1.041-0.159,1.246-0.397,1.453-0.486      c0.167-0.108,0.225-0.145,0.022-0.092c1.597-0.548,2.449-2.286,1.901-3.884C144.28,330.666,142.913,329.904,141.519,330.061z       M140.784,330.175c-0.38,0.123-0.565,0.205-0.637,0.213C140.111,330.412,140.08,330.301,140.784,330.175z" id="svg_15" fill="#000000" fill-opacity="1"/>
				<path style="" d="M372.462,404.53c-5.849-7.147-12.789-13.581-20.933-18.317      c-8.061-4.757-17.412-7.85-26.788-7.734c-1.38,0.019-2.659,0.912-3.095,2.301c-0.544,1.731,0.418,3.577,2.15,4.121l0.066,0.021      c7.854,2.469,14.901,6.233,21.308,10.99l4.669,3.746c1.469,1.371,2.976,2.683,4.414,4.076l4.206,4.327l3.927,4.616      c5.15,6.256,9.567,13.167,13.46,20.383c3.844,7.258,7.049,14.865,9.599,22.888l0.022,0.074c0.394,1.233,1.542,2.133,2.908,2.15      c1.707,0.02,3.107-1.347,3.128-3.054c0.11-9.163-1.98-18.256-5.299-26.777C382.901,419.781,378.202,411.778,372.462,404.53z" id="svg_16" fill="#000000" fill-opacity="1"/>
				<path style="" d="M343.267,426.692c-3.134-6.034-7.264-11.584-12.305-16.159      c-4.992-4.594-10.894-8.301-17.358-10.215c-1.12-0.33-2.382-0.017-3.213,0.91c-1.152,1.284-1.045,3.26,0.239,4.413l0.061,0.054      c4.483,4.021,8.453,8.15,11.971,12.628c3.473,4.503,6.523,9.264,9.081,14.295c2.564,5.027,4.634,10.294,6.271,15.747      c1.591,5.474,2.668,11.103,3.417,17.064l0.011,0.092c0.158,1.239,1.011,2.337,2.279,2.743c1.746,0.56,3.616-0.4,4.176-2.146      c2.062-6.421,2.374-13.36,1.479-20.073C348.521,439.303,346.386,432.735,343.267,426.692z" id="svg_17" fill="#000000" fill-opacity="1"/>
				<path style="" d="M141.622,355.044c-6.493-1.706-13.48-1.527-20.093-0.031c-6.65,1.448-12.958,4.265-18.605,7.958      c-5.645,3.708-10.66,8.321-14.732,13.625c-4.095,5.267-7.342,11.22-9.06,17.63c-0.321,1.206,0.052,2.545,1.07,3.402      c1.403,1.181,3.499,1.002,4.681-0.403l0.05-0.059c3.88-4.609,7.74-8.893,11.893-12.826c4.18-3.892,8.566-7.455,13.238-10.554      c4.665-3.109,9.594-5.736,14.773-7.882c5.204-2.106,10.641-3.626,16.501-4.752l0.083-0.015c1.142-0.222,2.115-1.075,2.43-2.275      C144.29,357.192,143.292,355.483,141.622,355.044z" id="svg_18" fill="#000000" fill-opacity="1"/>
			</g>
			<g style="opacity:0.25;" id="svg_19" fill="#000000" fill-opacity="1">
				<path style="" d="M290.21,431.497c0.384-4.509,2.472-4.297,8.647-12.199      c10.036-12.841,10.972-12.458,24.215-36.191c1.395-2.5,1.691-1.007,7.872,0.092c-9.182-3.679-7.865,2.98,0.462-19.434      c4.27-11.496,7.787-27.259,7.902-42.859c0.009-1.202,0.62-2.332,0.218-3.571c-1.007-3.101,1.296-12.733-7.32-36.696      c-0.189-0.526,0.306-0.881,0.729-0.565c6.561,4.908,12.396,10.126,17.817,18.072c8.766,12.85,12.835,27.555,13.652,40.645      c2.693,43.158-30.085,56.137-18.254,80.331c9.22,18.856,35.078,22.508,39.848,53.268c1.733,11.175-0.491,17.214-2.009,22.566      c-0.333,1.174-1.253,1.796-2.375,2.272C337.389,515.968,286.094,479.842,290.21,431.497z" id="svg_20" fill="#000000" fill-opacity="1"/>
				<path style="" d="M34.279,405.485c-0.595-0.792-1.074-1.654-0.779-2.679c1.114-3.868,1.671-7.901,3.509-11.556      c4.433-8.815,10.513-16.097,19.162-21.103c9.293-5.378,18.677-6.479,28.633-8.217c37.072-6.475,28.043-26.956,31.451-56.421      c2.668-23.067,21.639-49.939,49.204-60.437c6.967-2.654,14.661-4.143,18.376-4.251c3.449-0.101-8.152,4.725-21.898,25.811      c-9.983,15.315-18.058,37.336-20.026,63.183c-0.216,2.831-0.149,3.317-2.945,2.626c-3.025-0.747-2.708-0.8-4.038-0.947      c0.243,0.095,0.479,0.214,0.73,0.283c11.294,3.084,2.071-2.666,7.666,37.804c2.863,20.705,4.965,19.582,3.352,23.199      C126.453,438.117,62.839,443.512,34.279,405.485z" id="svg_21" fill="#000000" fill-opacity="1"/>
				<path style="" d="M75.967,159.216c2.238,0.646,3.753,3.813,1.8,5.644c-5.372,5.036-23.635,6.744-35.574,27.288      c-14.913,25.66-1.765,51.541-1.142,60.702c0.607,8.93-13.948,17.553-22.325-12.839c-2.233-8.1-2.985-16.353-2.484-24.731      C18.673,174.634,54.525,153.02,75.967,159.216z" id="svg_22" fill="#000000" fill-opacity="1"/>
				<path style="" d="M478.72,296.392c-2.077-8.171-5.594-16.114-12.843-24.438c-7.229-8.301-1.517-12.118,6.101-7.924      c11.263,6.201,20.552,17.706,24.525,33.353c10.103,39.808-27.54,77.971-40.72,75.366c-3.211-0.635-6.523-3.742-5.91-8.079      c1.223-8.652,17.847-15.452,26.318-37.115C477.056,325.341,481.4,306.933,478.72,296.392z" id="svg_23" fill="#000000" fill-opacity="1"/>
			</g>
			<g id="svg_24" fill="#000000" fill-opacity="1">
				<path style="" d="M349.308,121.581c-43.392-53.978-129.58-38.96-151.97,26.115      c-27.787,80.757,63.395,149.068,133.381,101.291C371.719,221.006,381.579,161.715,349.308,121.581z" id="svg_25" fill="#000000" fill-opacity="1"/>
				<path style="" d="M313.526,298.676c-30.157,4.694-60.094,0.523-79.767-7.847      c-20.553-8.732-43.436-21.791-57.767-38.814c-1.591-1.895-2.156-1.28-3.444,0.151c-45.66,50.437-29.279,130.768-25.322,133.98      c1.6,1.307,5.921,5.811,17.258,12.434c22.383,13.074,57.194,24.467,89.969,27.468c8.758,0.812,37.725,1.731,41.896-3.208      c18.038-21.48,37.179-53.361,41.195-81.448c0.484-3.358,1.626-6.622,0.97-10.08c-0.009-0.069,0.018-0.169,0.059-0.225      c1.616-1.945,1.817-21.272-1.613-36.177C336.118,291.133,336.026,295.094,313.526,298.676z" id="svg_26" fill="#000000" fill-opacity="1"/>
				<path style="" d="M255.064,457.777c-1.088-0.036-30.293,3.719-69.386-12.442      c-13.948-5.77-17.811-9.268-21.675-11.642c-0.835-0.22-1.746,0.213-0.985,1.804c9.866,19.547,19.135,34.754,33.401,51.759      c1.13,1.357,2.371,1.684,3.959,1.044c6.89-2.74,15.683-5.837,28.298-12.604C233.393,473.171,260.445,458.224,255.064,457.777z" id="svg_27" fill="#000000" fill-opacity="1"/>
			</g>
			<g id="svg_28" fill="#000000" fill-opacity="1">
				<g id="svg_29" fill="#000000" fill-opacity="1">
					<path style="" d="M252.941,195.961c-3.904,12.721-29.847,10.851-36.146-4.218       c-3.577-8.563,2.751-15.352,12.544-15.82C241.05,175.363,256.988,182.773,252.941,195.961z" id="svg_30" fill="#000000" fill-opacity="1"/>
				</g>
				<g id="svg_31" fill="#000000" fill-opacity="1">
					<path style="" d="M296.533,207.458c-2.878,12.991,20.614,24.16,33.524,14.156       c7.335-5.685,5.178-14.712-3.11-19.949C317.035,195.403,299.516,193.99,296.533,207.458z" id="svg_32" fill="#000000" fill-opacity="1"/>
				</g>
			</g>
		</g>
		<g id="svg_33" fill="#000000" fill-opacity="1">
			<path style="" d="M506.916,284.71c-11.015-30.327-37.885-51.114-71.879-55.605     c-38.915-5.146-77.732,11.789-102.575,44.29c-2.539-5.385-5.556-10.527-9.043-15.388c24.596-12.873,42.819-36.755,47.229-65.899     c4.112-27.165-3.546-53.396-20.416-73.127c4.079-17.282,15.456-32.717,31.317-42.413c30.031-18.362,47.261-4.443,51.83,0.258     c9.482,9.765,11.15,24.179,4.057,35.053c-5.529,8.477-14.298,13.621-23.458,13.763c-6.84,0.058-12.771-2.752-16.318-7.84     c-4.462-6.396-3.287-14.966,2.675-19.509c3.709-2.827,8.697-3.954,11.858-2.676c2.014,0.813,3.197,2.538,3.618,5.274     c0.241,1.556,1.7,2.606,3.253,2.385c1.556-0.241,2.624-1.696,2.385-3.253c-0.723-4.69-3.252-8.134-7.121-9.695     c-5.843-2.358-12.974,0.02-17.448,3.428c-8.401,6.401-10.113,18.396-3.897,27.307c4.568,6.553,12.067,10.285,20.627,10.285     c0.151,0,0.304-0.001,0.457-0.004c11.057-0.171,21.579-6.282,28.146-16.349c8.561-13.122,6.61-30.452-4.743-42.143     c-10.945-11.27-32.165-17.494-58.895-1.15c-16.028,9.799-27.825,25.049-32.919,42.308c-4.768-4.798-10.125-9.138-16.054-12.905     c-23.142-14.701-50.22-18.191-74.993-10.527c7.862-32.137-9.39-70.858-37.091-81.44C201.84,3.145,180.15,9.392,172.85,28.239     c-5.826,15.047-1.57,36.209,15.465,44.161c7.989,3.722,20.039,4.205,27.634-3.547c6.137-6.267,7.487-14.742,3.613-22.668     c-3.429-7.017-10.04-11.449-16.096-10.751c-4.009,0.456-7.47,3.298-8.418,6.91c-0.4,1.524,0.512,3.082,2.034,3.482     c1.524,0.401,3.083-0.509,3.482-2.034c0.353-1.345,1.877-2.502,3.547-2.692c3.579-0.39,8.015,2.857,10.326,7.59     c1.329,2.719,3.739,9.735-2.565,16.173c-5.648,5.771-14.919,5.273-21.145,2.368c-14.052-6.558-17.46-24.278-12.559-36.933     c6.071-15.681,24.193-20.849,37.313-15.833c26.226,10.017,42.089,48.023,32.643,78.203c-0.023,0.072-0.006,0.143-0.023,0.216     c-5.927,2.349-11.688,5.345-17.185,9.018c-15.677,10.476-27.089,24.392-33.919,41.361c-9.856,24.486-8.732,51.966,3.085,75.397     c1.218,2.414,2.56,4.746,3.978,7.022c-4.776,1.827-10.745,5.384-16.478,9.517c-3.878-32.194-22.115-61.72-49.579-79.763     c-25.163-16.53-54.843-20.647-81.435-11.297c-20.534,7.22-36.177,20.649-46.493,39.915c-7.528,14.059-13.028,37.803-8.344,59.157     c5.005,22.823,19.742,42.73,42.615,57.572c6.575,4.266,13.581,7.597,20.539,10.672c-24.343,9.857-40.424,29.11-43.483,52.659     c-3.056,23.517,7.424,45.928,27.349,58.487c11.049,6.964,24.117,10.591,37.422,10.591c5.5,0,11.04-0.62,16.496-1.88     c18.045-4.168,33.085-14.704,42.35-29.667c0.531-0.857,1.019-1.718,1.489-2.584c0.312,1.081,0.624,2.163,0.95,3.225     c10.061,32.733,27.684,65.224,47.145,86.916c0.734,0.818,2.075,2.313,4.257,2.313c0.675,0,1.429-0.143,2.27-0.493l2.254-0.932     c7.595-3.14,15.448-6.386,22.968-10.231c23.491-12.014,44.082-26.706,61.168-43.316c0.562,16.644,6.608,32.888,16.798,44.548     c10.874,12.441,25.943,20.674,42.428,23.183c3.449,0.525,6.873,0.784,10.256,0.784c17.238-0.002,33.299-6.726,45.151-19.168     c13.921-14.614,19.567-34.559,15.488-54.718c-2.353-11.628-7.915-22.505-15.833-31.356c4.559,0.172,9.056,0.303,13.419,0.303     c31.287,0,57.529-5.553,78.858-32.702C511.893,344.745,516.93,312.282,506.916,284.71z M291.04,424.8     c-0.937,0.202-2.214,0.519-4.031,0.78c-34.603,4.952-85.228-7.117-115.329-23.21c-14.301-7.645-19.719-12.467-22.259-14.685     c-3.851-16.451-5.885-34.538-5.037-52.689c0.103,0.109,0.199,0.207,0.306,0.322c31.496,33.805,92.172,49.596,138.465,50.1     c5.512,0.06,27.533,1.368,37.568-2.725C313.199,397.564,303.206,411.713,291.04,424.8z M336.099,331.674     c-1.118,0.398-2.547,1.058-4.282,1.719c-38.453,14.661-89.776,6.426-125.994-11.058c-31.956-15.429-46.843-33.773-50.181-38.063     c4.94-11.328,11.661-21.995,20.477-31.535c12.509,15.433,48.597,39.143,80.562,44.963c16.677,3.036,29.242,3.794,47.586,2.444     c12.846-0.946,24.87-4.175,29.553-5.818C336.655,306.072,337.42,318.647,336.099,331.674z M202.289,145.394     c6.393-15.885,17.092-28.921,31.798-38.749c28.132-18.803,63.56-19.083,92.457-0.727c28.914,18.368,43.652,51.066,38.466,85.335     c-6.546,43.247-47.64,75.109-91.625,71.021c-2.189-0.203-4.336-0.612-6.608-1.047c-2.097-0.399-4.256-0.81-6.473-1.052     c-0.241-0.151-0.509-0.268-0.799-0.344c-23.598-6.124-43.4-22.067-54.331-43.74C194.097,194.127,193.045,168.358,202.289,145.394     z M140.17,398.644c-8.458,13.659-22.231,23.287-38.784,27.111c-17.185,3.963-35.254,1.06-49.594-7.98     c-18.023-11.359-27.5-31.639-24.734-52.927c3.044-23.429,20.375-42.283,46.36-50.433c0.032-0.01,0.053-0.035,0.084-0.046     c0.284-0.1,0.545-0.248,0.786-0.433c0.081-0.063,0.153-0.127,0.226-0.198c0.175-0.166,0.323-0.356,0.454-0.569     c0.05-0.082,0.108-0.154,0.15-0.24c0.018-0.038,0.048-0.066,0.065-0.105c0.056-0.13,0.049-0.265,0.084-0.397     c0.053-0.195,0.114-0.382,0.124-0.587c0.011-0.205-0.03-0.398-0.062-0.599c-0.022-0.135,0-0.268-0.042-0.402     c-0.011-0.035-0.038-0.058-0.05-0.091c-0.069-0.196-0.187-0.362-0.297-0.539c-0.089-0.141-0.156-0.293-0.266-0.415     c-0.114-0.127-0.265-0.215-0.403-0.321c-0.158-0.121-0.305-0.251-0.484-0.337c-0.034-0.016-0.055-0.047-0.09-0.062l-0.782-0.338     c-8.983-3.884-17.468-7.552-25.464-12.739c-21.587-14.006-35.47-32.683-40.149-54.009c-4.371-19.931,0.769-42.107,7.802-55.243     c9.623-17.969,24.21-30.493,43.356-37.226c25.262-8.882,52.402-5.09,76.413,10.685c27.022,17.753,44.624,47.213,47.389,79.057     c-3.35,2.701-6.443,5.476-8.919,8.059c-37.74,39.372-40.123,97.745-29.071,143.303     C142.972,393.489,141.721,396.136,140.17,398.644z M223.755,474.78c-7.315,3.741-15.059,6.943-22.55,10.039l-2.096,0.857     c-0.071-0.075-0.157-0.168-0.261-0.284c-11.882-13.245-23.068-30.661-32.183-49.699c16.929,10.987,35.088,15.072,36.081,15.542     c1.527,0.723,3.118,1.148,4.735,1.533c1.186,0.313,2.362,0.823,3.563,0.892c3.156,0.183,8.068,2.022,11.289,2.448     c3.921,0.519,17.791,2.89,29.52,2.059C243.043,464.146,233.67,469.71,223.755,474.78z M489.6,363.891     c-24.098,30.675-54.237,31.88-94.089,29.961c-1.066-0.382-2.298-0.115-3.093,0.781c-0.079,0.089-0.106,0.2-0.172,0.295     c-0.359,0.448-0.627,0.973-0.658,1.587c-0.059,1.202,0.64,2.256,1.672,2.726c9.56,8.726,16.234,20.422,18.791,33.061     c3.704,18.309-1.409,36.406-14.027,49.654c-12.874,13.517-31.254,19.598-50.419,16.68c-15.155-2.306-29.003-9.871-38.993-21.298     c-10.473-11.985-16.154-29.317-15.341-46.572c23.273-24.375,39.19-52.516,45.877-82.244c5.562-24.722,4.046-48.461-4.077-69.105     c23.494-32.557,61.342-49.67,99.22-44.658c31.844,4.206,56.99,23.608,67.266,51.898     C510.912,312.418,506.219,342.736,489.6,363.891z" id="svg_34" fill="#000000" fill-opacity="1"/>
			<path style="" d="M298.079,179.289c-1.467-0.58-3.123,0.137-3.704,1.597c-2.075,5.223-6.481,11.838-12.068,13.292     c-4.987,1.294-8.375-0.853-10.339-2.887c-3.994-4.135-5.668-11.249-3.982-16.914c0.449-1.51-0.41-3.097-1.919-3.547     c-1.514-0.455-3.099,0.409-3.547,1.919c-2.273,7.636-0.075,16.891,5.347,22.503c3.197,3.312,7.162,5.028,11.461,5.027     c1.439,0,2.918-0.193,4.415-0.583c7.644-1.988,13.243-9.933,15.934-16.704C300.257,181.528,299.542,179.871,298.079,179.289z" id="svg_35" fill="#000000" fill-opacity="1"/>
			<path style="" d="M276.841,132.857c0.277,2.376,0.904,5.611,2.545,9.502c2.038,4.83,5.024,6.716,7.169,7.448     c0.863,0.293,1.947,0.522,3.232,0.522c1.891,0,4.216-0.497,6.902-2.018c2.716-1.537,5.513-4.225,8.481-8.145     c4.982,9.307,12.475,13.747,18.401,13.747c0.804,0,1.577-0.081,2.312-0.24c4.814-1.047,7.771-5.124,7.91-10.907     c0.222-9.134-3.799-16.929-11.948-23.168c-1.252-0.959-3.039-0.718-3.997,0.532c-0.957,1.25-0.719,3.039,0.532,3.998     c6.711,5.139,9.889,11.191,9.712,18.502c-0.053,2.168-0.689,4.877-3.42,5.472c-4.175,0.904-10.953-3.213-15.064-11.672     c-0.184-0.377-0.394-0.751-0.606-1.126c-0.292-0.512-0.567-0.997-0.662-1.369c-0.036-0.141-0.127-0.247-0.182-0.377     c-0.081-0.195-0.149-0.391-0.273-0.565c-0.117-0.163-0.272-0.281-0.418-0.415c-0.113-0.103-0.191-0.233-0.323-0.32     c-0.022-0.014-0.048-0.014-0.07-0.027c-0.156-0.097-0.335-0.139-0.508-0.204c-0.178-0.067-0.346-0.16-0.53-0.189     c-0.13-0.022-0.265,0.008-0.398,0.005c-0.236-0.005-0.47-0.02-0.699,0.033c-0.023,0.005-0.045-0.002-0.068,0.003     c-0.146,0.037-0.256,0.131-0.39,0.188c-0.189,0.08-0.381,0.145-0.55,0.265c-0.177,0.126-0.306,0.292-0.448,0.452     c-0.092,0.103-0.211,0.173-0.289,0.292c-3.473,5.285-6.606,8.741-9.311,10.273c-1.476,0.834-3.619,1.692-5.486,1.06     c-1.886-0.643-3.082-2.675-3.753-4.266c-1.986-4.705-2.2-8.18-2.328-10.254c-0.105-1.682-0.223-3.59-2.1-4.431     c-1.848-0.821-3.396,0.395-3.905,0.796c-8.805,6.946-17.468,6.506-20.335,3.522c-2.042-2.124-1.227-5.771,2.178-9.756     c3.558-4.16,8.887-6.94,15.006-7.826c1.558-0.226,2.639-1.673,2.414-3.232c-0.227-1.56-1.69-2.628-3.232-2.414     c-7.488,1.086-14.065,4.554-18.524,9.765c-6.487,7.591-5.263,13.972-1.956,17.414     C256.506,138.558,266.692,139.29,276.841,132.857z" id="svg_36" fill="#000000" fill-opacity="1"/>
			<path style="" d="M317.765,176.68c-4.53-1.254-8.507,1.199-9.83,5.585c-1.263,4.186,1.522,8.757,5.664,9.855     c4.329,1.03,8.884-1.5,9.879-5.67C324.556,181.94,322.275,177.929,317.765,176.68z" id="svg_37" fill="#000000" fill-opacity="1"/>
			<path style="" d="M245.671,174.124c4.539,1.076,8.475-1.174,9.722-5.755c1.171-4.301-1.478-8.594-5.812-9.686     c-4.316-1.224-8.738,1.848-9.736,5.767C238.904,168.139,240.762,172.96,245.671,174.124z" id="svg_38" fill="#000000" fill-opacity="1"/>
		</g>
		<g style="opacity:0.5;" id="svg_39" fill="#000000" fill-opacity="1">
			<path style="" d="M179.695,281.639c-0.258,2.432-1.858,0.64-9.272,17.593     c-16.214,37.077-15.599,76.065-4.719,103.853c8.462,21.613,25.729,20.689,29.578,5.906c3.119-11.979-1.06-23.091-6.973-53.138     C184.723,337.632,177.722,300.213,179.695,281.639z" id="svg_40" fill="#000000" fill-opacity="1"/>
		</g>
	</g>
</g></g></svg>