<svg xmlns="http://www.w3.org/2000/svg" xmlns:xlink="http://www.w3.org/1999/xlink" version="1.1" style="enable-background:new 0 0 512 512;" xml:space="preserve" width="512" height="432"><rect id="backgroundrect" width="100%" height="100%" x="0" y="0" fill="none" stroke="none" class="" style=""/>
















<g class="currentLayer" style=""><title>Layer 1</title><g id="svg_1" class="" fill="#000000" fill-opacity="1">
	<path style="" d="M322.08989036989215,413.23109927368165 c-71.925,33.493 -157.425,21.991 -218.156,-29.254 L5.39589036989212,327.53909927368164 c-5.189,-2.972 -7.359,-9.336 -5.07,-14.86 l31.431,-75.826 c-0.126,-2.856 -0.18800000000000006,-5.634 -0.18700000000000006,-8.29 c-0.131,-59.332 25.192,-115.046 69.763,-154.113 c0.981,-3.23 3.302,-5.896 6.352,-7.316 c1.092,-0.509 2.276,-0.8570000000000002 3.525,-1.014 l0.3140000000000001,-0.040000000000000015 c8.923,-6.868 18.426,-12.998 28.361,-18.292 l0.03800000000000001,-10.29 c0.018000000000000006,-4.684 2.7680000000000002,-8.819 6.862,-10.726 c0.8570000000000002,-0.3990000000000002 1.7730000000000001,-0.7010000000000002 2.733,-0.8880000000000002 c5.559,-1.091 11.113,1.8940000000000001 13.271,7.13 l1.533,3.723 c18.902,-7.091 38.562,-11.291 58.673,-12.531 c1.278,-5.299 3.843,-10.177 7.525,-14.125 c2.688,-2.8810000000000002 5.921,-5.215 9.608,-6.931 c10.422,-4.853 22.627,-4.054 31.848,2.088 c3.099,2.064 5.208,5.21 5.941,8.86 c0.7330000000000002,3.654 -0.0010000000000000005,7.373 -2.069,10.473 c-0.6780000000000004,1.026 -1.497,1.9580000000000002 -2.426,2.77 c43.569,8.132 83.043,29.955 113.065,62.715 c4.003,0.8450000000000002 7.406,3.732 8.789,7.785 c0.3680000000000001,1.074 0.5720000000000002,2.172 0.6260000000000002,3.26 c9.922,12.507 18.363,26.18 25.141,40.736 c0.11300000000000003,0.24400000000000005 0.22600000000000006,0.4860000000000001 0.3380000000000002,0.7300000000000002 l9.053,-15.048 c1.23,-2.045 3.036,-3.654 5.165,-4.6450000000000005 c0.8260000000000002,-0.3840000000000001 1.697,-0.6750000000000004 2.604,-0.8630000000000002 c3.245,-0.6730000000000004 6.623,0.039000000000000014 9.319,1.9660000000000002 l58.921,42.094 c2.6790000000000003,1.9140000000000001 4.444,4.853 4.872,8.118 c0.4300000000000001,3.2640000000000002 -0.514,6.5600000000000005 -2.609,9.104 l-73.569,89.321 C421.27989036989214,334.21509927368163 379.20289036989215,386.63509927368165 322.08989036989215,413.23109927368165 z" id="svg_2" fill="#000000" fill-opacity="1"/>
	<g id="svg_3" fill="#000000" fill-opacity="1">
		<g id="svg_4" fill="#000000" fill-opacity="1">
			<g id="svg_5" fill="#000000" fill-opacity="1">
				<path style="" d="M409.37589036989215,147.26909927368163 c44.619,95.818 3.098,209.674 -92.72,254.294 c-95.818,44.619 -209.667,3.114 -254.286,-92.704 c-9.304,-19.981 -14.865,-40.774 -16.963,-61.535 c-0.6380000000000002,-6.2620000000000005 -0.97,-12.508 -0.9650000000000002,-18.752 c-0.15800000000000006,-72.254 40.829,-141.514 110.624,-174.015 C250.88389036989213,9.937099273681639 364.75589036989214,51.451099273681635 409.37589036989215,147.26909927368163 z" id="svg_6" fill="#000000" fill-opacity="1"/>
				<path style="" d="M235.97789036989212,420.54409927368164 c-22.223,0 -44.503,-3.9 -66.004,-11.739 c-48.277,-17.6 -86.81,-52.948 -108.502,-99.529 c-9.153,-19.653 -14.89,-40.464 -17.051,-61.852 c-0.6490000000000002,-6.37 -0.974,-12.713000000000001 -0.9690000000000002,-18.852 C43.28789036989212,153.85009927368165 86.93489036989212,85.19109927368164 154.64689036989213,53.65809927368164 c96.168,-44.779 210.844,-2.977 255.626,93.192 l0,0 c21.69,46.581 23.941,98.823 6.336,147.104 c-17.604,48.28 -52.954,86.813 -99.536,108.506 C291.2378903698921,414.49109927368164 263.65289036989213,420.54409927368164 235.97789036989212,420.54409927368164 zM235.57389036989213,37.66609927368164 c-26.882,0 -54.158,5.712 -80.09,17.788 C88.46689036989213,86.66209927368165 45.26989036989212,154.61509927368164 45.43189036989212,228.57009927368165 c-0.005000000000000002,6.076 0.3180000000000001,12.351 0.9590000000000002,18.655 c2.1390000000000002,21.167 7.817,41.763 16.877,61.215 c21.468,46.104 59.604,81.085 107.385,98.505 c47.778,17.416 99.481,15.188 145.585,-6.281 c46.104,-21.467 81.089,-59.605 98.512,-107.387 c17.423000000000002,-47.784 15.196,-99.49 -6.272,-145.591 C376.2328903698921,78.44009927368164 307.3558903698921,37.66609927368164 235.57389036989213,37.66609927368164 z" id="svg_7" fill="#000000" fill-opacity="1"/>
			</g>
		</g>
		<g id="svg_8" fill="#000000" fill-opacity="1">
			<polygon style="" points="339.0158947110176,110.56410217285156 340.64889031648636,75.14810180664062 351.9109142422676,106.1260986328125 384.03390008211136,101.68109130859375 357.9428966641426,116.67008972167969 375.0978954434395,143.81809997558594 348.65890008211136,122.87010955810547 334.36089593172073,149.42410278320312 337.68389397859573,121.53909301757812 299.87288933992386,113.819091796875 " id="svg_9" fill="#000000" fill-opacity="1"/>
		</g>
		<g id="svg_10" fill="#000000" fill-opacity="1">
			<polygon style="" points="72.41588860750198,229.52008056640625 49.67289239168167,202.3220977783203 78.91588860750198,217.5321044921875 99.57789117097855,192.53709411621094 90.48988610506058,221.22109985351562 121.48488885164261,229.62408447265625 87.84088402986526,232.06610107421875 95.26088982820511,261.2991027832031 78.85488396883011,238.506103515625 45.776892483234406,258.38409423828125 " id="svg_11" fill="#000000" fill-opacity="1"/>
		</g>
		<g id="svg_12" fill="#000000" fill-opacity="1">
			<polygon style="" points="195.91288262605667,342.9941101074219 150.72088128328323,317.2500915527344 170.74288445711136,362.7830810546875 148.97288018465042,396.0810852050781 67.51688653230667,349.4270935058594 19.673889935016632,315.4631042480469 33.61488991975784,263.4040832519531 43.73288995027542,238.98809814453125 102.89388543367386,290.1661071777344 92.1108883023262,261.5000915527344 88.17589074373245,246.0640869140625 103.56088525056839,251.06808471679688 128.0628917813301,263.75909423828125 78.47588616609573,194.61109924316406 90.88088494539261,187.11810302734375 137.96288567781448,165.1400909423828 178.65488702058792,231.52908325195312 186.1258800625801,246.0640869140625 189.9088848233223,272.01409912109375 217.37989312410355,306.8771057128906 223.19288140535355,318.18109130859375 " id="svg_13" fill="#000000" fill-opacity="1"/>
			<polygon style="" points="486.46990472078323,175.7490997314453 455.6609142422676,229.00808715820312 421.4839122891426,270.5000915527344 384.0678966641426,302.8970947265625 362.383906185627,291.84808349609375 357.9219005703926,239.5791015625 331.196894466877,275.8251037597656 331.17888909578323,275.8310852050781 322.7018993496895,284.92608642578125 283.5148876309395,278.12109375 289.7809093594551,222.98809814453125 295.16289788484573,205.0791015625 293.852900326252,187.1710968017578 301.42888909578323,120.48410034179688 323.25689202547073,120.17810821533203 376.8329113125801,125.69210052490234 365.300898373127,185.14109802246094 362.5359142422676,193.88009643554688 367.91790276765823,188.6920928955078 395.10589104890823,169.67410278320312 398.1358898282051,186.819091796875 398.14190179109573,186.8380889892578 396.7448986172676,206.56109619140625 440.61690789461136,133.64309692382812 472.20989495515823,156.21609497070312 " id="svg_14" fill="#000000" fill-opacity="1"/>
			<path style="" d="M280.55389036989214,154.30609927368164 c-0.3010000000000001,-0.6130000000000002 -33.319,-31.565 -33.319,-31.565 s-25.373,-11.008 -46.617,-0.4380000000000001 c-0.9390000000000002,0.458 -4.363,-0.982 -5.248,-0.4780000000000001 c-7.312,4.078 -13.534,9.428 -18.499,15.63 c-0.276,0.3270000000000001 -0.56,0.6990000000000004 -0.8360000000000002,1.026 c-3.51,4.605 -6.386,9.624 -8.533,14.947 c-2.231,5.533 16.541,71.222 18.227,72.63 c5.496,4.5920000000000005 11.689,8.178 18.322,10.647 c0.3270000000000001,0.132 0.6730000000000004,0.259 1.019,0.3850000000000001 c12.459,4.43 26.273,5.003 39.486,1.008 l0.019000000000000006,-0.005000000000000002 c3.418,-1.011 44.615,-50.434 45.011,-54.405 c0.4360000000000001,-4.188 0.4410000000000001,-8.437 0.033000000000000015,-12.689 c-0.039000000000000014,-0.277 -0.048000000000000015,-0.522 -0.08200000000000003,-0.78 c-0.24300000000000005,-2.259 -0.6240000000000002,-4.499 -1.13,-6.744 C287.3108903698921,158.55409927368163 282.9108903698921,159.02409927368163 280.55389036989214,154.30609927368164 zM208.71189036989213,182.36609927368164 c-0.14800000000000005,-0.22500000000000006 -0.3140000000000001,-0.4450000000000001 -0.4870000000000001,-0.6840000000000004 c-0.3890000000000001,-0.6300000000000002 -0.7580000000000002,-1.2650000000000001 -1.101,-1.949 c-4.051,-8.145 -1.714,-17.791 5.066,-23.281 c0.4340000000000001,-0.3520000000000001 0.8730000000000002,-0.6860000000000004 1.356,-1.012 l0.019000000000000006,-0.005000000000000002 c0.6700000000000004,-0.462 1.395,-0.8790000000000002 2.136,-1.238 c4.686,-2.327 9.853,-2.567 14.462,-1.037 c0.545,0.17200000000000001 1.081,0.3870000000000001 1.58,0.6140000000000002 c4,1.706 7.43,4.7940000000000005 9.508,8.975 c2.146,4.346 2.51,9.086 1.335,13.427 c-0.06700000000000003,0.267 -0.14700000000000005,0.558 -0.233,0.8310000000000002 c-1.51,4.747 -4.865,8.894 -9.673,11.298 C224.1768903698921,192.54209927368163 214.0698903698921,189.82309927368163 208.71189036989213,182.36609927368164 z" id="svg_15" fill="#000000" fill-opacity="1"/>
			<g id="svg_16" fill="#000000" fill-opacity="1">
				<path style="" d="M66.45189036989213,304.0690992736816 c-0.9490000000000002,13.8 -8.457,28.367 -2.146,40.681 c0.8660000000000002,1.7080000000000002 1.952,3.249 3.211,4.6770000000000005 l-56.216,-32.198 L33.61489036989212,263.40409927368165 c6.193,0.452 12.168,2.432 17.25,6.236 C61.36489036989212,277.48309927368166 67.35689036989211,291.04409927368164 66.45189036989213,304.0690992736816 z" id="svg_17" fill="#000000" fill-opacity="1"/>
				<path style="" d="M140.44289036989213,157.16609927368165 l38.212,74.362 c-6.282,3.079 -13.942,3.258 -19.46,-0.916 c-5.227,-3.949 -7.471,-10.555 -10.475,-16.365 c-3.009,-5.828 -8.085,-11.676 -14.642,-11.466 c-3.677,0.11700000000000003 -6.974,2.186 -10.289,3.766 c-5.422,2.561 -11.659,4.019 -17.435,2.373 c-7.597,-2.169 -12.954,-9.482 -14.697000000000001,-17.203 c-0.3180000000000001,-1.454 -0.5830000000000002,-3.006 -0.777,-4.599 L140.44289036989213,157.16609927368165 z" id="svg_18" fill="#000000" fill-opacity="1"/>
				<path style="" d="M192.84089036989212,199.37809927368164 c0.7350000000000002,9.436 -0.975,19.539 -7.112,26.678 c-1.6860000000000004,-1.408 -3.313,-2.895 -4.843,-4.472 c-0.18000000000000005,-0.19500000000000006 -0.3610000000000001,-0.3900000000000001 -0.56,-0.5800000000000002 c-4.247,-4.48 -7.909,-9.645 -10.811,-15.463 c-0.8520000000000002,-1.7320000000000002 -1.6350000000000002,-3.505 -2.31,-5.268 c-0.12100000000000002,-0.274 -0.21100000000000005,-0.516 -0.3130000000000001,-0.796 c-3.419,-9.091 -4.603,-18.582 -3.7670000000000003,-27.793 c0.007000000000000004,-0.3320000000000002 0.03800000000000001,-0.6500000000000002 0.07,-0.9690000000000002 c0.6250000000000002,-5.954 2.077,-11.756 4.308,-17.289 c1.569,1.215 3.072,2.491 4.535,3.84 C183.77489036989212,168.17209927368165 191.57389036989213,183.41609927368165 192.84089036989212,199.37809927368164 z" id="svg_19" fill="#000000" fill-opacity="1"/>
				<path style="" d="M217.3798903698921,306.87709927368167 c-8.827,-3.709 -16.717,-10.515 -26.206,-12.383000000000001 c-11.131,-2.196 -22.357,2.748 -32.269,8.24 c-8.843,4.913 -19.623,10.471 -28.431,5.478 c-6.736,-3.8200000000000003 -9.153,-12.872 -7.202,-20.365 c1.952,-7.493 7.358,-13.596 13.26,-18.626 c13.79,-11.749 31.945,-18.537 49.594,-23.157 L217.3798903698921,306.87709927368167 z" id="svg_20" fill="#000000" fill-opacity="1"/>
				<path style="" d="M95.15089036989212,357.43609927368163 c3.368,3.997 8.23,6.947 13.453,7.13 c6.6770000000000005,0.23500000000000001 12.993,-4.214 16.044,-10.157 c3.051,-5.944 3.158,-13.086 1.428,-19.54 c-3.122,-11.651 -18.144,-38.158 -33.202,-25.046 C80.75089036989212,320.38009927368165 86.23789036989211,346.85609927368165 95.15089036989212,357.43609927368163 z" id="svg_21" fill="#000000" fill-opacity="1"/>
				<path style="" d="M103.56089036989212,251.06809927368164 c0.53,2.114 0.802,4.118 0.803,5.829 c0.006000000000000004,1.586 -0.251,3.33 -1.4220000000000002,4.412 c-0.8130000000000002,0.7510000000000002 -1.9460000000000002,1.038 -3.042,1.17 c-2.532,0.3010000000000001 -5.218,-0.07500000000000002 -7.789,-0.979 l-7.642,-20.32 L103.56089036989212,251.06809927368164 z" id="svg_22" fill="#000000" fill-opacity="1"/>
				<path style="" d="M288.4068903698921,163.47309927368164 c-6.347,3.427 -14.681000000000001,1.204 -20.411,-3.341 c-5.937,-4.691 -9.844,-11.414 -14.249,-17.58 c-4.406,-6.166 -9.82,-12.184 -17.093,-14.302 c-6.84,-1.976 -14.118,-0.19600000000000006 -21.198,0.557 c-8.439,0.9 -16.126,-1.717 -20.084,-6.982 c0.8850000000000002,-0.504 1.794,-0.994 2.734,-1.452 c21.244,-10.57 45.601,-8.125 63.946,4.309 c0.3240000000000001,0.19500000000000006 0.6160000000000002,0.4190000000000001 0.9460000000000002,0.6330000000000002 c7.615,5.359 14.151,12.475 18.923000000000002,21.112 c0.14800000000000005,0.22500000000000006 0.263,0.4810000000000001 0.4160000000000001,0.7250000000000002 c0.2960000000000001,0.5950000000000002 0.6110000000000002,1.184 0.913,1.7970000000000002 C285.60489036989213,153.66609927368165 287.3108903698921,158.55409927368163 288.4068903698921,163.47309927368164 z" id="svg_23" fill="#000000" fill-opacity="1"/>
				<path style="" d="M287.03989036989213,196.17609927368164 c-2.983,9.483 -8.145,18.277 -15.244,25.51 c-0.3010000000000001,0.3140000000000001 -0.5880000000000002,0.6030000000000002 -0.8940000000000002,0.8980000000000002 c-4.6370000000000005,4.5600000000000005 -10.081,8.468 -16.206,11.521 c-3.318,1.6420000000000003 -6.705,2.974 -10.122,3.985 l-0.019000000000000006,0.005000000000000002 c-0.8810000000000002,-0.549 -1.7400000000000002,-1.166 -2.515,-1.848 c-6.354,-5.5600000000000005 -8.676,-14.783 -7.362,-23.122 c3.182,-20.035 35.985,-41.088 54.833,-29.48 l0.07300000000000002,0.040000000000000015 c-0.3950000000000002,3.9699999999999998 -1.183,7.868 -2.311,11.659 C287.1878903698921,195.61809927368165 287.1078903698921,195.90909927368165 287.03989036989213,196.17609927368164 z" id="svg_24" fill="#000000" fill-opacity="1"/>
				<path style="" d="M300.4328903698921,205.81909927368164 c-0.7140000000000002,6.928 -4.818,13.396 -10.652000000000001,17.169 l4.072,-35.817 C298.5718903698921,192.07109927368165 301.1278903698921,199.04109927368165 300.4328903698921,205.81909927368164 z" id="svg_25" fill="#000000" fill-opacity="1"/>
				<path style="" d="M386.11189036989214,119.29809927368163 l-20.81,65.843 c-4.489,-8.657 -0.3610000000000001,-21.09 -7.551,-27.686 c-4.542,-4.147 -11.449,-3.794 -17.345,-5.57 c-10.392,-3.132 -17.681,-13.843 -17.734,-24.693 c-0.004000000000000002,-2.432 0.18900000000000006,-4.755 0.5850000000000002,-7.014 L386.11189036989214,119.29809927368163 z" id="svg_26" fill="#000000" fill-opacity="1"/>
				<path style="" d="M400.2168903698921,157.57909927368163 l-2.081,29.241 l0.005000000000000002,0.019000000000000006 c-0.11700000000000003,0.09600000000000006 -0.21400000000000005,0.18600000000000005 -0.3310000000000001,0.281 c-4.739,3.992 -10.71,6.795 -16.914,6.8 c-4.782,0.005000000000000002 -9.653,-1.862 -12.979,-5.228 L400.2168903698921,157.57909927368163 z" id="svg_27" fill="#000000" fill-opacity="1"/>
				<path style="" d="M421.4838903698921,270.50009927368166 l-37.047,44.963 l-33.594,-15.251 l5.76,-51.687 l-25.405,27.3 l-0.019000000000000006,0.006000000000000004 c-1.5590000000000002,-0.18700000000000006 -3.146,-0.3250000000000001 -4.657,-0.774 c-4.757,-1.404 -8.234,-5.86 -9.346,-10.692 c-4.465,-19.673000000000002 20.141,-39.629 38.323,-38.426 c19.734,1.29 44.415,9.764 56.863,25.681 C416.6918903698921,257.16809927368166 419.76789036989214,263.6580992736816 421.4838903698921,270.50009927368166 z" id="svg_28" fill="#000000" fill-opacity="1"/>
				<path style="" d="M333.99389036989214,210.33909927368165 c4.893,0.46 10.264,0.137 14.028,-3.023 c3.227,-2.71 4.663,-7.066 4.892,-11.274000000000001 c0.7370000000000002,-13.564 -12.691,-28.234 -26.088,-19.227 C314.0098903698921,185.43209927368164 317.9348903698921,208.83109927368164 333.99389036989214,210.33909927368165 z" id="svg_29" fill="#000000" fill-opacity="1"/>
				<path style="" d="M499.5358903698921,175.73709927368165 l-43.875,53.271 c-3.333,-1.6110000000000002 -6.57,-3.8890000000000002 -9.615,-6.924 c-7.525,-7.468 -10.803,-18.991 -8.152,-29.264 c1.57,-6.105 5.796,-12.154 12.002,-13.293 c3.718,-0.6860000000000004 7.702,0.468 11.269,-0.8130000000000002 c4.615,-1.6470000000000002 6.932,-6.813 8.061,-11.594 c0.8730000000000002,-3.6750000000000007 1.397,-7.559 2.983,-10.905 L499.5358903698921,175.73709927368165 z" id="svg_30" fill="#000000" fill-opacity="1"/>
			</g>
		</g>
		<g id="svg_31" fill="#000000" fill-opacity="1">
			<polygon style="" points="151.67089349031448,72.99609375 151.80388909578323,37.5421028137207 164.3668926358223,68.01710510253906 196.27288323640823,62.21609878540039 170.8408916592598,78.29510498046875 189.12888604402542,104.69310760498047 161.82688409090042,84.88209533691406 148.66588860750198,112.01809692382812 150.80588799715042,84.01710510253906 112.70088464021683,77.90510559082031 " id="svg_32" fill="#000000" fill-opacity="1"/>
		</g>
		<g id="svg_33" fill="#000000" fill-opacity="1">
			<polygon style="" points="253.7558849453926,297.2940979003906 230.34888726472855,269.6170959472656 260.3338878750801,285.0000915527344 281.3159130215645,259.3291015625 272.1878917813301,288.70709228515625 303.92489129304886,297.12109375 269.540888607502,299.8100891113281 277.29390984773636,329.6540832519531 260.3908947110176,306.4450988769531 226.6848857998848,326.9560852050781 " id="svg_34" fill="#000000" fill-opacity="1"/>
		</g>
		<g id="svg_35" fill="#000000" fill-opacity="1">
			<polygon style="" points="347.12090569734573,322.6191101074219 374.8889110684395,300.59210205078125 381.217890560627,336.5700988769531 " id="svg_36" fill="#000000" fill-opacity="1"/>
			<polygon style="" points="260.7748973965645,109.63910675048828 251.8808849453926,75.3291015625 287.3388927578926,84.11410522460938 " id="svg_37" fill="#000000" fill-opacity="1"/>
			<polygon style="" points="96.03988915681839,160.69509887695312 87.14588433504105,126.38610076904297 122.60488396883011,135.1710968017578 " id="svg_38" fill="#000000" fill-opacity="1"/>
			<polygon style="" points="196.70289117097855,396.0260925292969 187.80889397859573,361.71710205078125 223.2678936123848,370.5021057128906 " id="svg_39" fill="#000000" fill-opacity="1"/>
		</g>
		<g id="svg_40" fill="#000000" fill-opacity="1">
			<g id="svg_41" fill="#000000" fill-opacity="1">
				<path style="" d="M240.31889036989213,72.27509927368165 c-0.13,0 -0.263,-0.012000000000000004 -0.3950000000000002,-0.039000000000000014 c-7.773,-1.512 -14.257,-8.325 -16.134,-16.955 c-1.205,-5.541 -0.3340000000000002,-10.984 2.387,-14.938 c1.8330000000000002,-2.6590000000000007 4.539,-4.777 7.862,-6.167 c-0.528,-5.756 1.228,-11.764 5.17,-15.991 c6.503,-6.9719999999999995 18.251,-8.346 26.184,-3.058 c0.9450000000000002,0.6290000000000002 1.201,1.905 0.5710000000000002,2.851 c-0.6280000000000002,0.9480000000000002 -1.9060000000000001,1.204 -2.853,0.5710000000000002 c-6.332,-4.216 -15.705,-3.124 -20.894,2.441 c-2.965,3.18 -4.3790000000000004,7.622 -4.179,11.969 c5.927,-1.159 12.169,0.3410000000000002 16.303,4.099 c2.121,1.9260000000000002 3.494,4.821 3.503,7.371 c0.005000000000000002,1.858 -0.6710000000000004,3.465 -1.957,4.647 c-1.108,1.02 -2.611,1.641 -4.467,1.8410000000000002 c-4.828,0.555 -9.984,-1.9220000000000002 -13.439,-6.397 c-1.4300000000000002,-1.852 -2.474,-3.962 -3.143,-6.192 c-2.215,1.072 -4.055,2.582 -5.274,4.351 c-2.079,3.019 -2.72,7.293 -1.7550000000000003,11.729 c1.509,6.9350000000000005 6.814,12.606 12.901,13.789 c1.115,0.21700000000000005 1.843,1.2970000000000002 1.6260000000000003,2.412 C242.14489036989212,71.59209927368164 241.28389036989213,72.27509927368165 240.31889036989213,72.27509927368165 zM238.71489036989212,37.01409927368164 c0.532,1.8 1.372,3.501 2.5220000000000002,4.99 c2.5460000000000003,3.3 6.35,5.172 9.736,4.825 c0.6620000000000003,-0.07300000000000002 1.568,-0.267 2.127,-0.782 c0.4250000000000001,-0.3890000000000001 0.6300000000000002,-0.914 0.6280000000000002,-1.605 c-0.004000000000000002,-1.405 -0.8900000000000002,-3.19 -2.154,-4.339 C248.3568903698921,37.180099273681634 243.4218903698921,36.05009927368164 238.71489036989212,37.01409927368164 z" id="svg_42" fill="#000000" fill-opacity="1"/>
			</g>
			<g id="svg_43" fill="#000000" fill-opacity="1">
				<path style="" d="M270.4068903698921,395.5810992736816 c-0.7500000000000002,0 -1.472,-0.4120000000000001 -1.835,-1.125 c-3.595,-7.057 -2.219,-16.363 3.423,-23.153 c3.623,-4.363 8.448,-7.03 13.24,-7.318 c3.222,-0.16500000000000006 6.557,0.6350000000000002 9.701,2.396 c4.211,-3.96 10.015,-6.277 15.783,-5.774 c9.497,0.8300000000000002 17.812,9.24 18.534,18.748 c0.08600000000000003,1.1320000000000001 -0.7620000000000002,2.121 -1.895,2.206 c-1.162,0.09100000000000005 -2.122,-0.7640000000000002 -2.207,-1.895 c-0.5760000000000002,-7.587 -7.211,-14.298 -14.79,-14.958 c-4.3260000000000005,-0.3870000000000001 -8.702,1.241 -12.004,4.076 c4.561,3.958 7.225,9.8 6.8100000000000005,15.37 c-0.21300000000000005,2.857 -1.6470000000000002,5.723 -3.654,7.299 c-1.46,1.1480000000000001 -3.137,1.605 -4.866,1.318 c-1.483,-0.24400000000000005 -2.898,-1.047 -4.201,-2.3850000000000002 c-3.3930000000000002,-3.482 -4.632,-9.049 -3.233,-14.528 c0.5790000000000002,-2.267 1.596,-4.388 2.943,-6.287 c-2.208,-1.084 -4.532,-1.618 -6.675,-1.475 c-3.66,0.21900000000000006 -7.422,2.346 -10.321,5.836 c-4.536,5.46 -5.737,13.131 -2.922,18.66 c0.516,1.012 0.11300000000000003,2.251 -0.8990000000000002,2.766 C271.0388903698921,395.5090992736816 270.71989036989214,395.5810992736816 270.4068903698921,395.5810992736816 zM295.57789036989215,371.81309927368164 c-1.089,1.5270000000000001 -1.912,3.236 -2.378,5.061 c-1.031,4.036 -0.17,8.214 2.194,10.64 c0.465,0.4780000000000001 1.175,1.074 1.923,1.196 c0.5700000000000002,0.09100000000000005 1.111,-0.06600000000000003 1.653,-0.4920000000000001 c1.106,-0.8690000000000002 1.9660000000000002,-2.6670000000000007 2.094,-4.372 C301.3868903698921,379.51409927368167 299.23889036989215,374.93109927368164 295.57789036989215,371.81309927368164 z" id="svg_44" fill="#000000" fill-opacity="1"/>
			</g>
		</g>
	</g>
</g></g></svg>