<svg xmlns="http://www.w3.org/2000/svg" enable-background="new 0 0 128 128" height="105" width="123"><rect id="backgroundrect" width="100%" height="100%" x="0" y="0" fill="none" stroke="none" class="" style=""/><g class="currentLayer" style=""><title>Layer 1</title><path d="m119.40964910697937,52.15309912109375 c0.555,-0.783 1.097,-1.616 1.6270000000000002,-2.513 c0.17900000000000002,-0.30400000000000005 0.18600000000000003,-0.6790000000000002 0.017000000000000005,-0.988 s-0.48800000000000004,-0.507 -0.8400000000000001,-0.521 c-0.6440000000000001,-0.025000000000000005 -14.93,-0.51 -20.113,4.355 c-2.021,-2.523 -7.954,-8.618 -17.529,-7.731 c-0.274,0.025000000000000005 -0.526,0.16200000000000003 -0.6960000000000002,0.37900000000000006 c-0.16900000000000004,0.21700000000000003 -0.24300000000000002,0.49400000000000005 -0.201,0.7670000000000001 c0.7360000000000001,4.836 6.658,11.376 11.573,13.485 c0.33100000000000007,0.257 0.6630000000000001,0.501 0.995,0.7280000000000001 c-2.545,3.777 -6.849,4.753 -10.015,4.364 c-1.913,-0.23500000000000001 -4.009,-1.047 -5.596,-2.597 c-0.13,-0.3950000000000001 -0.24600000000000002,-0.801 -0.33000000000000007,-1.229 c-0.010000000000000002,-0.05200000000000001 -0.020000000000000004,-0.10300000000000001 -0.030000000000000006,-0.15500000000000003 c-1.07,-5.41 -3.128,-10.194 -5.941,-14.261 c-3.045,-5.686 -7.456,-10.408 -12.963000000000001,-13.762 c-9.493,-5.781 -21.263,-7.073 -33.142,-3.637 c-4.873,1.409 -9.15,3.912 -12.713000000000001,7.438 c-0.39300000000000007,0.38900000000000007 -2.7720000000000002,3.135 -3.102,3.5780000000000003 c-1.029,1.3820000000000001 -1.9729999999999999,2.882 -2.806,4.457 c-0.258,0.48800000000000004 -1.544,3.302 -1.746,3.816 c-2.8200000000000003,7.193 -3.585,15.384 -2.1550000000000002,23.067 c2.081,11.181 8.713000000000001,19.749 19.019,25.126 c8.32,5.407 19.107,8.021 30.28,8.417 c16.949,0.6000000000000001 47.246,-4.776 52.395,-41.767 c7.7,0.024000000000000004 13.144,-2.9939999999999998 17.778,-10.838000000000001 c0,0 -1.533,-0.05800000000000001 -3.766,0.022000000000000006 z" fill="#000000" id="svg_1" class="" fill-opacity="1"/><path d="m38.65264910697937,20.91009912109375 h0.004000000000000001 c0.3490000000000001,0 0.6730000000000002,-0.18200000000000002 0.8540000000000001,-0.48000000000000004 c0.6580000000000001,-1.081 6.353,-10.692 3.805,-15.194 c-0.8480000000000001,-1.498 -2.425,-2.219 -4.665,-2.237 c-2.18,0.013000000000000003 -3.708,0.771 -4.542,2.25 c-2.5380000000000003,4.505 3.044,14.095 3.689,15.174 c0.18000000000000002,0.30100000000000005 0.505,0.48600000000000004 0.8550000000000001,0.48700000000000004 z" fill="#000000" id="svg_2" class="" fill-opacity="1"/><path d="m35.18264910697937,23.47109912109375 c0.024000000000000004,0.0010000000000000002 0.04800000000000001,0.0020000000000000005 0.07200000000000001,0.0020000000000000005 c0.3340000000000001,0 0.6480000000000001,-0.16700000000000004 0.8340000000000001,-0.44900000000000007 c0.19900000000000004,-0.30200000000000005 0.22000000000000003,-0.6880000000000002 0.05500000000000001,-1.009 c-0.6170000000000001,-1.198 -3.845,-7.185 -6.8260000000000005,-7.361 c-0.6420000000000001,-0.04100000000000001 -1.554,0.14900000000000002 -2.299,1.2530000000000001 c-1.167,1.73 -0.9430000000000001,3.058 -0.55,3.867 c1.502,3.089 7.981,3.644 8.714,3.697 z" fill="#000000" id="svg_3" class="" fill-opacity="1"/><path d="m40.91464910697937,23.025099121093753 c0.18600000000000003,0.281 0.5,0.44900000000000007 0.8340000000000001,0.44900000000000007 c0.024000000000000004,0 0.04800000000000001,-0.0010000000000000002 0.07200000000000001,-0.0020000000000000005 c0.7340000000000001,-0.05300000000000001 7.212,-0.6080000000000001 8.714,-3.696 c0.39300000000000007,-0.809 0.6170000000000001,-2.137 -0.55,-3.867 c-0.7450000000000001,-1.104 -1.6640000000000001,-1.294 -2.299,-1.2530000000000001 c-2.981,0.17600000000000002 -6.209,6.163 -6.8260000000000005,7.361 c-0.16500000000000004,0.32000000000000006 -0.14400000000000002,0.7060000000000001 0.05500000000000001,1.008 z" fill="#000000" id="svg_4" class="" fill-opacity="1"/><path d="m97.03164910697937,51.07709912109375 s-6.053,-9.364 -17.369,-8.325 c0.797,5.243 8.723,13.156 13.318,13.327 c-4.383,9.388 -18.786,8.293 -20.681,-1.4260000000000002 c-0.010000000000000002,-0.05200000000000001 -0.020000000000000004,-0.10300000000000001 -0.030000000000000006,-0.15500000000000003 c-4.455,-22.516 -25.856,-34.324 -48.767,-27.699 c-18.093,5.231 -24.79,25.236 -21.816,41.211 c3.928,21.101 23.922,29.968 45.316,30.726 c16.949,0.6000000000000001 47.246,-4.776 52.395,-41.767 c7.7,0.024000000000000004 13.144,-2.9939999999999998 17.778,-10.838000000000001 c0,0 -16.248,-0.6220000000000001 -20.144,4.946 z" fill="#000000" id="svg_5" class="" fill-opacity="1"/><path d="m100.03164910697937,54.07709912109375 s-6.053,-9.364 -17.369,-8.325 c0.797,5.243 8.723,13.156 13.318,13.327 c-4.383,9.388 -18.786,8.293 -20.681,-1.4260000000000002 c-0.010000000000000002,-0.05200000000000001 -0.020000000000000004,-0.10300000000000001 -0.030000000000000006,-0.15500000000000003 c-4.455,-22.516 -25.856,-34.324 -48.767,-27.699 c-18.093,5.231 -24.79,25.236 -21.816,41.211 c3.928,21.101 23.922,29.968 45.316,30.726 c16.949,0.6000000000000001 47.246,-4.776 52.395,-41.767 c7.7,0.024000000000000004 13.144,-2.9939999999999998 17.778,-10.838000000000001 c0,0 -16.248,-0.6220000000000001 -20.144,4.946 z" fill="#000000" id="svg_6" class="" fill-opacity="1"/><ellipse cx="29.92465090751648" cy="75.34609985351562" fill="#000000" rx="3.9260001182556152" ry="1.8799999952316284" id="svg_7" class="" fill-opacity="1"/><path d="m51.29564910697937,90.22709912109374 c-14.217,0.928 -22.396,-2.718 -30.411,-7.264 c-2.806,1.8880000000000001 -6.166,2.8770000000000002 -9.456,3.198 c8.7,8.255 21.845,12.089 35.574,12.575 c14.586,0.517 39.043,-3.414 48.865,-28.09 c-5.5600000000000005,7.49 -11.279,17.407 -44.572,19.581 z" fill="#000000" id="svg_8" class="" fill-opacity="1"/><path d="m48.75364910697937,82.09709912109375 s5.133,16.289 21.439,15.247 c0,0 -7.383,-10.051 -6.735,-15.362 z" fill="#000000" id="svg_9" class="" fill-opacity="1"/><path d="m35.65664910697937,16.91109912109375 s-9.476,-15.854 0,-15.911 c9.718,-0.06000000000000001 0,15.911 0,15.911 z" fill="#000000" id="svg_10" class="" fill-opacity="1"/><path d="m32.25464910697937,19.47309912109375 s-4.959,-9.634 -7.407,-6.006 c-3.518,5.216 7.407,6.006 7.407,6.006 z" fill="#000000" id="svg_11" class="" fill-opacity="1"/><path d="m38.74864910697937,19.47309912109375 s4.959,-9.634 7.407,-6.006 c3.519,5.216 -7.407,6.006 -7.407,6.006 z" fill="#000000" id="svg_12" class="" fill-opacity="1"/><g fill="#000000" id="svg_13" class="" fill-opacity="1"><path d="m5.02064910697937,42.66309912109375 c0.14900000000000002,0.07900000000000001 0.30900000000000005,0.11600000000000002 0.466,0.11600000000000002 c0.35900000000000004,0 0.7060000000000001,-0.19300000000000003 0.8850000000000001,-0.533 c0.784,-1.485 1.673,-2.8970000000000002 2.6420000000000003,-4.198 c0.33000000000000007,-0.44300000000000006 0.23800000000000002,-1.069 -0.20500000000000002,-1.399 c-0.44300000000000006,-0.32900000000000007 -1.069,-0.23700000000000002 -1.399,0.20500000000000002 c-1.029,1.383 -1.974,2.882 -2.806,4.458 c-0.258,0.48700000000000004 -0.07200000000000001,1.093 0.41700000000000004,1.351 z" id="svg_14" fill="#000000" fill-opacity="1"/><path d="m118.05264910697937,45.65209912109375 c-0.16900000000000004,-0.30900000000000005 -0.48800000000000004,-0.507 -0.8400000000000001,-0.521 c-0.6420000000000001,-0.025000000000000005 -14.929,-0.509 -20.113,4.355 c-2.021,-2.5220000000000002 -7.953,-8.612 -17.529,-7.731 c-0.274,0.025000000000000005 -0.526,0.16200000000000003 -0.6960000000000002,0.37900000000000006 c-0.16900000000000004,0.21700000000000003 -0.24300000000000002,0.49400000000000005 -0.201,0.7670000000000001 c0.796,5.234 7.671,12.478 12.766,13.922 c-2.515,4.024 -6.963,5.052 -10.214,4.655 c-3.257,-0.4 -7.055,-2.454 -7.945,-7.021 l-0.031000000000000007,-0.15500000000000003 c-2.11,-10.666 -8.106,-19.483 -16.884,-24.829 c-9.492,-5.781 -21.261,-7.073 -33.141,-3.637 c-4.8740000000000006,1.409 -9.151,3.912 -12.714,7.438 c-0.39300000000000007,0.38900000000000007 -0.3960000000000001,1.022 -0.007000000000000002,1.415 s1.021,0.3960000000000001 1.415,0.007000000000000002 c3.322,-3.289 7.313,-5.623 11.862,-6.938 c11.334,-3.276 22.538,-2.061 31.545,3.424 c8.294,5.051 13.963000000000001,13.4 15.963000000000001,23.509 l0.030000000000000006,0.15200000000000002 c0.916,4.698 4.618,8 9.664,8.620000000000001 c4.547,0.56 10.297,-1.379 12.904,-6.963 c0.14200000000000002,-0.30400000000000005 0.12200000000000001,-0.6580000000000001 -0.05300000000000001,-0.9440000000000001 s-0.48100000000000004,-0.465 -0.8160000000000001,-0.47800000000000004 c-3.832,-0.14300000000000002 -10.569,-6.6690000000000005 -12.104,-11.4 c9.815,-0.28300000000000003 15.224,7.856 15.28,7.942 c0.18100000000000002,0.278 0.48900000000000005,0.44900000000000007 0.8220000000000001,0.455 c0.3420000000000001,0.021000000000000005 0.6460000000000001,-0.15400000000000003 0.8360000000000001,-0.42600000000000005 c2.605,-3.723 12.328,-4.527 17.54,-4.546 c-4.085,6.191 -8.928,8.866 -15.907,8.866 c-0.028000000000000004,0 -0.06500000000000002,0.0010000000000000002 -0.08600000000000002,0 c-0.49900000000000005,0 -0.922,0.36800000000000005 -0.99,0.8620000000000001 c-3.203,23.011 -16.12,33.295 -28.897,37.747 c-2.2960000000000003,-3.539 -5.454,-9.246 -5.06,-12.476 c0.06700000000000002,-0.548 -0.32300000000000006,-1.047 -0.8720000000000001,-1.114 c-0.543,-0.06400000000000002 -1.047,0.32300000000000006 -1.114,0.8720000000000001 c-0.536,4.389 3.762,11.422 5.844,14.529 c-13.884,-0.253 -18.409,-13.985 -18.602,-14.594 c-0.16700000000000004,-0.525 -0.7280000000000001,-0.8170000000000001 -1.255,-0.6510000000000001 c-0.526,0.16700000000000004 -0.8180000000000001,0.7280000000000001 -0.6520000000000001,1.254 c0.04200000000000001,0.133 3.414,10.43 12.926,14.428 c-5.291,0.914 -10.127,1.038 -13.689,0.911 c-7.805,-0.276 -22.71,-2.033 -33.241,-10.733 c2.048,-0.29000000000000004 5.064,-1.09 7.722,-3.267 c0.42700000000000005,-0.35000000000000003 0.49000000000000005,-0.98 0.14,-1.407 s-0.979,-0.48900000000000005 -1.407,-0.14 c-3.324,2.723 -7.429,2.956 -8.505,2.972 c-4.331,-4.226 -7.682,-9.844 -9.077,-17.334 c-1.363,-7.32 -0.6350000000000001,-15.122 2.05,-21.97 c0.202,-0.514 -0.05200000000000001,-1.095 -0.5660000000000001,-1.296 c-0.517,-0.201 -1.095,0.05300000000000001 -1.296,0.5660000000000001 c-2.819,7.191 -3.584,15.382 -2.154,23.065 c3.561,19.13 20.423000000000002,30.627 46.263,31.542 c0.7210000000000001,0.025000000000000005 1.513,0.04200000000000001 2.37,0.04200000000000001 c4.043,0 9.493,-0.36600000000000005 15.336,-1.7610000000000001 c1.263,0.24100000000000002 2.608,0.37600000000000006 4.043,0.37600000000000006 c0.502,0 1.017,-0.017000000000000005 1.541,-0.05000000000000001 c0.36500000000000005,-0.023000000000000007 0.6880000000000002,-0.24400000000000002 0.8420000000000001,-0.5750000000000001 s0.11600000000000002,-0.7200000000000001 -0.1,-1.015 c-0.11400000000000002,-0.15500000000000003 -0.24000000000000002,-0.33100000000000007 -0.37200000000000005,-0.518 c2.513,-0.905 5.035,-2.014 7.494,-3.416 c12.252,-6.985 19.699,-18.71 22.144,-34.858 c7.88,-0.20800000000000002 13.232,-3.633 17.772,-11.32 c0.17900000000000002,-0.30400000000000005 0.18500000000000003,-0.6790000000000002 0.016000000000000004,-0.988 z" id="svg_15" fill="#000000" fill-opacity="1"/><path d="m25.53164910697937,68.24909912109375 c1.9060000000000001,-0.37700000000000006 3.146,-2.228 2.769,-4.134 s-2.228,-3.146 -4.134,-2.769 s-3.146,2.228 -2.769,4.134 s2.228,3.146 4.134,2.769 z" id="svg_16" fill="#000000" fill-opacity="1"/><path d="m35.65264910697937,17.91009912109375 h0.004000000000000001 c0.3490000000000001,0 0.6730000000000002,-0.18200000000000002 0.8540000000000001,-0.48000000000000004 c0.6580000000000001,-1.081 6.353,-10.692 3.805,-15.194 c-0.8480000000000001,-1.498 -2.427,-2.246 -4.665,-2.236 c-2.18,0.013000000000000003 -3.708,0.77 -4.542,2.25 c-2.5380000000000003,4.505 3.044,14.095 3.689,15.174 c0.18000000000000002,0.30000000000000004 0.505,0.48500000000000004 0.8550000000000001,0.48600000000000004 zm-2.801,-14.678 c0.462,-0.8200000000000001 1.3820000000000001,-1.223 2.811,-1.232 h0.04700000000000001 c2.173,0 2.693,0.918 2.865,1.221 c1.303,2.3 -0.8460000000000001,7.838 -2.911,11.662 c-2.02,-3.817 -4.113,-9.341 -2.8120000000000003,-11.651 z" id="svg_17" fill="#000000" fill-opacity="1"/><path d="m32.18264910697937,20.47109912109375 c0.024000000000000004,0.0010000000000000002 0.04800000000000001,0.0020000000000000005 0.07200000000000001,0.0020000000000000005 c0.3340000000000001,0 0.6480000000000001,-0.16700000000000004 0.8340000000000001,-0.44900000000000007 c0.19900000000000004,-0.30200000000000005 0.22000000000000003,-0.6880000000000002 0.05500000000000001,-1.009 c-0.6170000000000001,-1.198 -3.845,-7.185 -6.8260000000000005,-7.361 c-0.6390000000000001,-0.04100000000000001 -1.554,0.14900000000000002 -2.299,1.2530000000000001 c-1.167,1.73 -0.9430000000000001,3.058 -0.55,3.867 c1.502,3.089 7.98,3.644 8.714,3.697 zm-6.505,-6.445 c0.231,-0.3420000000000001 0.3990000000000001,-0.37600000000000006 0.48900000000000005,-0.37600000000000006 c0.013000000000000003,0 0.024000000000000004,0 0.03300000000000001,0.0010000000000000002 c0.994,0.05900000000000001 2.7600000000000002,2.191 4.207,4.572 c-2.06,-0.37200000000000005 -4.559,-1.129 -5.139,-2.323 c-0.08900000000000002,-0.18200000000000002 -0.35800000000000004,-0.7360000000000001 0.41000000000000003,-1.874 z" id="svg_18" fill="#000000" fill-opacity="1"/><path d="m37.91464910697937,20.02509912109375 c0.18600000000000003,0.281 0.5,0.44900000000000007 0.8340000000000001,0.44900000000000007 c0.024000000000000004,0 0.04800000000000001,-0.0010000000000000002 0.07200000000000001,-0.0020000000000000005 c0.7340000000000001,-0.05300000000000001 7.212,-0.6080000000000001 8.714,-3.696 c0.39300000000000007,-0.809 0.6170000000000001,-2.137 -0.55,-3.867 c-0.7450000000000001,-1.104 -1.6670000000000003,-1.294 -2.299,-1.2530000000000001 c-2.981,0.17600000000000002 -6.209,6.163 -6.8260000000000005,7.361 c-0.16500000000000004,0.32000000000000006 -0.14400000000000002,0.7060000000000001 0.05500000000000001,1.008 zm6.889,-6.374 c0.009000000000000003,0 0.021000000000000005,-0.0010000000000000002 0.03300000000000001,-0.0010000000000000002 c0.09000000000000002,0 0.258,0.03400000000000001 0.48900000000000005,0.37600000000000006 c0.7680000000000001,1.138 0.49900000000000005,1.6920000000000002 0.41000000000000003,1.874 c-0.5720000000000001,1.178 -2.993,1.952 -5.146,2.332 c1.448,-2.3850000000000002 3.217,-4.522 4.214,-4.581 z" id="svg_19" fill="#000000" fill-opacity="1"/></g></g></svg>