<svg id="Capa_1" enable-background="new 0 0 512 512" height="512" viewBox="0 0 512 512" width="512" xmlns="http://www.w3.org/2000/svg"><g><path d="m222.36 482h30v30h-30z" fill="#fc6"/><path d="m0 259.64h30v30h-30z" fill="#ffe666"/><path d="m252.36 422h30v30h-30z" fill="#fc6"/><path d="m33.084 508.204c37.427-36.195 77.136 3.795 77.136 3.795 104.759-28.347 101.02-134.49 101.02-134.49l-38.375-66.659-152.03 180.315c5.638 10.604 12.249 17.039 12.249 17.039z" fill="#fc6"/><path d="m.755 401.026 29.285 19.02c-24.367 28.116-17.96 54.648-9.205 71.119l166.172-166.172-52.517-24.233c.001 0-105.389-4.493-133.735 100.266z" fill="#ffe666"/><path d="m211.24 377.51-38.375-66.659-63.802 92.087c61.792 14.957 102.177-25.428 102.177-25.428z" fill="#cc295f"/><path d="m109.063 402.937 77.944-77.944-52.517-24.233c.001 0-40.385 40.385-25.427 102.177z" fill="#f37"/><path d="m172.865 339.135 38.375 38.375 22.62-22.62-38.375-66.659z" fill="#cfcfe6"/><path d="m157.11 278.14-22.619 22.62 38.374 38.375 36.762-36.762z" fill="#ece6f2"/><path d="m256.479 332.271-38.375-66.659-22.619 50.903 38.375 38.375z" fill="#a3aacc"/><path d="m179.729 255.521-22.619 22.619 38.375 38.375 36.761-36.761z" fill="#cfcfe6"/><path d="m394.8 257.181c15.16 58.726-69.763 143.648-69.763 143.648l-45.939-45.939 48.673-86.641z" fill="#cc295f"/><path d="m254.819 117.2c-58.726-15.16-143.648 69.763-143.648 69.763l45.939 45.939 86.641-48.673z" fill="#f37"/><path d="m502.35 9.65-157.213 128.929 102.337 74.052c57.158-50.482 78.89-130.314 54.876-202.981z" fill="#cc295f"/><path d="m299.369 64.526 59.91 88.194 143.071-143.07c-72.667-24.014-152.499-2.282-202.981 54.876z" fill="#f37"/><path d="m373.421 138.579-91.801 63.517-63.517 91.801 60.994 60.994 165.157-139.473c1.087-.918 2.157-1.849 3.219-2.787z" fill="#ece6f2"/><path d="m299.369 64.526c-.938 1.062-1.869 2.133-2.787 3.219l-139.472 165.157 60.994 60.994 155.318-155.318z" fill="#fff5f5"/><path d="m412.302 177.459c21.439-21.439 21.439-56.322 0-77.761l-53.023 24.738-24.738 53.023c21.439 21.439 56.323 21.439 77.761 0z" fill="#101040"/><path d="m334.541 99.698c-21.439 21.439-21.439 56.322 0 77.761l77.761-77.761c-21.439-21.439-56.322-21.438-77.761 0z" fill="#283366"/><path d="m391.089 156.246c9.742-9.742 9.742-25.593 0-35.335l-24.738 10.596-10.596 24.738c9.741 9.743 25.592 9.743 35.334.001z" fill="#cfcfe6"/><path d="m355.754 120.912c-9.742 9.742-9.742 25.592 0 35.334l35.335-35.335c-9.742-9.741-25.593-9.741-35.335.001z" fill="#ece6f2"/></g></svg>