<svg xmlns="http://www.w3.org/2000/svg" enable-background="new 0 0 512 512" height="491" width="512"><rect id="backgroundrect" width="100%" height="100%" x="0" y="0" fill="none" stroke="none" class="" style=""/><g class="currentLayer" style=""><title>Layer 1</title><g id="svg_1" class="" fill="#000000" fill-opacity="1"><g id="svg_2" fill="#000000" fill-opacity="1"><path d="m388.01,398.02180231380464 c-3.611,-39.058 9.716,-77.887 36.169,-107.522 c13.319,-14.921 -4.348,-55.401 -4.775,-77.073 c-0.8760000000000003,-44.412 -51.082,-105.826 -95.502,-106.01 c-12.558,-0.05200000000000003 -24.466,7.78 -35.128,12.762 c-22.613,10.567 -48.574,10.57 -71.187,0.0020000000000000013 c-11.29,-5.276 -23.976,-13.133 -37.353,-12.725 c-43.482,1.3250000000000002 -101.212,57.805 -102.149,101.297 c-0.5,23.23 -5.977,62.169 9.072,77.414 c29.608,29.994 48.173,78.645 43.352,120.067 c-1.234,10.598 8.599,20.355 8.007,31.008 l21.835,13.193 h0.010000000000000005 c23.86,25.609 57.876,41.63 95.639,41.63 c37.701,0 71.666,-15.969 95.521,-41.503 c0.03400000000000002,0.0020000000000000013 0.06800000000000005,0.003000000000000003 0.10200000000000002,0.005000000000000003 l38.901,-11.641 c-0.281,-13.663 -1.256,-27.296 -2.5140000000000002,-40.904 z" fill="#000000" id="svg_3" fill-opacity="1"/><path d="m323.902,107.41780231380463 c-12.558,-0.05200000000000003 -24.466,7.78 -35.128,12.762 c-10.295,4.811 -21.285,7.425 -32.336,7.856 v364.024 c37.525,-0.12400000000000004 71.321,-16.062 95.083,-41.498 c0.03400000000000002,0.0020000000000000013 0.06800000000000005,0.003000000000000003 0.10200000000000002,0.005000000000000003 l38.901,-11.641 c-0.281,-13.663 -1.255,-27.295 -2.513,-40.903 c-3.611,-39.058 9.716,-77.887 36.169,-107.521 c13.319,-14.921 -4.348,-55.401 -4.775,-77.073 c-0.8770000000000003,-44.413 -51.083,-105.827 -95.503,-106.011 z" fill="#000000" id="svg_4" fill-opacity="1"/><g id="svg_5" fill="#000000" fill-opacity="1"><path d="m95.542,1.1628023138046257 c-52.682,0 -95.542,42.86 -95.542,95.543 c0,37.081 17.71,67.404 48.59,83.195 c2.187,1.118 4.519,1.6470000000000002 6.817,1.6470000000000002 c5.454,0 10.714,-2.984 13.367,-8.174 c3.201,-6.258 1.568,-13.7 -3.501,-18.119 l84.188,-96.459 c5.055,4.417 12.632,5.036 18.399,1.038 c6.809,-4.72 8.502,-14.064 3.783,-20.873 c-17.141,-24.728 -43.456,-37.798 -76.101,-37.798 z" fill="#000000" id="svg_6" fill-opacity="1"/><path d="m416.458,1.1628023138046257 c-33.908,0 -59.658,12.92 -76.534,38.402 c-4.574,6.907 -2.684,16.214 4.224,20.788 c5.746,3.806 13.144,3.124 18.105,-1.186 l83.739,96.498 c-4.924,4.27 -6.6610000000000005,11.427 -3.781,17.635 c2.539,5.473 7.957,8.691 13.617,8.691 c2.113,0 4.26,-0.4490000000000002 6.303,-1.3960000000000001 c32.159,-14.92 49.87,-44.713 49.87,-83.89 c-0.0010000000000000007,-52.682 -42.861,-95.542 -95.543,-95.542 z" fill="#000000" id="svg_7" fill-opacity="1"/></g><path d="m471.361,252.08280231380462 c-2.557,-4.185 -3.935,-8.982 -3.935,-13.887 v-1.866 c0,-117.021 -94.864,-211.884 -211.884,-211.884 c-117.02,0 -211.884,94.864 -211.884,211.884 c0,5.031 -1.449,9.946 -4.132,14.202 c-12.701,20.151 -20.051,44.014 -20.051,69.594 c0,72.184 58.517,130.701 130.701,130.701 c3.424,0 6.818,-0.134 10.176,-0.3920000000000002 l0.6930000000000006,-12.298 c0.5920000000000003,-10.654 1.566,-21.281 2.8,-31.88 c4.822,-41.422 -9.98,-82.749 -39.588,-112.742 c-15.048,-15.244 -24.183,-36.338 -23.683,-59.568 c0.937,-43.492 36.178,-79.072 79.661,-80.397 c13.377,-0.40800000000000014 26.063,2.38 37.353,7.6560000000000015 c22.613,10.568 48.573,10.566 71.187,-0.0020000000000000013 c10.662,-4.983 22.57,-7.745 35.128,-7.6930000000000005 c44.42,0.18400000000000008 81.01,36.177 81.885,80.589 c0.42700000000000016,21.673000000000002 -7.531,41.48 -20.849,56.401 c-26.453,29.635 -39.781,68.464 -36.169,107.522 c1.258,13.608 2.233,27.24 2.513,40.903 l0.3410000000000003,11.641 c2.692,0.1660000000000001 5.402,0.261 8.135,0.261 c72.184,0 130.701,-58.517 130.701,-130.701 c-0.0020000000000000013,-24.929 -6.987,-48.224 -19.099,-68.044 z" fill="#000000" id="svg_8" fill-opacity="1"/><g id="svg_9" fill="#000000" fill-opacity="1"><g id="svg_10" fill="#000000" fill-opacity="1"><path d="m188.447,273.2558023138046 c-8.284,0 -15,-6.716 -15,-15 v-38.367 c0,-8.284 6.716,-15 15,-15 s15,6.716 15,15 v38.367 c0,8.284 -6.716,15 -15,15 z" fill="#000000" id="svg_11" fill-opacity="1"/></g><g id="svg_12" fill="#000000" fill-opacity="1"><g id="svg_13" fill="#000000" fill-opacity="1"><path d="m323.553,273.2558023138046 c-8.284,0 -15,-6.716 -15,-15 v-38.367 c0,-8.284 6.716,-15 15,-15 s15,6.716 15,15 v38.367 c0,8.284 -6.716,15 -15,15 z" fill="#000000" id="svg_14" fill-opacity="1"/></g></g></g><path d="m467.426,238.19580231380462 v-1.866 c0,-116.721 -94.381,-211.389 -210.988,-211.873 v144.602 c11.051,-0.43100000000000016 22.04,-3.045 32.336,-7.856 c10.662,-4.983 22.57,-7.745 35.128,-7.6930000000000005 c44.42,0.18400000000000008 81.01,36.177 81.885,80.589 c0.42700000000000016,21.673000000000002 -7.531,41.48 -20.849,56.401 c-26.453,29.635 -39.781,68.464 -36.169,107.521 c1.258,13.608 2.233,27.24 2.513,40.903 l0.3410000000000003,11.641 c2.692,0.1660000000000001 5.402,0.261 8.135,0.261 c72.184,0 130.701,-58.517 130.701,-130.701 c0,-24.929 -6.985,-48.223 -19.097,-68.044 c-2.558,-4.183 -3.936,-8.98 -3.936,-13.885 z" fill="#000000" id="svg_15" fill-opacity="1"/></g><path d="m167.314,320.8808023138046 v-12.141 c0,-14.595 -11.832,-26.427 -26.427,-26.427 s-26.427,11.832 -26.427,26.427 v12.635 c0,25.472 -2.424,50.947 -8.232,75.748 c-5.616,23.98 0.924,50.229 19.62,68.925 c28.755,28.755 75.377,28.755 104.132,0 l26.02,-26.02 l3.068,-147.982 c-33.419,-4.03 -66.534,6.931 -91.754,28.835 z" fill="#000000" id="svg_16" fill-opacity="1"/><path d="m371.113,282.31280231380464 c-14.595,0 -26.427,11.832 -26.427,26.427 v12.141 c-25.22,-21.904 -58.631,-32.267 -92.05,-28.236 c-20.897,2.52 -37.367,18.991 -39.887,39.887 c-4.365,36.193 8.141,72.385 33.919,98.163 l35.353,35.353 c28.755,28.755 75.377,28.755 104.132,0 c18.696,-18.696 25.236,-44.944 19.62,-68.924 c-5.808,-24.802 -8.232,-50.276 -8.232,-75.748 v-12.635 c-0.0010000000000000007,-14.597 -11.833,-26.428 -26.428,-26.428 z" fill="#000000" id="svg_17" fill-opacity="1"/><path d="m397.54,321.37480231380465 v-12.635 c0,-14.595 -11.832,-26.427 -26.427,-26.427 s-26.427,11.832 -26.427,26.427 v12.141 c-24.373,-21.169 -56.398,-31.555 -88.686,-28.591 v147.737 l26.02,26.02 c28.755,28.755 75.377,28.755 104.132,0 c18.696,-18.696 25.236,-44.944 19.62,-68.924 c-5.808,-24.802 -8.232,-50.276 -8.232,-75.748 z" fill="#000000" id="svg_18" fill-opacity="1"/></g></g></svg>