<?xml version="1.0" encoding="UTF-8"?>
<!-- Generator: Adobe Illustrator 25.3.1, SVG Export Plug-In . SVG Version: 6.00 Build 0)  -->
<svg xmlns="http://www.w3.org/2000/svg" xmlns:xlink="http://www.w3.org/1999/xlink" version="1.1" id="Capa_1" x="0px" y="0px" viewBox="0 0 512 512" style="enable-background:new 0 0 512 512;" xml:space="preserve" width="512" height="512">
<g>
	<path style="fill:#FFFFFF;" d="M322.672,453.127c-71.925,33.493-157.425,21.991-218.156-29.254L5.978,367.435   c-5.189-2.972-7.359-9.336-5.07-14.86l31.431-75.826c-0.126-2.856-0.188-5.634-0.187-8.29   c-0.131-59.332,25.192-115.046,69.763-154.113c0.981-3.23,3.302-5.896,6.352-7.316c1.092-0.509,2.276-0.857,3.525-1.014l0.314-0.04   c8.923-6.868,18.426-12.998,28.361-18.292l0.038-10.29c0.018-4.684,2.768-8.819,6.862-10.726c0.857-0.399,1.773-0.701,2.733-0.888   c5.559-1.091,11.113,1.894,13.271,7.13l1.533,3.723c18.902-7.091,38.562-11.291,58.673-12.531   c1.278-5.299,3.843-10.177,7.525-14.125c2.688-2.881,5.921-5.215,9.608-6.931c10.422-4.853,22.627-4.054,31.848,2.088   c3.099,2.064,5.208,5.21,5.941,8.86c0.733,3.654-0.001,7.373-2.069,10.473c-0.678,1.026-1.497,1.958-2.426,2.77   c43.569,8.132,83.043,29.955,113.065,62.715c4.003,0.845,7.406,3.732,8.789,7.785c0.368,1.074,0.572,2.172,0.626,3.26   c9.922,12.507,18.363,26.18,25.141,40.736c0.113,0.244,0.226,0.486,0.338,0.73l9.053-15.048c1.23-2.045,3.036-3.654,5.165-4.645   c0.826-0.384,1.697-0.675,2.604-0.863c3.245-0.673,6.623,0.039,9.319,1.966l58.921,42.094c2.679,1.914,4.444,4.853,4.872,8.118   c0.43,3.264-0.514,6.56-2.609,9.104l-73.569,89.321C421.862,374.111,379.785,426.531,322.672,453.127z"/>
	<g>
		<g>
			<g>
				<path style="fill:#00C8FF;" d="M409.958,187.165c44.619,95.818,3.098,209.674-92.72,254.294      c-95.818,44.619-209.667,3.114-254.286-92.704c-9.304-19.981-14.865-40.774-16.963-61.535      c-0.638-6.262-0.97-12.508-0.965-18.752c-0.158-72.254,40.829-141.514,110.624-174.015      C251.466,49.833,365.338,91.347,409.958,187.165z"/>
				<path style="fill:#00C8FF;" d="M236.56,460.44c-22.223,0-44.503-3.9-66.004-11.739c-48.277-17.6-86.81-52.948-108.502-99.529      c-9.153-19.653-14.89-40.464-17.051-61.852c-0.649-6.37-0.974-12.713-0.969-18.852C43.87,193.746,87.517,125.087,155.229,93.554      c96.168-44.779,210.844-2.977,255.626,93.192l0,0c21.69,46.581,23.941,98.823,6.336,147.104      c-17.604,48.28-52.954,86.813-99.536,108.506C291.82,454.387,264.235,460.44,236.56,460.44z M236.156,77.562      c-26.882,0-54.158,5.712-80.09,17.788C89.049,126.558,45.852,194.511,46.014,268.466c-0.005,6.076,0.318,12.351,0.959,18.655      c2.139,21.167,7.817,41.763,16.877,61.215c21.468,46.104,59.604,81.085,107.385,98.505      c47.778,17.416,99.481,15.188,145.585-6.281c46.104-21.467,81.089-59.605,98.512-107.387      c17.423-47.784,15.196-99.49-6.272-145.591C376.815,118.336,307.938,77.562,236.156,77.562z"/>
			</g>
		</g>
		<g>
			<polygon style="fill:#0045FE;" points="339.598,150.46 341.231,115.044 352.493,146.022 384.616,141.577 358.525,156.566      375.68,183.714 349.241,162.766 334.943,189.32 338.266,161.435 300.455,153.715    "/>
		</g>
		<g>
			<polygon style="fill:#0045FE;" points="72.998,269.416 50.255,242.218 79.498,257.428 100.16,232.433 91.072,261.117      122.067,269.52 88.423,271.962 95.843,301.195 79.437,278.402 46.359,298.28    "/>
		</g>
		<g>
			<polygon style="fill:#FFD570;" points="196.495,382.89 151.303,357.146 171.325,402.679 149.555,435.977 68.099,389.323      20.256,355.359 34.197,303.3 44.315,278.884 103.476,330.062 92.693,301.396 88.758,285.96 104.143,290.964 128.645,303.655      79.058,234.507 91.463,227.014 138.545,205.036 179.237,271.425 186.708,285.96 190.491,311.91 217.962,346.773 223.775,358.077         "/>
			<polygon style="fill:#FFD570;" points="487.052,215.645 456.243,268.904 422.066,310.396 384.65,342.793 362.966,331.744      358.504,279.475 331.779,315.721 331.761,315.727 323.284,324.822 284.097,318.017 290.363,262.884 295.745,244.975      294.435,227.067 302.011,160.38 323.839,160.074 377.415,165.588 365.883,225.037 363.118,233.776 368.5,228.588 395.688,209.57      398.718,226.715 398.724,226.734 397.327,246.457 441.199,173.539 472.792,196.112    "/>
			<path style="fill:#FFD570;" d="M281.136,194.202c-0.301-0.613-33.319-31.565-33.319-31.565s-25.373-11.008-46.617-0.438     c-0.939,0.458-4.363-0.982-5.248-0.478c-7.312,4.078-13.534,9.428-18.499,15.63c-0.276,0.327-0.56,0.699-0.836,1.026     c-3.51,4.605-6.386,9.624-8.533,14.947c-2.231,5.533,16.541,71.222,18.227,72.63c5.496,4.592,11.689,8.178,18.322,10.647     c0.327,0.132,0.673,0.259,1.019,0.385c12.459,4.43,26.273,5.003,39.486,1.008l0.019-0.005     c3.418-1.011,44.615-50.434,45.011-54.405c0.436-4.188,0.441-8.437,0.033-12.689c-0.039-0.277-0.048-0.522-0.082-0.78     c-0.243-2.259-0.624-4.499-1.13-6.744C287.893,198.45,283.493,198.92,281.136,194.202z M209.294,222.262     c-0.148-0.225-0.314-0.445-0.487-0.684c-0.389-0.63-0.758-1.265-1.101-1.949c-4.051-8.145-1.714-17.791,5.066-23.281     c0.434-0.352,0.873-0.686,1.356-1.012l0.019-0.005c0.67-0.462,1.395-0.879,2.136-1.238c4.686-2.327,9.853-2.567,14.462-1.037     c0.545,0.172,1.081,0.387,1.58,0.614c4,1.706,7.43,4.794,9.508,8.975c2.146,4.346,2.51,9.086,1.335,13.427     c-0.067,0.267-0.147,0.558-0.233,0.831c-1.51,4.747-4.865,8.894-9.673,11.298C224.759,232.438,214.652,229.719,209.294,222.262z"/>
			<g>
				<path style="fill:#FF9AD2;" d="M67.034,343.965c-0.949,13.8-8.457,28.367-2.146,40.681c0.866,1.708,1.952,3.249,3.211,4.677      l-56.216-32.198L34.197,303.3c6.193,0.452,12.168,2.432,17.25,6.236C61.947,317.379,67.939,330.94,67.034,343.965z"/>
				<path style="fill:#FF9AD2;" d="M141.025,197.062l38.212,74.362c-6.282,3.079-13.942,3.258-19.46-0.916      c-5.227-3.949-7.471-10.555-10.475-16.365c-3.009-5.828-8.085-11.676-14.642-11.466c-3.677,0.117-6.974,2.186-10.289,3.766      c-5.422,2.561-11.659,4.019-17.435,2.373c-7.597-2.169-12.954-9.482-14.697-17.203c-0.318-1.454-0.583-3.006-0.777-4.599      L141.025,197.062z"/>
				<path style="fill:#FF9AD2;" d="M193.423,239.274c0.735,9.436-0.975,19.539-7.112,26.678c-1.686-1.408-3.313-2.895-4.843-4.472      c-0.18-0.195-0.361-0.39-0.56-0.58c-4.247-4.48-7.909-9.645-10.811-15.463c-0.852-1.732-1.635-3.505-2.31-5.268      c-0.121-0.274-0.211-0.516-0.313-0.796c-3.419-9.091-4.603-18.582-3.767-27.793c0.007-0.332,0.038-0.65,0.07-0.969      c0.625-5.954,2.077-11.756,4.308-17.289c1.569,1.215,3.072,2.491,4.535,3.84C184.357,208.068,192.156,223.312,193.423,239.274z"/>
				<path style="fill:#FF9AD2;" d="M217.962,346.773c-8.827-3.709-16.717-10.515-26.206-12.383      c-11.131-2.196-22.357,2.748-32.269,8.24c-8.843,4.913-19.623,10.471-28.431,5.478c-6.736-3.82-9.153-12.872-7.202-20.365      c1.952-7.493,7.358-13.596,13.26-18.626c13.79-11.749,31.945-18.537,49.594-23.157L217.962,346.773z"/>
				<path style="fill:#FF9AD2;" d="M95.733,397.332c3.368,3.997,8.23,6.947,13.453,7.13c6.677,0.235,12.993-4.214,16.044-10.157      c3.051-5.944,3.158-13.086,1.428-19.54c-3.122-11.651-18.144-38.158-33.202-25.046C81.333,360.276,86.82,386.752,95.733,397.332      z"/>
				<path style="fill:#FF9AD2;" d="M104.143,290.964c0.53,2.114,0.802,4.118,0.803,5.829c0.006,1.586-0.251,3.33-1.422,4.412      c-0.813,0.751-1.946,1.038-3.042,1.17c-2.532,0.301-5.218-0.075-7.789-0.979l-7.642-20.32L104.143,290.964z"/>
				<path style="fill:#FF9AD2;" d="M288.989,203.369c-6.347,3.427-14.681,1.204-20.411-3.341      c-5.937-4.691-9.844-11.414-14.249-17.58c-4.406-6.166-9.82-12.184-17.093-14.302c-6.84-1.976-14.118-0.196-21.198,0.557      c-8.439,0.9-16.126-1.717-20.084-6.982c0.885-0.504,1.794-0.994,2.734-1.452c21.244-10.57,45.601-8.125,63.946,4.309      c0.324,0.195,0.616,0.419,0.946,0.633c7.615,5.359,14.151,12.475,18.923,21.112c0.148,0.225,0.263,0.481,0.416,0.725      c0.296,0.595,0.611,1.184,0.913,1.797C286.187,193.562,287.893,198.45,288.989,203.369z"/>
				<path style="fill:#FF9AD2;" d="M287.622,236.072c-2.983,9.483-8.145,18.277-15.244,25.51c-0.301,0.314-0.588,0.603-0.894,0.898      c-4.637,4.56-10.081,8.468-16.206,11.521c-3.318,1.642-6.705,2.974-10.122,3.985l-0.019,0.005      c-0.881-0.549-1.74-1.166-2.515-1.848c-6.354-5.56-8.676-14.783-7.362-23.122c3.182-20.035,35.985-41.088,54.833-29.48      l0.073,0.04c-0.395,3.97-1.183,7.868-2.311,11.659C287.77,235.514,287.69,235.805,287.622,236.072z"/>
				<path style="fill:#FF9AD2;" d="M301.015,245.715c-0.714,6.928-4.818,13.396-10.652,17.169l4.072-35.817      C299.154,231.967,301.71,238.937,301.015,245.715z"/>
				<path style="fill:#FF9AD2;" d="M386.694,159.194l-20.81,65.843c-4.489-8.657-0.361-21.09-7.551-27.686      c-4.542-4.147-11.449-3.794-17.345-5.57c-10.392-3.132-17.681-13.843-17.734-24.693c-0.004-2.432,0.189-4.755,0.585-7.014      L386.694,159.194z"/>
				<path style="fill:#FF9AD2;" d="M400.799,197.475l-2.081,29.241l0.005,0.019c-0.117,0.096-0.214,0.186-0.331,0.281      c-4.739,3.992-10.71,6.795-16.914,6.8c-4.782,0.005-9.653-1.862-12.979-5.228L400.799,197.475z"/>
				<path style="fill:#FF9AD2;" d="M422.066,310.396l-37.047,44.963l-33.594-15.251l5.76-51.687l-25.405,27.3l-0.019,0.006      c-1.559-0.187-3.146-0.325-4.657-0.774c-4.757-1.404-8.234-5.86-9.346-10.692c-4.465-19.673,20.141-39.629,38.323-38.426      c19.734,1.29,44.415,9.764,56.863,25.681C417.274,297.064,420.35,303.554,422.066,310.396z"/>
				<path style="fill:#FF9AD2;" d="M334.576,250.235c4.893,0.46,10.264,0.137,14.028-3.023c3.227-2.71,4.663-7.066,4.892-11.274      c0.737-13.564-12.691-28.234-26.088-19.227C314.592,225.328,318.517,248.727,334.576,250.235z"/>
				<path style="fill:#FF9AD2;" d="M500.118,215.633l-43.875,53.271c-3.333-1.611-6.57-3.889-9.615-6.924      c-7.525-7.468-10.803-18.991-8.152-29.264c1.57-6.105,5.796-12.154,12.002-13.293c3.718-0.686,7.702,0.468,11.269-0.813      c4.615-1.647,6.932-6.813,8.061-11.594c0.873-3.675,1.397-7.559,2.983-10.905L500.118,215.633z"/>
			</g>
		</g>
		<g>
			<polygon style="fill:#0045FE;" points="152.253,112.892 152.386,77.438 164.949,107.913 196.855,102.112 171.423,118.191      189.711,144.589 162.409,124.778 149.248,151.914 151.388,123.913 113.283,117.801    "/>
		</g>
		<g>
			<polygon style="fill:#0045FE;" points="254.338,337.19 230.931,309.513 260.916,324.896 281.898,299.225 272.77,328.603      304.507,337.017 270.123,339.706 277.876,369.55 260.973,346.341 227.267,366.852    "/>
		</g>
		<g>
			<polygon style="fill:#FFEBD4;" points="347.703,362.515 375.471,340.488 381.8,376.466    "/>
			<polygon style="fill:#FFEBD4;" points="261.357,149.535 252.463,115.225 287.921,124.01    "/>
			<polygon style="fill:#FFEBD4;" points="96.622,200.591 87.728,166.282 123.187,175.067    "/>
			<polygon style="fill:#FFEBD4;" points="197.285,435.922 188.391,401.613 223.85,410.398    "/>
		</g>
		<g>
			<g>
				<path style="fill:#FFEBD4;" d="M240.901,112.171c-0.13,0-0.263-0.012-0.395-0.039c-7.773-1.512-14.257-8.325-16.134-16.955      c-1.205-5.541-0.334-10.984,2.387-14.938c1.833-2.659,4.539-4.777,7.862-6.167c-0.528-5.756,1.228-11.764,5.17-15.991      c6.503-6.972,18.251-8.346,26.184-3.058c0.945,0.629,1.201,1.905,0.571,2.851c-0.628,0.948-1.906,1.204-2.853,0.571      c-6.332-4.216-15.705-3.124-20.894,2.441c-2.965,3.18-4.379,7.622-4.179,11.969c5.927-1.159,12.169,0.341,16.303,4.099      c2.121,1.926,3.494,4.821,3.503,7.371c0.005,1.858-0.671,3.465-1.957,4.647c-1.108,1.02-2.611,1.641-4.467,1.841      c-4.828,0.555-9.984-1.922-13.439-6.397c-1.43-1.852-2.474-3.962-3.143-6.192c-2.215,1.072-4.055,2.582-5.274,4.351      c-2.079,3.019-2.72,7.293-1.755,11.729c1.509,6.935,6.814,12.606,12.901,13.789c1.115,0.217,1.843,1.297,1.626,2.412      C242.727,111.488,241.866,112.171,240.901,112.171z M239.297,76.91c0.532,1.8,1.372,3.501,2.522,4.99      c2.546,3.3,6.35,5.172,9.736,4.825c0.662-0.073,1.568-0.267,2.127-0.782c0.425-0.389,0.63-0.914,0.628-1.605      c-0.004-1.405-0.89-3.19-2.154-4.339C248.939,77.076,244.004,75.946,239.297,76.91z"/>
			</g>
			<g>
				<path style="fill:#FFEBD4;" d="M270.989,435.477c-0.75,0-1.472-0.412-1.835-1.125c-3.595-7.057-2.219-16.363,3.423-23.153      c3.623-4.363,8.448-7.03,13.24-7.318c3.222-0.165,6.557,0.635,9.701,2.396c4.211-3.96,10.015-6.277,15.783-5.774      c9.497,0.83,17.812,9.24,18.534,18.748c0.086,1.132-0.762,2.121-1.895,2.206c-1.162,0.091-2.122-0.764-2.207-1.895      c-0.576-7.587-7.211-14.298-14.79-14.958c-4.326-0.387-8.702,1.241-12.004,4.076c4.561,3.958,7.225,9.8,6.81,15.37      c-0.213,2.857-1.647,5.723-3.654,7.299c-1.46,1.148-3.137,1.605-4.866,1.318c-1.483-0.244-2.898-1.047-4.201-2.385      c-3.393-3.482-4.632-9.049-3.233-14.528c0.579-2.267,1.596-4.388,2.943-6.287c-2.208-1.084-4.532-1.618-6.675-1.475      c-3.66,0.219-7.422,2.346-10.321,5.836c-4.536,5.46-5.737,13.131-2.922,18.66c0.516,1.012,0.113,2.251-0.899,2.766      C271.621,435.405,271.302,435.477,270.989,435.477z M296.16,411.709c-1.089,1.527-1.912,3.236-2.378,5.061      c-1.031,4.036-0.17,8.214,2.194,10.64c0.465,0.478,1.175,1.074,1.923,1.196c0.57,0.091,1.111-0.066,1.653-0.492      c1.106-0.869,1.966-2.667,2.094-4.372C301.969,419.41,299.821,414.827,296.16,411.709z"/>
			</g>
		</g>
	</g>
</g>















</svg>
